<svg xmlns="http://www.w3.org/2000/svg" xmlns:xlink="http://www.w3.org/1999/xlink" width="24" height="24" viewBox="0 0 24 24">
    <defs>
        <path id="2hvgn0e79a" d="M12 .375C5.58.375.375 5.58.375 12S5.58 23.625 12 23.625 23.625 18.42 23.625 12 18.42.375 12 .375zm0 2.25c5.181 0 9.375 4.193 9.375 9.375 0 5.181-4.193 9.375-9.375 9.375-5.181 0-9.375-4.193-9.375-9.375 0-5.181 4.193-9.375 9.375-9.375zm6.572 6.106l-1.056-1.065c-.22-.22-.575-.222-.796-.003l-6.626 6.573-2.802-2.826c-.22-.22-.575-.222-.796-.003l-1.065 1.056c-.22.22-.222.575-.003.796l4.255 4.29c.22.22.575.222.796.003l8.09-8.025c.22-.219.222-.575.003-.796z"/>
    </defs>
    <g fill="none" fill-rule="evenodd">
        <g>
            <g>
                <g transform="translate(-442 -1042) translate(425 1029) translate(17 13)">
                    <mask id="7my8zs56wb" fill="#fff">
                        <use xlink:href="#2hvgn0e79a"/>
                    </mask>
                    <path fill="#192D4F" d="M0 0H24V24H0z" mask="url(#7my8zs56wb)"/>
                </g>
            </g>
        </g>
    </g>
</svg>
