<?xml version="1.0" encoding="UTF-8"?>
<svg width="10px" height="6px" viewBox="0 0 10 6" version="1.1" xmlns="http://www.w3.org/2000/svg" xmlns:xlink="http://www.w3.org/1999/xlink">
    <!-- Generator: sketchtool 52.5 (67469) - http://www.bohemiancoding.com/sketch -->
    <title>1B931B00-4D1E-43CA-9EC9-3EBF9941C39B_rounded</title>
    <desc>Created with sketchtool.</desc>
    <defs>
        <path d="M6.09374453,6.75000034 L9.0037446,9.66000036 L11.9137447,6.75000034 C12.2062447,6.45750034 12.6787447,6.45750034 12.9712447,6.75000034 C13.2637447,7.04250035 13.2637447,7.51500035 12.9712447,7.80750035 L9.52874462,11.2500004 C9.23624461,11.5425004 8.7637446,11.5425004 8.47124459,11.2500004 L5.0287445,7.80750035 C4.88830499,7.66737671 4.80938029,7.47713858 4.80938029,7.27875035 C4.80938029,7.08036211 4.88830499,6.89012399 5.0287445,6.75000034 C5.32124451,6.46500034 5.80124452,6.45750034 6.09374453,6.75000034 Z" id="path-1"></path>
    </defs>
    <g id="Home" stroke="none" stroke-width="1" fill="none" fill-rule="evenodd">
        <g id="Component" transform="translate(-1286.000000, -1075.000000)">
            <g id="Group-18" transform="translate(1082.000000, 885.000000)">
                <g id="Group-11" transform="translate(14.000000, 178.000000)">
                    <g id="Group">
                        <g id="Label/renkli-Copy-41" transform="translate(132.000000, 0.000000)">
                            <g id="Color-Copy">
                                <g id="icon/hardware/keyboard_arrow_down_24px" transform="translate(54.000000, 6.000000)">
                                    <mask id="mask-2" fill="white">
                                        <use xlink:href="#path-1"></use>
                                    </mask>
                                    <g fill-rule="nonzero"></g>
                                    <g id="↳-Color" mask="url(#mask-2)" fill="#525F7F">
                                        <rect id="Rectangle-3" x="0" y="0" width="18" height="18"></rect>
                                    </g>
                                </g>
                            </g>
                        </g>
                    </g>
                </g>
            </g>
        </g>
    </g>
</svg>