<svg xmlns="http://www.w3.org/2000/svg" width="33.767" height="21.915" viewBox="0 0 33.767 21.915"><g transform="translate(17.522 -8.116) rotate(45)"><path d="M13.089,10.877,2.672.457A1.566,1.566,0,1,0,.457,2.671L10.876,13.091a1.565,1.565,0,0,0,2.213-2.213Z" transform="translate(10.451 1.026)" fill="#3282fd"/><path d="M3.791,0,3.712.392A16.771,16.771,0,0,1,0,7.892l5.671,5.657a16.793,16.793,0,0,1,7.483-3.739l.394-.078Z" transform="translate(5.981 5.497)" fill="#3282fd"/><path d="M2.855,9.258.677,7.08a2.31,2.31,0,0,1,0-3.268L4.489,0,9.935,5.446,6.124,9.258a2.311,2.311,0,0,1-3.269,0Z" transform="translate(0.123 14.967)" fill="#3282fd"/><path d="M4.664,4.86l1.008-1a2.191,2.191,0,0,0,0-3.117L4.923,0A14.018,14.018,0,0,0,3.73.895l.894.888a.729.729,0,0,1,0,1.038L3.6,3.838,2.095,2.391,0,4.469,3.36,7.7a1.491,1.491,0,0,0,2.094,0,1.463,1.463,0,0,0,0-2.079Z" transform="translate(8.316 19.703)" fill="#3282fd"/><path d="M.9,0A.9.9,0,0,0,0,.9V2.71a.9.9,0,0,0,1.806,0V.9A.9.9,0,0,0,.9,0Z" transform="translate(15.684 0.884)" fill="#3282fd"/><path d="M2.71,0H.9a.9.9,0,0,0,0,1.806H2.71A.9.9,0,0,0,2.71,0Z" transform="translate(19.89 6.897)" fill="#3282fd"/><path d="M3.348.265a.9.9,0,0,0-1.277,0L.265,2.071A.9.9,0,0,0,1.542,3.348L3.348,1.542A.9.9,0,0,0,3.348.265Z" transform="translate(18.612 2.162)" fill="#3282fd"/></g></svg>