<?xml version="1.0" encoding="UTF-8"?>
<svg width="36px" height="36px" viewBox="0 0 36 36" version="1.1" xmlns="http://www.w3.org/2000/svg" xmlns:xlink="http://www.w3.org/1999/xlink">
    <!-- Generator: sketchtool 52.6 (67491) - http://www.bohemiancoding.com/sketch -->
    <title>193FE735-A764-4F9E-B29B-518E10943E7C</title>
    <desc>Created with sketchtool.</desc>
    <g id="Home" stroke="none" stroke-width="1" fill="none" fill-rule="evenodd">
        <g transform="translate(-748.000000, -4975.000000)" fill="#3282FD" id="Group-15">
            <g transform="translate(150.000000, 4767.000000)">
                <g id="Group-13-Copy-2" transform="translate(584.000000, 194.000000)">
                    <g id="ICON">
                        <path d="M31.415,17 C31.415,16.6688 31.6808,16.4 32.0114,16.4 L32.018,16.4 C32.3492,16.4 32.618,16.6688 32.618,17 C32.618,17.3312 32.3492,17.6 32.018,17.6 C31.6862,17.6 31.415,17.3312 31.415,17 L31.415,17 Z M21.4118,21.9932 C21.7424,21.9932 22.0112,21.725 22.0112,21.3932 C22.0112,21.062 21.7424,20.7932 21.4118,20.7932 L21.4052,20.7932 C21.074,20.7932 20.8088,21.062 20.8088,21.3932 C20.8088,21.725 21.08,21.9932 21.4118,21.9932 L21.4118,21.9932 Z M17.018,31.4 L17.0114,31.4 C16.6808,31.4 16.415,31.6688 16.415,32 C16.415,32.3312 16.6868,32.6 17.018,32.6 C17.3492,32.6 17.618,32.3312 17.618,32 C17.618,31.6688 17.3492,31.4 17.018,31.4 L17.018,31.4 Z M21.4118,42.0062 L21.4052,42.0062 C21.074,42.0062 20.8088,42.275 20.8088,42.6062 C20.8088,42.9374 21.08,43.2062 21.4118,43.2062 C21.7424,43.2062 22.0112,42.9374 22.0112,42.6062 C22.0112,42.275 21.7424,42.0062 21.4118,42.0062 L21.4118,42.0062 Z M32.018,46.4 L32.0114,46.4 C31.6808,46.4 31.415,46.6688 31.415,47 C31.415,47.3312 31.6862,47.6 32.018,47.6 C32.3492,47.6 32.618,47.3312 32.618,47 C32.618,46.6688 32.3492,46.4 32.018,46.4 L32.018,46.4 Z M42.6248,42.0068 L42.6182,42.0068 C42.2876,42.0068 42.0218,42.2756 42.0218,42.6068 C42.0218,42.938 42.293,43.2068 42.6248,43.2068 C42.956,43.2068 43.2248,42.938 43.2248,42.6068 C43.2248,42.2756 42.956,42.0068 42.6248,42.0068 L42.6248,42.0068 Z M47.018,32.6 C47.3492,32.6 47.618,32.3312 47.618,32 C47.618,31.6688 47.3492,31.4 47.018,31.4 L47.0114,31.4 C46.6808,31.4 46.415,31.6688 46.415,32 C46.415,32.3312 46.6862,32.6 47.018,32.6 L47.018,32.6 Z M42.6248,21.9932 C42.956,21.9932 43.2248,21.725 43.2248,21.3932 C43.2248,21.062 42.956,20.7932 42.6248,20.7932 L42.6182,20.7932 C42.2876,20.7932 42.0218,21.062 42.0218,21.3932 C42.0218,21.725 42.293,21.9932 42.6248,21.9932 L42.6248,21.9932 Z M36.4886,23.5118 C36.5786,23.5592 36.6746,23.582 36.7694,23.582 C36.9848,23.582 37.1924,23.4662 37.3004,23.2628 C37.4558,22.9706 37.3436,22.607 37.0514,22.4516 C36.6446,22.2362 36.2192,22.0448 35.7866,21.8828 C35.4794,21.7664 35.1314,21.9236 35.0144,22.2344 C34.8986,22.5446 35.0558,22.8902 35.366,23.0066 C35.75,23.15 36.128,23.3204 36.4886,23.5118 L36.4886,23.5118 Z M41.5556,29.0246 C41.6252,29.0246 41.6966,29.012 41.7656,28.9862 C42.0764,28.8698 42.2336,28.5242 42.1172,28.214 C41.5292,26.6426 40.5644,25.2086 39.3284,24.0662 C39.0854,23.8412 38.7062,23.855 38.4806,24.0998 C38.2556,24.3428 38.2706,24.7226 38.5136,24.9476 C39.6134,25.9634 40.4708,27.2384 40.9934,28.6346 C41.084,28.8752 41.312,29.0246 41.5556,29.0246 L41.5556,29.0246 Z M46.8968,43.5032 C47.8322,44.4386 47.8322,45.9614 46.8968,46.8974 C46.4432,47.3504 45.8402,47.6 45.1994,47.6 C44.5586,47.6 43.9556,47.3504 43.5026,46.8974 L42.9152,46.3106 C39.7928,48.6932 35.9378,50 32,50 C28.0616,50 24.2072,48.6932 21.0842,46.31 L20.4962,46.8974 C20.0432,47.3504 19.4402,47.6 18.7994,47.6 C18.1592,47.6 17.5562,47.3504 17.1026,46.8974 C16.1672,45.9608 16.1672,44.438 17.1026,43.5026 L17.6894,42.9152 C15.3068,39.7922 14,35.9378 14,32 C14,28.0622 15.3068,24.2072 17.69,21.0842 L17.1026,20.4968 C16.1672,19.5614 16.1672,18.0386 17.1026,17.1026 C18.0098,16.1966 19.5908,16.1966 20.4968,17.1026 L21.0842,17.69 C24.2072,15.3068 28.0616,14 32,14 C35.9384,14 39.7934,15.3068 42.9158,17.69 L43.5032,17.1026 C44.4086,16.1966 45.989,16.196 46.8968,17.1026 C47.8322,18.0392 47.8322,19.562 46.8968,20.4974 L46.31,21.0842 C48.6932,24.2072 50,28.0622 50,32 C50,35.9384 48.6932,39.7934 46.31,42.9164 L46.8968,43.5032 L46.8968,43.5032 Z M46.0484,44.3516 L45.0848,43.388 C44.867,43.1708 44.849,42.824 45.0428,42.5858 C47.4656,39.6038 48.8,35.8442 48.8,32 C48.8,28.1558 47.4656,24.3968 45.0428,21.4148 C44.849,21.176 44.867,20.8298 45.0848,20.6126 L46.0484,19.649 C46.5158,19.181 46.5158,18.4196 46.0478,17.951 C45.5954,17.4986 44.8052,17.4986 44.3516,17.951 L43.3874,18.9152 C43.1696,19.133 42.8234,19.1504 42.5852,18.9566 C39.6044,16.5344 35.8448,15.2 32,15.2 C28.1558,15.2 24.3962,16.5344 21.4148,18.9566 C21.176,19.1504 20.8304,19.133 20.612,18.9152 L19.6484,17.951 C19.1948,17.4986 18.4046,17.498 17.951,17.9516 C17.4836,18.419 17.4836,19.1804 17.951,19.6484 L18.9152,20.6126 C19.133,20.8298 19.151,21.176 18.9572,21.4148 C16.5344,24.3968 15.2,28.1558 15.2,32 C15.2,35.8442 16.5344,39.6026 18.9566,42.5846 C19.1504,42.8234 19.1324,43.1696 18.9146,43.3874 L17.951,44.351 C17.4836,44.819 17.4836,45.5804 17.9516,46.049 C18.404,46.502 19.1948,46.5014 19.6478,46.049 L20.612,45.0848 C20.729,44.9678 20.8826,44.909 21.0362,44.909 C21.17,44.909 21.3044,44.9528 21.4148,45.0434 C24.3962,47.4656 28.1558,48.8 32,48.8 C35.8442,48.8 39.6032,47.4662 42.5846,45.044 C42.8228,44.8496 43.1696,44.8676 43.3868,45.0854 L44.351,46.049 C44.8046,46.5014 45.5948,46.502 46.0484,46.0484 C46.5158,45.581 46.5158,44.8196 46.0484,44.3516 L46.0484,44.3516 Z M32,18.8 C24.7214,18.8 18.8,24.7214 18.8,32 C18.8,32.6324 18.845,33.2672 18.9338,33.8864 C18.9812,34.214 19.2818,34.4396 19.6124,34.3952 C19.9406,34.3484 20.1686,34.0442 20.1218,33.716 C20.0408,33.1532 20,32.576 20,32 C20,25.3832 25.3832,20 32,20 C38.6168,20 44,25.3832 44,32 C44,38.6168 38.6168,44 32,44 C27.158,44 22.814,41.1032 20.9588,36.716 C21.6434,36.572 22.1138,36.2618 22.4258,35.9612 C22.8788,36.3668 23.6354,36.8 24.8,36.8 C25.9868,36.8 26.75,36.35 27.2,35.9384 C27.65,36.35 28.4132,36.8 29.6,36.8 C30.7868,36.8 31.55,36.35 32,35.9384 C32.45,36.35 33.2132,36.8 34.4,36.8 C35.5868,36.8 36.35,36.35 36.8,35.9384 C37.25,36.35 38.0126,36.8 39.2,36.8 C41.3462,36.8 42.1058,35.3306 42.1364,35.2682 C42.2834,34.9754 42.1652,34.6232 41.8742,34.472 C41.5832,34.322 41.2232,34.4354 41.0672,34.724 C41.048,34.7594 40.5794,35.6 39.2,35.6 C37.8206,35.6 37.352,34.7594 37.3364,34.7318 C37.2362,34.5314 37.031,34.4078 36.8072,34.4042 C36.5864,34.3964 36.3734,34.5266 36.2672,34.724 C36.248,34.7594 35.7794,35.6 34.4,35.6 C33.0206,35.6 32.552,34.7594 32.5364,34.7318 C32.4368,34.5314 32.231,34.4078 32.0072,34.4042 C31.796,34.3964 31.5734,34.5266 31.4672,34.724 C31.448,34.7594 30.9794,35.6 29.6,35.6 C28.2206,35.6 27.752,34.7594 27.7364,34.7318 C27.6362,34.5314 27.431,34.4078 27.2072,34.4042 C26.9612,34.3964 26.774,34.5266 26.6672,34.724 C26.648,34.7594 26.1794,35.6 24.8,35.6 C23.4206,35.6 22.952,34.7594 22.9364,34.7318 C22.8332,34.5242 22.6166,34.403 22.385,34.4054 C22.1528,34.4108 21.9422,34.5542 21.8474,34.766 C21.8324,34.8002 21.4592,35.6 20.117,35.6 C19.9226,35.6 19.7402,35.6942 19.628,35.8526 C19.5152,36.011 19.4864,36.2138 19.5506,36.3974 C21.3866,41.663 26.3894,45.2 32,45.2 C39.2786,45.2 45.2,39.2786 45.2,32 C45.2,24.7214 39.2786,18.8 32,18.8 L32,18.8 Z" id="boat-window"></path>
                    </g>
                </g>
            </g>
        </g>
    </g>
</svg>