<svg width="13" height="13" viewBox="0 0 13 13" fill="none" xmlns="http://www.w3.org/2000/svg">
<path d="M12.5684 6.06836C12.7226 6.06836 12.8477 5.95468 12.8477 5.81445C12.8477 5.67422 12.7226 5.56055 12.5684 5.56055C12.4141 5.56055 12.2891 5.67422 12.2891 5.81445C12.2891 5.95468 12.4141 6.06836 12.5684 6.06836Z" fill="#204382"/>
<path d="M12.7658 0.0743945C12.7139 0.027168 12.6418 0 12.5684 0H0.279353C0.125097 0 5.5882e-05 0.113674 5.5882e-05 0.253906L0 12.7461C0 12.8863 0.125041 13 0.279297 13H12.5683C12.7226 13 12.8476 12.8863 12.8476 12.7461L12.8477 6.95703C12.8477 6.81713 12.7223 6.70312 12.5684 6.70312C12.4145 6.70312 12.2891 6.81713 12.2891 6.95703V10.9688H11.1719V0.507812H12.2891V4.67188C12.2891 4.81178 12.4145 4.92578 12.5684 4.92578C12.7223 4.92578 12.8477 4.81178 12.8477 4.67188V0.253906C12.8477 0.187129 12.8178 0.121621 12.7658 0.0743945V0.0743945ZM10.0547 0.507812H10.6133V10.9688H10.0547V0.507812ZM6.70315 0.507812H9.49612V10.9688H6.70315V0.507812ZM3.35159 0.507812H6.14456V10.9688H3.35159V0.507812ZM2.23443 0.507812H2.79302V10.9688H2.23443V0.507812ZM0.55865 0.507812H1.67584V10.9688H0.55865V0.507812ZM12.2891 11.4766V12.4922H0.55865V11.4766H12.2891Z" fill="#204382"/>
<path d="M4.74805 5.73828C4.59379 5.73828 4.46875 5.85196 4.46875 5.99219V7.00781C4.46875 7.14804 4.59379 7.26172 4.74805 7.26172C4.9023 7.26172 5.02734 7.14804 5.02734 7.00781V5.99219C5.02734 5.85196 4.9023 5.73828 4.74805 5.73828Z" fill="#204382"/>
<path d="M8.09961 5.73828C7.94535 5.73828 7.82031 5.85196 7.82031 5.99219V7.00781C7.82031 7.14804 7.94535 7.26172 8.09961 7.26172C8.25387 7.26172 8.37891 7.14804 8.37891 7.00781V5.99219C8.37891 5.85196 8.25387 5.73828 8.09961 5.73828Z" fill="#204382"/>
</svg>
