<?xml version="1.0" encoding="UTF-8"?>
<svg width="16px" height="17px" viewBox="0 0 16 17" version="1.1" xmlns="http://www.w3.org/2000/svg" xmlns:xlink="http://www.w3.org/1999/xlink">
    <!-- Generator: sketchtool 52.6 (67491) - http://www.bohemiancoding.com/sketch -->
    <title>1C606BB9-6AEB-4CFA-9678-26A4F52CB12B_rounded</title>
    <desc>Created with sketchtool.</desc>
    <defs>
        <path d="M15.8333333,3.28000005 L15,3.28000005 L15,2.46000004 C15,2.00900003 14.625,1.64000003 14.1666667,1.64000003 C13.7083333,1.64000003 13.3333333,2.00900003 13.3333333,2.46000004 L13.3333333,3.28000005 L6.66666667,3.28000005 L6.66666667,2.46000004 C6.66666667,2.00900003 6.29166667,1.64000003 5.83333333,1.64000003 C5.375,1.64000003 5,2.00900003 5,2.46000004 L5,3.28000005 L4.16666667,3.28000005 C3.24166667,3.28000005 2.50833333,4.01800006 2.50833333,4.92000008 L2.5,16.4000003 C2.5,17.3020003 3.24166667,18.0400003 4.16666667,18.0400003 L15.8333333,18.0400003 C16.75,18.0400003 17.5,17.3020003 17.5,16.4000003 L17.5,4.92000008 C17.5,4.01800006 16.75,3.28000005 15.8333333,3.28000005 Z M15.8333333,15.5800002 C15.8333333,16.0310002 15.4583333,16.4000003 15,16.4000003 L5,16.4000003 C4.54166667,16.4000003 4.16666667,16.0310002 4.16666667,15.5800002 L4.16666667,7.38000011 L15.8333333,7.38000011 L15.8333333,15.5800002 Z M5.83333333,9.02000014 L7.5,9.02000014 L7.5,10.6600002 L5.83333333,10.6600002 L5.83333333,9.02000014 Z M9.16666667,9.02000014 L10.8333333,9.02000014 L10.8333333,10.6600002 L9.16666667,10.6600002 L9.16666667,9.02000014 Z M12.5,9.02000014 L14.1666667,9.02000014 L14.1666667,10.6600002 L12.5,10.6600002 L12.5,9.02000014 Z" id="path-1"></path>
    </defs>
    <g id="Home" stroke="none" stroke-width="1" fill="none" fill-rule="evenodd">
        <g transform="translate(-772.000000, -459.000000)" id="Form">
            <g transform="translate(0.000000, 70.000000)">
                <g id="Group-14" transform="translate(150.000000, 303.072000)">
                    <g id="BIRTHDAY-Copy-4" transform="translate(347.000000, 71.832000)">
                        <g id="DEFAULT">
                            <g id="icon/action/date_range_24px" transform="translate(273.200000, 12.792000)">
                                <mask id="mask-2" fill="white">
                                    <use xlink:href="#path-1"></use>
                                </mask>
                                <g fill-rule="nonzero"></g>
                                <g id="↳-Color" mask="url(#mask-2)" fill="#525F7F">
                                    <rect id="Rectangle-3" x="0" y="0" width="20" height="19.6800003"></rect>
                                </g>
                            </g>
                        </g>
                    </g>
                </g>
            </g>
        </g>
    </g>
</svg>