<?xml version="1.0" encoding="utf-8"?>
<svg width="19px" height="20px" viewbox="0 0 19 20" version="1.1" xmlns:xlink="http://www.w3.org/1999/xlink" xmlns="http://www.w3.org/2000/svg">
  <g id="calendar">
    <path d="M2.41749 0.439981C2.41749 0.196916 2.22034 0 1.97707 0L0.44018 0C0.197195 0 0 0.196916 0 0.439981L0 1.97668C0 2.22006 0.197195 2.41705 0.44018 2.41705L1.97707 2.41705C2.22034 2.41705 2.41749 2.22006 2.41749 1.97668L2.41749 0.439981L2.41749 0.439981Z" transform="translate(4.4369507 10.265625)" id="Path" fill="#32325D" fill-rule="evenodd" stroke="none" />
    <path d="M2.41725 0.439981C2.41725 0.196916 2.22006 0 1.97727 0L0.44018 0C0.197195 0 0 0.196916 0 0.439981L0 1.97668C0 2.22006 0.197195 2.41705 0.44018 2.41705L1.97727 2.41705C2.22006 2.41705 2.41725 2.22006 2.41725 1.97668L2.41725 0.439981Z" transform="translate(8.278076 10.265625)" id="Path" fill="#32325D" fill-rule="evenodd" stroke="none" />
    <path d="M2.41749 0.439981C2.41749 0.196916 2.2203 0 1.97731 0L0.440418 0C0.197155 0 0 0.196916 0 0.439981L0 1.97668C0 2.22006 0.197155 2.41705 0.440418 2.41705L1.97731 2.41705C2.2203 2.41705 2.41749 2.22006 2.41749 1.97668L2.41749 0.439981Z" transform="translate(12.1189575 10.265625)" id="Path" fill="#32325D" fill-rule="evenodd" stroke="none" />
    <path d="M2.41749 0.44022C2.41749 0.196757 2.22034 0 1.97707 0L0.44018 0C0.197195 0 0 0.196757 0 0.44022L0 1.97664C0 2.21986 0.197195 2.41682 0.44018 2.41682L1.97707 2.41682C2.22034 2.41682 2.41749 2.21982 2.41749 1.97664L2.41749 0.44022L2.41749 0.44022Z" transform="translate(4.4369507 14.105469)" id="Path" fill="#32325D" fill-rule="evenodd" stroke="none" />
    <path d="M2.41725 0.44022C2.41725 0.196757 2.22006 0 1.97727 0L0.44018 0C0.197195 0 0 0.196757 0 0.44022L0 1.97664C0 2.21986 0.197195 2.41682 0.44018 2.41682L1.97727 2.41682C2.22006 2.41682 2.41725 2.21982 2.41725 1.97664L2.41725 0.44022Z" transform="translate(8.278076 14.105469)" id="Path" fill="#32325D" fill-rule="evenodd" stroke="none" />
    <path d="M2.41749 0.44022C2.41749 0.196757 2.2203 0 1.97751 0L0.440418 0C0.197155 0 0 0.196757 0 0.44022L0 1.97664C0 2.21986 0.197155 2.41682 0.440418 2.41682L1.97751 2.41682C2.2203 2.41682 2.41749 2.21982 2.41749 1.97664L2.41749 0.44022L2.41749 0.44022Z" transform="translate(12.1189575 14.105469)" id="Path" fill="#32325D" fill-rule="evenodd" stroke="none" />
    <path d="M17.2846 0.00842678L17.2846 2.3556C17.2846 3.4165 16.4239 4.27142 15.3632 4.27142L14.1511 4.27142C13.0903 4.27142 12.2182 3.4165 12.2182 2.3556L12.2182 0L6.75514 0L6.75514 2.3556C6.75514 3.4165 5.88312 4.27142 4.82246 4.27142L3.61016 4.27142C2.54946 4.27142 1.68885 3.4165 1.68885 2.3556L1.68885 0.00842678C0.761789 0.0363703 0 0.803485 0 1.74637L0 15.5019C0 16.4625 0.778602 17.2515 1.73922 17.2515L17.2342 17.2515C18.1933 17.2515 18.9734 16.4609 18.9734 15.5019L18.9734 1.74637C18.9734 0.803485 18.2116 0.0363703 17.2846 0.00842678ZM16.7216 14.6453C16.7216 15.0605 16.385 15.3973 15.9697 15.3973L2.97056 15.3973C2.55526 15.3973 2.21867 15.0605 2.21867 14.6453L2.21867 7.5401C2.21867 7.1248 2.55522 6.78801 2.97056 6.78801L15.9697 6.78801C16.385 6.78801 16.7215 7.1248 16.7215 7.5401L16.7216 14.6453L16.7216 14.6453Z" transform="translate(0 2.1523438)" id="Shape" fill="#32325D" stroke="none" />
    <path d="M0.658958 5.16518L1.85787 5.16518C2.22177 5.16518 2.51682 4.87056 2.51682 4.50666L2.51682 0.658759C2.51682 0.294818 2.22177 0 1.85787 0L0.658958 0C0.295017 0 0 0.294818 0 0.658759L0 4.50666C0 4.87056 0.295017 5.16518 0.658958 5.16518Z" transform="translate(2.9469604 0)" id="Path" fill="#32325D" fill-rule="evenodd" stroke="none" />
    <path d="M0.658918 5.16518L1.85783 5.16518C2.22149 5.16518 2.51655 4.87056 2.51655 4.50666L2.51655 0.658759C2.51659 0.294818 2.22153 0 1.85783 0L0.658918 0C0.295056 0 0 0.294818 0 0.658759L0 4.50666C0 4.87056 0.295056 5.16518 0.658918 5.16518Z" transform="translate(13.476776 0)" id="Path" fill="#32325D" fill-rule="evenodd" stroke="none" />
  </g>
</svg>