
<svg width="19" height="20" viewBox="0 0 19 20" fill="none" xmlns="http://www.w3.org/2000/svg">
<path d="M6.87077 10.7056C6.87077 10.4625 6.67361 10.2656 6.43035 10.2656H4.89346C4.65047 10.2656 4.45328 10.4625 4.45328 10.7056V12.2423C4.45328 12.4857 4.65047 12.6827 4.89346 12.6827H6.43035C6.67361 12.6827 6.87077 12.4857 6.87077 12.2423V10.7056Z" fill="#32325D"/>
<path d="M10.7117 10.7056C10.7117 10.4625 10.5145 10.2656 10.2717 10.2656H8.73458C8.4916 10.2656 8.2944 10.4625 8.2944 10.7056V12.2423C8.2944 12.4857 8.4916 12.6827 8.73458 12.6827H10.2717C10.5145 12.6827 10.7117 12.4857 10.7117 12.2423V10.7056Z" fill="#32325D"/>
<path d="M14.5528 10.7056C14.5528 10.4625 14.3556 10.2656 14.1126 10.2656H12.5757C12.3324 10.2656 12.1353 10.4625 12.1353 10.7056V12.2423C12.1353 12.4857 12.3324 12.6827 12.5757 12.6827H14.1126C14.3556 12.6827 14.5528 12.4857 14.5528 12.2423V10.7056Z" fill="#32325D"/>
<path d="M6.87077 14.5457C6.87077 14.3022 6.67361 14.1055 6.43035 14.1055H4.89346C4.65047 14.1055 4.45328 14.3022 4.45328 14.5457V16.0821C4.45328 16.3253 4.65047 16.5223 4.89346 16.5223H6.43035C6.67361 16.5223 6.87077 16.3253 6.87077 16.0821V14.5457Z" fill="#32325D"/>
<path d="M10.7117 14.5457C10.7117 14.3022 10.5145 14.1055 10.2717 14.1055H8.73458C8.4916 14.1055 8.2944 14.3022 8.2944 14.5457V16.0821C8.2944 16.3253 8.4916 16.5223 8.73458 16.5223H10.2717C10.5145 16.5223 10.7117 16.3253 10.7117 16.0821V14.5457Z" fill="#32325D"/>
<path d="M14.5528 14.5457C14.5528 14.3022 14.3556 14.1055 14.1128 14.1055H12.5757C12.3324 14.1055 12.1353 14.3022 12.1353 14.5457V16.0821C12.1353 16.3253 12.3324 16.5223 12.5757 16.5223H14.1128C14.3556 16.5223 14.5528 16.3253 14.5528 16.0821V14.5457Z" fill="#32325D"/>
<path fill-rule="evenodd" clip-rule="evenodd" d="M17.3009 4.50795V2.16077C18.2279 2.18871 18.9897 2.95583 18.9897 3.89871V17.6543C18.9897 18.6133 18.2097 19.4038 17.2505 19.4038H1.75554C0.794929 19.4038 0.0163269 18.6149 0.0163269 17.6543V3.89871C0.0163269 2.95583 0.778116 2.18871 1.70518 2.16077V4.50795C1.70518 5.56885 2.56578 6.42377 3.62649 6.42377H4.83879C5.89945 6.42377 6.77146 5.56885 6.77146 4.50795V2.15234H12.2346V4.50795C12.2346 5.56885 13.1066 6.42377 14.1674 6.42377H15.3795C16.4402 6.42377 17.3009 5.56885 17.3009 4.50795ZM15.986 17.5496C16.4013 17.5496 16.7379 17.2128 16.7379 16.7977L16.7379 9.69244C16.7379 9.27714 16.4013 8.94035 15.986 8.94035H2.98689C2.57155 8.94035 2.23499 9.27714 2.23499 9.69244V16.7977C2.23499 17.2128 2.57159 17.5496 2.98689 17.5496H15.986Z" fill="#32325D"/>
<path d="M3.62225 5.16518H4.82115C5.18506 5.16518 5.48011 4.87056 5.48011 4.50666V0.658759C5.48011 0.294818 5.18506 0 4.82115 0H3.62225C3.2583 0 2.96329 0.294818 2.96329 0.658759V4.50666C2.96329 4.87056 3.2583 5.16518 3.62225 5.16518Z" fill="#32325D"/>
<path d="M14.152 5.16518H15.3509C15.7146 5.16518 16.0096 4.87056 16.0096 4.50666V0.658759C16.0097 0.294818 15.7146 0 15.3509 0H14.152C13.7882 0 13.4931 0.294818 13.4931 0.658759V4.50666C13.4931 4.87056 13.7882 5.16518 14.152 5.16518Z" fill="#32325D"/>
</svg>
