<svg xmlns="http://www.w3.org/2000/svg" xmlns:xlink="http://www.w3.org/1999/xlink" width="16" height="16" viewBox="0 0 16 16">
    <defs>
        <path id="bkd8tlazka" d="M7 .333C3.313.333.333 3.313.333 7S3.313 13.667 7 13.667s6.667-2.98 6.667-6.667S10.687.333 7 .333zm2.867 9.534c-.26.26-.68.26-.94 0L7 7.94 5.073 9.867c-.26.26-.68.26-.94 0-.125-.125-.195-.294-.195-.47 0-.177.07-.346.195-.47L6.06 7 4.133 5.073c-.125-.124-.195-.293-.195-.47 0-.176.07-.345.195-.47.26-.26.68-.26.94 0L7 6.06l1.927-1.927c.26-.26.68-.26.94 0 .26.26.26.68 0 .94L7.94 7l1.927 1.927c.253.253.253.68 0 .94z"/>
    </defs>
    <g fill="none" fill-rule="evenodd">
        <g>
            <g>
                <g>
                    <g>
                        <g>
                            <g transform="translate(-553 -596) translate(428 118) translate(46 176) translate(0 254) translate(13 42) translate(67 7)">
                                <mask id="0ihvot6iyb" fill="#fff">
                                    <use xlink:href="#bkd8tlazka"/>
                                </mask>
                                <g fill="#8898AA" mask="url(#0ihvot6iyb)">
                                    <path d="M0 0H16V16H0z" transform="translate(-1 -1)"/>
                                </g>
                            </g>
                        </g>
                    </g>
                </g>
            </g>
        </g>
    </g>
</svg>
