<svg width="21" height="21" viewBox="0 0 21 21" fill="none" xmlns="http://www.w3.org/2000/svg">
<g clip-path="url(#clip0)">
<path d="M0.00625412 7.93336C0.0197072 7.66315 0.133075 7.3991 0.325438 7.18988C0.505988 6.99358 4.81278 2.38281 10.5 2.38281C16.1873 2.38281 20.4941 6.99358 20.6747 7.18992C20.867 7.3991 20.9803 7.66315 20.9938 7.93336C21.0821 9.70314 20.2282 11.2256 18.4556 12.4621C18.6088 13.0302 18.3436 13.3044 18.1193 13.49L19.2446 15.0972C19.4937 15.4528 19.4368 15.9386 19.1122 16.2272C19.0024 16.3248 16.3545 18.6173 10.5 18.6173C4.87857 18.6173 2.03345 16.347 1.91512 16.2504C1.56993 15.9686 1.49983 15.462 1.7554 15.0972L2.88071 13.4901C2.65643 13.3045 2.4466 13.0511 2.54442 12.4619C0.771932 11.2254 -0.0821344 9.70302 0.00625412 7.93336ZM2.67341 14.8736C3.21728 15.2255 4.40443 15.8863 6.22581 16.3422C6.39291 16.384 6.50714 16.5571 6.45263 16.7205C6.35197 17.0223 6.09977 16.9537 6.07434 16.9473C4.1658 16.4697 2.92631 15.7857 2.31506 15.3854C2.31506 15.3854 2.11048 15.5882 2.30956 15.7673C2.41645 15.8634 5.09833 17.9935 10.5 17.9935C16.1202 17.9935 18.5915 15.8475 18.6979 15.7609C18.9103 15.5881 18.6918 15.3952 18.6918 15.3952C17.7163 16.0622 15.112 17.4668 10.5002 17.4668C9.87529 17.4668 9.25448 17.4384 8.65508 17.3824C8.48355 17.3664 8.35755 17.2144 8.37351 17.0429C8.38946 16.8714 8.54204 16.746 8.71303 16.7613C9.29324 16.8156 9.89453 16.843 10.5001 16.843C12.6228 16.843 14.5401 16.5388 16.1989 15.9387C17.2466 15.5597 17.9498 15.1452 18.3338 14.884C18.3338 14.884 17.4902 13.7222 17.4753 13.7222H3.52457C3.50984 13.7221 2.67341 14.8736 2.67341 14.8736ZM17.8629 12.7108C17.8629 12.4972 17.689 12.3233 17.4754 12.3233H3.52461C3.31092 12.3233 3.13705 12.4971 3.13705 12.7108C3.13705 12.9245 3.31092 13.0983 3.52457 13.0983H17.4754C17.6891 13.0984 17.8629 12.9245 17.8629 12.7108ZM2.87812 11.9339C3.0535 11.7876 3.27897 11.6995 3.52461 11.6995H17.4754C17.7211 11.6995 17.9465 11.7877 18.1219 11.9339C19.6906 10.831 20.4473 9.49667 20.3708 7.9645C20.3645 7.83763 20.3108 7.71578 20.2155 7.61217C20.0425 7.42416 15.9166 3.00662 10.5 3.00662C5.08332 3.00662 0.957405 7.4242 0.784483 7.61213C0.689163 7.71574 0.635433 7.83763 0.629116 7.9645C0.552745 9.49659 1.30952 10.8308 2.87812 11.9339Z" fill="#204382"/>
<path d="M10.5002 4.38062C12.3904 4.38062 13.9282 5.91837 13.9282 7.80861C13.9282 8.5133 13.716 9.19039 13.3144 9.76657C12.9221 10.3293 12.378 10.7576 11.7409 11.0051C11.5806 11.0675 11.3997 10.9879 11.3374 10.8273C11.275 10.6668 11.3546 10.486 11.5152 10.4237C12.6021 10.0015 13.3045 8.97505 13.3045 7.80865C13.3045 6.26241 12.0465 5.00442 10.5002 5.00442C8.95398 5.00442 7.69599 6.26241 7.69599 7.80865C7.69599 9.3549 8.95398 10.6129 10.5002 10.6129C10.6725 10.6129 10.8121 10.7525 10.8121 10.9248C10.8121 11.097 10.6725 11.2367 10.5002 11.2367C8.61002 11.2367 7.07223 9.6989 7.07223 7.80865C7.07218 5.91841 8.61006 4.38062 10.5002 4.38062Z" fill="#204382"/>
<path d="M6.85498 16.807C6.88603 16.6376 7.04845 16.5255 7.21793 16.5564C7.36993 16.5842 7.52518 16.6103 7.67943 16.634C7.84969 16.6602 7.95924 16.8185 7.94025 16.9897C7.91129 17.2506 7.60064 17.253 7.58457 17.2505C7.4246 17.2259 7.26346 17.1988 7.10567 17.1699C6.93623 17.139 6.82402 16.9765 6.85498 16.807Z" fill="#204382"/>
<path d="M8.79477 7.77502C8.96704 7.77502 9.10665 7.91464 9.10665 8.08691C9.10665 8.74783 9.56943 9.30232 10.1879 9.44436V7.38644C9.80982 7.25655 9.53727 6.8977 9.53727 6.47618C9.53727 5.94544 9.96904 5.51367 10.4997 5.51367C11.0304 5.51367 11.4622 5.94544 11.4622 6.47618C11.4622 6.8977 11.1897 7.25659 10.8116 7.38644V9.44436C11.4301 9.30232 11.8928 8.74783 11.8928 8.08691C11.8928 7.91464 12.0324 7.77502 12.2047 7.77502C12.377 7.77502 12.5166 7.91464 12.5166 8.08691C12.5166 9.19896 11.6118 10.1038 10.4997 10.1038C9.38769 10.1038 8.48289 9.199 8.48289 8.08691C8.48289 7.91468 8.62246 7.77502 8.79477 7.77502ZM10.4997 6.81489C10.6865 6.81489 10.8384 6.66297 10.8384 6.47618C10.8384 6.2894 10.6864 6.13744 10.4997 6.13744C10.313 6.13744 10.161 6.2894 10.161 6.47618C10.161 6.66301 10.3129 6.81489 10.4997 6.81489Z" fill="#204382"/>
<path d="M1.55948 7.63477C1.56026 7.63477 1.561 7.63477 1.56178 7.63477C1.734 7.63604 1.87264 7.77664 1.87141 7.9489C1.86932 8.23585 1.90996 8.51365 1.9922 8.77463C2.044 8.9389 1.95414 9.11858 1.78847 9.16579C1.58028 9.22514 1.43922 9.09508 1.39731 8.96207C1.29542 8.63887 1.2451 8.29647 1.24764 7.94439C1.24891 7.77295 1.38828 7.63477 1.55948 7.63477Z" fill="#204382"/>
<path d="M2.02526 9.60155C2.16205 9.49684 2.35781 9.52301 2.46249 9.65975C2.77465 10.0679 3.20573 10.4508 3.78019 10.8305C3.92391 10.9255 3.96288 11.1185 3.86842 11.2626C3.71153 11.502 3.48923 11.3859 3.43632 11.3509C2.80283 10.9323 2.32221 10.5031 1.96706 10.0387C1.86239 9.90195 1.88847 9.70622 2.02526 9.60155Z" fill="#204382"/>
</g>
<defs>
<clipPath id="clip0">
<rect width="21" height="21" fill="white" transform="matrix(-1 0 0 1 21 0)"/>
</clipPath>
</defs>
</svg>
