<?xml version="1.0" encoding="UTF-8"?>
<svg width="35px" height="35px" viewBox="0 0 35 35" version="1.1" xmlns="http://www.w3.org/2000/svg" xmlns:xlink="http://www.w3.org/1999/xlink">
    <!-- Generator: sketchtool 52.6 (67491) - http://www.bohemiancoding.com/sketch -->
    <title>4EC72491-B4B1-4A0C-9CBE-86483BFEE6C1</title>
    <desc>Created with sketchtool.</desc>
    <g id="Home" stroke="none" stroke-width="1" fill="none" fill-rule="evenodd">
        <g transform="translate(-457.000000, -4975.000000)" fill="#3282FD" id="Group-15">
            <g transform="translate(150.000000, 4767.000000)">
                <g id="Group-13-Copy" transform="translate(292.000000, 194.000000)">
                    <g id="ICON">
                        <path d="M40.529616,31.3264516 C40.827487,31.2248387 41.0858741,31.0413548 41.2867773,30.8067742 C41.5289063,30.7370968 41.7100676,30.5228387 41.7100676,30.2580645 L41.7100676,28.516129 C41.7100676,28.1956129 41.4499386,27.9354839 41.1294225,27.9354839 C40.8089063,27.9354839 40.5487773,28.1956129 40.5487773,28.516129 L40.5487773,29.6774194 C40.5487773,29.9973548 40.2880676,30.2580645 39.9681322,30.2580645 C39.649358,30.2580645 39.3898096,30.515871 39.387487,30.8352258 C39.3869063,30.8619355 39.3555515,33.5625161 38.3208418,35.1395484 C37.6641322,35.7207742 36.7095515,35.6563226 36.229358,35.5744516 C35.7886483,34.1112258 34.7022612,32.5806452 32.4197451,32.5806452 C30.1372289,32.5806452 29.0508418,34.1112258 28.6101322,35.5744516 C28.137487,35.6551613 27.2084547,35.717871 26.553487,35.1691613 C26.5523257,35.1674194 26.5517451,35.1639355 26.5500031,35.1616129 C25.5001967,33.5869032 25.4520031,30.8590323 25.4520031,30.8311613 C25.4479386,30.5135484 25.1889709,30.2580645 24.871358,30.2580645 C24.5514225,30.2580645 24.2907128,29.9973548 24.2907128,29.6774194 L24.2907128,28.516129 C24.2907128,28.1956129 24.0305838,27.9354839 23.7100676,27.9354839 C23.3895515,27.9354839 23.1294225,28.1956129 23.1294225,28.516129 L23.1294225,29.6774194 C23.1294225,30.4427097 23.6252934,31.0941935 24.3127773,31.3276129 C24.3743257,32.2334194 24.6071644,34.2186452 25.4845193,35.6493548 C25.4856805,35.6534194 25.4850999,35.6563226 25.4862612,35.6603871 C25.4972934,36.7386452 25.753358,38.578129 27.1695515,40.0158065 C28.3830999,41.2467742 30.1494225,41.8709677 32.4197451,41.8709677 C34.6819386,41.8709677 36.445358,41.2508387 37.659487,40.0274194 C39.0855515,38.5909032 39.3520676,36.7369032 39.3700676,35.6545806 C40.2485838,34.2232903 40.4727128,32.2357419 40.529616,31.3264516 L40.529616,31.3264516 Z M36.8355515,39.2092903 C35.8467128,40.2045161 34.3614225,40.7096774 32.4197451,40.7096774 C30.4716805,40.7096774 28.9840676,40.2016129 27.9969709,39.2005806 C27.1997451,38.3911613 26.8658741,37.4087097 26.7311644,36.5847742 C27.1649063,36.7374839 27.6038741,36.7903226 27.9911644,36.7903226 C28.1287773,36.7903226 28.2565193,36.7827742 28.3784547,36.7729032 C28.3645193,36.9314194 28.3552289,37.085871 28.3552289,37.2258065 C28.3552289,37.5457419 28.6141967,37.8052903 28.9347128,37.805871 L28.9358741,37.805871 C29.2552289,37.805871 29.515358,37.5469032 29.5165193,37.2269677 C29.5170999,37.0847097 29.5652934,33.7419355 32.4197451,33.7419355 C35.2741967,33.7419355 35.3223902,37.0847097 35.3229709,37.2258065 C35.3229709,37.5463226 35.5830999,37.8064516 35.903616,37.8064516 C36.2241322,37.8064516 36.4842612,37.5463226 36.4842612,37.2258065 C36.4842612,37.085871 36.4749709,36.9314194 36.4610354,36.7729032 C36.5829709,36.7827742 36.7107128,36.7903226 36.8477451,36.7903226 C37.2385193,36.7903226 37.6815515,36.7363226 38.1187773,36.5807097 C37.9794225,37.4104516 37.6391644,38.399871 36.8355515,39.2092903 L36.8355515,39.2092903 Z M30.6778096,29.0967742 C30.9983257,29.0967742 31.2584547,29.3569032 31.2584547,29.6774194 C31.2584547,29.9979355 30.9983257,30.2580645 30.6778096,30.2580645 L30.0971644,30.2580645 C30.0971644,30.5785806 29.8370354,30.8387097 29.5165193,30.8387097 C29.1960031,30.8387097 28.9358741,30.5785806 28.9358741,30.2580645 L28.3552289,30.2580645 C28.0347128,30.2580645 27.7745838,29.9979355 27.7745838,29.6774194 C27.7745838,29.3569032 28.0347128,29.0967742 28.3552289,29.0967742 L30.6778096,29.0967742 L30.6778096,29.0967742 Z M36.4842612,29.0967742 C36.8047773,29.0967742 37.0649063,29.3569032 37.0649063,29.6774194 C37.0649063,29.9979355 36.8047773,30.2580645 36.4842612,30.2580645 L35.903616,30.2580645 C35.903616,30.5785806 35.643487,30.8387097 35.3229709,30.8387097 C35.0024547,30.8387097 34.7423257,30.5785806 34.7423257,30.2580645 L34.1616805,30.2580645 C33.8411644,30.2580645 33.5810354,29.9979355 33.5810354,29.6774194 C33.5810354,29.3569032 33.8411644,29.0967742 34.1616805,29.0967742 L36.4842612,29.0967742 L36.4842612,29.0967742 Z M33.5810354,35.483871 C33.5810354,35.8043871 33.3209063,36.0645161 33.0003902,36.0645161 L31.8390999,36.0645161 C31.5185838,36.0645161 31.2584547,35.8043871 31.2584547,35.483871 C31.2584547,35.1633548 31.5185838,34.9032258 31.8390999,34.9032258 L33.0003902,34.9032258 C33.3209063,34.9032258 33.5810354,35.1633548 33.5810354,35.483871 L33.5810354,35.483871 Z M36.9882612,42.1636129 C37.147358,42.4417419 37.0509709,42.7965161 36.7722612,42.9556129 L33.0003902,45.1109677 L33.0003902,48.2580645 C33.0003902,48.5785806 32.7402612,48.8387097 32.4197451,48.8387097 C32.0992289,48.8387097 31.8390999,48.5785806 31.8390999,48.2580645 L31.8390999,45.1109677 L28.0672289,42.9556129 C27.7885193,42.7965161 27.6921322,42.4417419 27.8512289,42.1636129 C28.0103257,41.8854839 28.3656805,41.7885161 28.6432289,41.9476129 L32.4197451,44.1052903 L36.1962612,41.9476129 C36.4743902,41.7885161 36.8297451,41.8854839 36.9882612,42.1636129 L36.9882612,42.1636129 Z M49.4419386,48.8090968 C49.3809709,48.8294194 49.3188418,48.8387097 49.2584547,48.8387097 C49.0151644,48.8387097 48.7887128,48.6848387 48.7074225,48.4415484 L48.1267773,46.6996129 C47.729616,45.5092903 46.9027773,43.0322581 41.1294225,43.0322581 C41.0040031,43.0322581 40.881487,42.9916129 40.7810354,42.916129 L38.4584547,41.1741935 C38.2018096,40.982 38.1501322,40.6179355 38.3423257,40.3612903 C38.5350999,40.1052258 38.8985838,40.0523871 39.1552289,40.2451613 L41.3239386,41.872129 C47.0229709,41.9243871 48.5430999,44.2783226 49.2288418,46.3326452 L49.809487,48.0745806 C49.9110999,48.3782581 49.7461967,48.7074839 49.4419386,48.8090968 L49.4419386,48.8090968 Z M26.4971644,40.3612903 C26.689358,40.6179355 26.6376805,40.982 26.3810354,41.1741935 L24.0584547,42.916129 C23.9580031,42.9916129 23.835487,43.0322581 23.7100676,43.0322581 C17.9367128,43.0322581 17.1098741,45.5092903 16.7127128,46.6996129 L16.1320676,48.4415484 C16.0507773,48.6848387 15.8243257,48.8387097 15.5810354,48.8387097 C15.5206483,48.8387097 15.4585193,48.8294194 15.3975515,48.8090968 C15.0932934,48.7074839 14.9283902,48.3782581 15.0300031,48.0745806 L15.6106483,46.3326452 C16.2963902,44.2783226 17.8165193,41.9243871 23.5155515,41.872129 L25.6842612,40.2451613 C25.941487,40.0523871 26.3049709,40.1052258 26.4971644,40.3612903 L26.4971644,40.3612903 Z M25.4520031,47.0967742 L25.4520031,48.2580645 C25.4520031,48.5785806 25.1918741,48.8387097 24.871358,48.8387097 C24.5508418,48.8387097 24.2907128,48.5785806 24.2907128,48.2580645 L24.2907128,47.6774194 L21.9681322,47.6774194 L21.9681322,48.2580645 C21.9681322,48.5785806 21.7080031,48.8387097 21.387487,48.8387097 C21.0669709,48.8387097 20.8068418,48.5785806 20.8068418,48.2580645 L20.8068418,47.0967742 C20.8068418,46.7762581 21.0669709,46.516129 21.387487,46.516129 L24.871358,46.516129 C25.1918741,46.516129 25.4520031,46.7762581 25.4520031,47.0967742 L25.4520031,47.0967742 Z M35.9210354,48.2580645 C35.9210354,48.5785806 35.6609063,48.8387097 35.3403902,48.8387097 C35.0198741,48.8387097 34.7568418,48.5785806 34.7568418,48.2580645 C34.7568418,47.9375484 35.0140676,47.6774194 35.3345838,47.6774194 L35.3403902,47.6774194 C35.6609063,47.6774194 35.9210354,47.9375484 35.9210354,48.2580645 L35.9210354,48.2580645 Z M35.9210354,45.9354839 C35.9210354,46.256 35.6609063,46.516129 35.3403902,46.516129 C35.0198741,46.516129 34.7568418,46.256 34.7568418,45.9354839 C34.7568418,45.6149677 35.0140676,45.3548387 35.3345838,45.3548387 L35.3403902,45.3548387 C35.6609063,45.3548387 35.9210354,45.6149677 35.9210354,45.9354839 L35.9210354,45.9354839 Z M23.2269709,26.5158065 C23.3343902,26.6772258 23.5155515,26.7741935 23.7100676,26.7741935 L41.1294225,26.7741935 C41.323358,26.7741935 41.5045193,26.6772258 41.6125193,26.5158065 L43.9350999,23.0319355 C44.0355515,22.8809677 44.0599386,22.6922581 44.0012934,22.5209677 C43.9426483,22.3502581 43.807358,22.216129 43.635487,22.1586452 C43.5611644,22.1342581 42.6071644,21.8259355 40.6956805,21.5286452 C41.1085193,20.8115484 41.1294225,19.9249032 41.1294225,19.8064516 C41.1294225,16.916 38.4363902,14 32.4197451,14 C26.4030999,14 23.7100676,16.916 23.7100676,19.8064516 C23.7100676,19.9249032 23.7309709,20.8115484 24.1438096,21.5286452 C22.2323257,21.8259355 21.2777451,22.1342581 21.2040031,22.1586452 C21.0321322,22.216129 20.8968418,22.3502581 20.8381967,22.5209677 C20.7795515,22.6922581 20.8039386,22.8809677 20.9043902,23.0319355 L23.2269709,26.5158065 L23.2269709,26.5158065 Z M25.2818741,21.137871 C24.9509063,20.8069032 24.8725193,20.0456774 24.871358,19.8064516 C24.871358,17.0280645 27.9046483,15.1612903 32.4197451,15.1612903 C36.9348418,15.1612903 39.9681322,17.0280645 39.9681322,19.8047097 C39.9669709,20.0456774 39.8885838,20.8069032 39.557616,21.137871 C39.4949063,21.2005806 39.4530999,21.2754839 39.4252289,21.353871 C37.6705193,21.1401935 35.3537451,20.9677419 32.4197451,20.9677419 C29.4857451,20.9677419 27.1683902,21.1401935 25.4142612,21.353871 C25.3863902,21.2754839 25.3445838,21.2005806 25.2818741,21.137871 L25.2818741,21.137871 Z M32.4197451,22.1290323 C37.8267128,22.1290323 41.1375515,22.7375484 42.519487,23.062129 L40.8187773,25.6129032 L24.0207128,25.6129032 L22.3200031,23.062129 C23.7019386,22.7375484 27.0127773,22.1290323 32.4197451,22.1290323 L32.4197451,22.1290323 Z M32.4197451,19.8064516 C31.0569709,19.8064516 30.3439386,19.1323226 30.2672934,19.0556774 C30.0402612,18.8286452 30.0402612,18.4616774 30.2672934,18.2346452 C30.4920031,18.0099355 30.855487,18.0076129 31.0825193,18.2288387 C31.1045838,18.2491613 31.3542612,18.4698065 31.8390999,18.5812903 L31.8390999,16.9032258 C31.8390999,16.5827097 32.0992289,16.3225806 32.4197451,16.3225806 C32.7402612,16.3225806 33.0003902,16.5827097 33.0003902,16.9032258 L33.0003902,18.581871 C33.4950999,18.4680645 33.7441967,18.2410323 33.7575515,18.2282581 C33.9892289,18.0110968 34.3550354,18.0174839 34.5750999,18.2450968 C34.7957451,18.4727097 34.7963257,18.8315484 34.5721967,19.0556774 C34.4955515,19.1323226 33.7825193,19.8064516 32.4197451,19.8064516 L32.4197451,19.8064516 Z" id="captain"></path>
                    </g>
                </g>
            </g>
        </g>
    </g>
</svg>