<?xml version="1.0" encoding="utf-8"?>
<svg width="11px" height="8px" viewbox="0 0 11 8" version="1.1" xmlns:xlink="http://www.w3.org/1999/xlink" xmlns="http://www.w3.org/2000/svg">
  <path d="M10.824 0.535959L10.4637 0.175642C10.3505 0.0623333 10.1995 0 10.0383 0C9.8772 0 9.72615 0.0623333 9.61293 0.175642L4.54998 5.2385L1.38672 2.07515C1.2735 1.96202 1.12245 1.8996 0.961293 1.8996C0.800228 1.8996 0.649268 1.96202 0.535959 2.07515L0.175553 2.43538C0.0622439 2.54887 0 2.70001 0 2.86098C0 3.02205 0.0622439 3.1731 0.175553 3.28641L3.74707 6.85774C3.7518 6.86445 3.75681 6.87071 3.76263 6.87643L4.12303 7.23085C4.23625 7.34371 4.3873 7.40014 4.54971 7.40014C4.71283 7.40014 4.86388 7.34371 4.97692 7.23085L5.33741 6.8733C5.34323 6.86758 5.34815 6.86284 5.3511 6.85801L10.8239 1.38573C11.0587 1.15151 11.0587 0.770447 10.824 0.535959Z" id="Path-Copy" fill="#2DCE89" fill-rule="evenodd" stroke="none" />
</svg>