<?xml version="1.0" encoding="UTF-8"?><svg width="14px" height="14px" viewBox="0 0 14 14" version="1.1" xmlns="http://www.w3.org/2000/svg" xmlns:xlink="http://www.w3.org/1999/xlink"> <title>E31E156D-759B-4F9F-9DAF-5D2B511B6004_rounded</title> <desc>Created with sketchtool.</desc> <defs> <path d="M18.3,5.7099928 C18.1131685,5.52274013 17.8595176,5.4175072 17.595,5.4175072 C17.3304824,5.4175072 17.0768315,5.52274013 16.89,5.7099928 L12,10.5899928 L7.11,5.6999928 C6.92316847,5.51274013 6.66951764,5.4075072 6.405,5.4075072 C6.14048236,5.4075072 5.88683153,5.51274013 5.7,5.6999928 C5.31,6.0899928 5.31,6.7199928 5.7,7.1099928 L10.59,11.9999928 L5.7,16.8899928 C5.31,17.2799928 5.31,17.9099928 5.7,18.2999928 C6.09,18.6899928 6.72,18.6899928 7.11,18.2999928 L12,13.4099928 L16.89,18.2999928 C17.28,18.6899928 17.91,18.6899928 18.3,18.2999928 C18.69,17.9099928 18.69,17.2799928 18.3,16.8899928 L13.41,11.9999928 L18.3,7.1099928 C18.68,6.7299928 18.68,6.0899928 18.3,5.7099928 Z" id="path-1"></path> </defs> <g id="Home" stroke="none" stroke-width="1" fill="none" fill-rule="evenodd"> <g id="Mobil_Menu" transform="translate(-17.000000, -93.000000)"> <g id="Group-27" transform="translate(0.000000, 75.000000)"> <g id="Group-20-Copy" transform="translate(12.000000, 13.000000)"> <g id="icon/navigation/menu_24px"> <mask id="mask-2" fill="white"> <use xlink:href="#path-1"></use> </mask> <g id="icon/navigation/close_24px" fill-rule="nonzero"></g> <g id="↳-Color" mask="url(#mask-2)" fill="#172B4D"> <rect id="Rectangle" x="0" y="0" width="24" height="24"></rect> </g> </g> </g> </g> </g> </g></svg>