<?xml version="1.0" encoding="UTF-8"?>
<svg width="60px" height="40px" viewBox="0 0 60 40" version="1.1" xmlns="http://www.w3.org/2000/svg" xmlns:xlink="http://www.w3.org/1999/xlink">
    <!-- Generator: sketchtool 52.5 (67469) - http://www.bohemiancoding.com/sketch -->
    <title>EDB58B59-3E3B-4B3F-9A18-213BD6063BC3_rounded</title>
    <desc>Created with sketchtool.</desc>
    <defs>
        <path d="M48.375,25.1 C46.675,16.475 39.1,10 30,10 C22.775,10 16.5,14.1 13.375,20.1 C5.85,20.9 0,27.275 0,35 C0,43.275 6.725,50 15,50 L47.5,50 C54.4,50 60,44.4 60,37.5 C60,30.9 54.875,25.55 48.375,25.1 Z M35,32.4999998 L35,42.5 L25,42.5 L25,32.4999998 L17.5,32.4999998 L29.125,20.8749995 C29.625,20.3749995 30.4,20.3749995 30.9,20.8749995 L42.5,32.4999998 L35,32.4999998 Z" id="path-1"></path>
    </defs>
    <g id="Teknenizi-Kaydedin" stroke="none" stroke-width="1" fill="none" fill-rule="evenodd">
        <g id="Teknenizi-Kaydedin_1" transform="translate(-682.000000, -1247.000000)">
            <g id="Group-6" transform="translate(532.000000, 1237.000000)">
                <g id="icon/file/cloud_upload_24px" transform="translate(150.000000, 0.000000)">
                    <mask id="mask-2" fill="white">
                        <use xlink:href="#path-1"></use>
                    </mask>
                    <g fill-rule="nonzero"></g>
                    <g id="↳-Color" mask="url(#mask-2)" fill="#172B4D">
                        <rect id="Rectangle" x="0" y="0" width="60" height="60"></rect>
                    </g>
                </g>
            </g>
        </g>
    </g>
</svg>