<svg xmlns="http://www.w3.org/2000/svg" xmlns:xlink="http://www.w3.org/1999/xlink" width="20" height="20" viewBox="0 0 20 20"><defs><clipPath id="a"><path d="M9.167,15a.836.836,0,0,1-.833-.833V7.5a.836.836,0,0,1,.833-.833h5A.836.836,0,0,1,15,7.5v6.667a.836.836,0,0,1-.833.833ZM.833,15A.836.836,0,0,1,0,14.167V10.833A.836.836,0,0,1,.833,10h5a.836.836,0,0,1,.833.833v3.334A.836.836,0,0,1,5.833,15Zm0-6.667A.836.836,0,0,1,0,7.5V.833A.836.836,0,0,1,.833,0h5a.836.836,0,0,1,.833.833V7.5a.836.836,0,0,1-.833.833ZM9.167,5a.836.836,0,0,1-.833-.833V.833A.836.836,0,0,1,9.167,0h5A.836.836,0,0,1,15,.833V4.167A.836.836,0,0,1,14.167,5Z" fill="none"/></clipPath></defs><g transform="translate(2.5 2.5)"><path d="M9.167,15a.836.836,0,0,1-.833-.833V7.5a.836.836,0,0,1,.833-.833h5A.836.836,0,0,1,15,7.5v6.667a.836.836,0,0,1-.833.833ZM.833,15A.836.836,0,0,1,0,14.167V10.833A.836.836,0,0,1,.833,10h5a.836.836,0,0,1,.833.833v3.334A.836.836,0,0,1,5.833,15Zm0-6.667A.836.836,0,0,1,0,7.5V.833A.836.836,0,0,1,.833,0h5a.836.836,0,0,1,.833.833V7.5a.836.836,0,0,1-.833.833ZM9.167,5a.836.836,0,0,1-.833-.833V.833A.836.836,0,0,1,9.167,0h5A.836.836,0,0,1,15,.833V4.167A.836.836,0,0,1,14.167,5Z" fill="none"/><g clip-path="url(#a)"><g transform="translate(-2.5 -2.5)"><rect width="20" height="20" fill="#172b4d"/></g></g></g></svg>