<?xml version="1.0" encoding="utf-8"?>
<svg width="19px" height="23px" viewbox="0 0 19 23" version="1.1" xmlns:xlink="http://www.w3.org/1999/xlink" xmlns="http://www.w3.org/2000/svg">
  <path d="M16.2857 3.47985L13.7736 3.47985C13.4385 3.12192 13.0081 2.84804 12.5135 2.71124C12.0969 2.59608 11.7763 2.28779 11.6565 1.88717C11.3305 0.797321 10.2859 0 9.04762 0C7.80934 0 6.76479 0.797321 6.43874 1.88711C6.3188 2.28817 5.99738 2.59608 5.58029 2.71162C5.08618 2.84853 4.65619 3.12214 4.32143 3.47985L1.80952 3.47985C0.810158 3.47985 0 4.25885 0 5.21978L0 20.8791C0 21.84 0.810101 22.619 1.80947 22.619L16.2856 22.619C17.285 22.619 18.0951 21.84 18.0951 20.8791L18.0951 5.21978C18.0952 4.25885 17.2851 3.47985 16.2857 3.47985ZM9.05927 1.73993C9.55898 1.73993 9.96403 2.1294 9.96403 2.60989C9.96403 3.09033 9.55898 3.47985 9.05927 3.47985C8.55956 3.47985 8.15451 3.09033 8.15451 2.60989C8.15451 2.1294 8.55956 1.73993 9.05927 1.73993ZM16.2857 20.8791L1.80952 20.8791L1.80952 5.21978L3.61905 5.21978L3.61905 6.95971L14.4762 6.95971L14.4762 5.21978L16.2857 5.21978L16.2857 20.8791Z" id="Shape" fill="#32325D" stroke="none" />
</svg>