<svg width="19" height="19" viewBox="0 0 19 19" fill="none" xmlns="http://www.w3.org/2000/svg">
<mask id="mask0" mask-type="alpha" maskUnits="userSpaceOnUse" x="1" y="2" width="17" height="15">
<path fill-rule="evenodd" clip-rule="evenodd" d="M9.72832 13.6287L16.9468 6.41026C17.5735 5.78353 17.5735 4.76371 16.944 4.13422L15.7565 2.94672C15.1298 2.31724 14.1127 2.31724 13.4832 2.94672L6.26478 10.1652L5.98989 12.6501C5.91018 13.3758 6.52317 13.9833 7.24336 13.9036L9.72832 13.6287ZM13.5217 11.0778L12.6421 11.9575C12.6009 11.9987 12.5789 12.0537 12.5789 12.1114V15.2313H2.90294V5.55542H9.5414C9.60187 5.55542 9.65685 5.53343 9.69808 5.4922L10.5777 4.61257C10.7152 4.47238 10.6162 4.23598 10.421 4.23598H2.90294C2.1745 4.23598 1.5835 4.82698 1.5835 5.55542V15.2313C1.5835 15.9598 2.1745 16.5508 2.90294 16.5508H12.5789C13.3073 16.5508 13.8983 15.9598 13.8983 15.2313V11.2345C13.8983 11.0366 13.6592 10.9404 13.5217 11.0778ZM14.2309 7.25957L12.6338 5.66249L7.52649 10.7726L7.32583 12.5676L9.12082 12.3669L14.2309 7.25957ZM14.8247 3.88137L16.0122 5.06887C16.1249 5.18158 16.1249 5.363 16.0149 5.47845L15.1655 6.32784L13.5685 4.73077L14.4178 3.88137C14.5278 3.76867 14.712 3.76867 14.8247 3.88137Z" fill="white"/>
</mask>
<g mask="url(#mask0)">
<rect width="19" height="19" fill="#8898AA"/>
</g>
</svg>
