<svg xmlns="http://www.w3.org/2000/svg" width="20" height="20" viewBox="0 0 20 20">
    <path fill="#3282FD" d="M18.878 1.099C18.146.366 17.264 0 16.232 0H3.746C2.714 0 1.832.366 1.099 1.099.366 1.832 0 2.714 0 3.746v12.486c0 1.031.366 1.914 1.1 2.646.732.733 1.614 1.1 2.646 1.1h12.486c1.031 0 1.914-.367 2.646-1.1.733-.732 1.1-1.615 1.1-2.646V3.746c0-1.032-.367-1.915-1.1-2.647zm-2.23 9.722c0 .225-.083.42-.247.585-.165.165-.36.248-.586.248H4.162c-.225 0-.42-.083-.585-.248-.165-.164-.247-.36-.247-.585V9.156c0-.225.082-.42.247-.585.165-.165.36-.247.585-.247h11.653c.226 0 .421.082.586.247.165.165.247.36.247.585v1.665z"/>
</svg>
