<?xml version="1.0" encoding="utf-8"?>
<svg width="117px" height="117px" viewbox="0 0 117 117" version="1.1" xmlns:xlink="http://www.w3.org/1999/xlink" xmlns="http://www.w3.org/2000/svg">
  <g id="Profil-Yükle-İkonu">
    <path d="M58.5 6.92779e-15C26.1917 6.92779e-15 0 26.1917 0 58.5C0 90.8083 26.1917 117 58.5 117C60.2624 117 62.0182 116.921 63.7654 116.764C65.3897 116.618 66.9998 116.395 68.5975 116.116L69.2117 116.008C98.9158 110.464 119.512 83.2111 116.733 53.1213C113.955 23.0315 88.7174 0.00952148 58.5 6.92779e-15ZM53.8002 112.893L53.6621 112.893C52.1454 112.759 50.64 112.556 49.148 112.296C49.0623 112.281 48.9766 112.272 48.8928 112.255C47.4341 111.995 45.9907 111.671 44.5615 111.293L44.2159 111.204C42.8219 110.826 41.4432 110.387 40.0845 109.9C39.9436 109.849 39.8017 109.805 39.6608 109.752C38.3287 109.263 37.0205 108.714 35.7322 108.121C35.5723 108.05 35.4123 107.981 35.2523 107.905C33.9888 107.32 32.7501 106.662 31.5352 105.968C31.3638 105.871 31.1905 105.774 31.0191 105.678C29.8232 104.98 28.6549 104.232 27.5085 103.441C27.3352 103.32 27.16 103.203 26.9877 103.082C25.8613 102.284 24.7635 101.435 23.6942 100.548L23.4 100.291L23.4 83.85C23.4143 72.0091 33.0091 62.4143 44.85 62.4L72.15 62.4C83.9909 62.4143 93.5857 72.0091 93.6 83.85L93.6 100.293L93.341 100.509C92.2508 101.419 91.132 102.28 89.9828 103.093C89.8304 103.2 89.6762 103.301 89.5248 103.406C88.3651 104.212 87.1768 104.97 85.96 105.682C85.8076 105.77 85.6515 105.854 85.5001 105.942C84.267 106.643 83.0131 107.306 81.7343 107.903C81.5877 107.972 81.4401 108.036 81.2916 108.098C79.9928 108.697 78.6732 109.249 77.3316 109.742C77.1983 109.791 77.064 109.834 76.9412 109.881C75.5758 110.37 74.1914 110.813 72.7898 111.193L72.4537 111.277C71.0227 111.655 69.5782 111.98 68.1177 112.242C68.0339 112.257 67.9501 112.268 67.8663 112.281C66.3724 112.542 64.8651 112.745 63.3474 112.88L63.2093 112.88C61.6497 113.014 60.0891 113.087 58.5095 113.087C56.9299 113.087 55.357 113.028 53.8002 112.893L53.8002 112.893ZM97.5 96.6773L97.5 83.85C97.4838 69.8563 86.1437 58.5162 72.15 58.5L44.85 58.5C30.8563 58.5162 19.5162 69.8563 19.5 83.85L19.5 96.6754C-1.50249 75.2397 -1.26826 40.8719 20.0237 19.7238C41.3156 -1.42346 75.6844 -1.42346 96.9763 19.7238C118.268 40.8719 118.502 75.2397 97.5 96.6754L97.5 96.6773Z" id="Shape" fill="#CED4DA" stroke="none" />
    <path d="M19.5 0C8.73025 0 0 8.73025 0 19.5C0 30.2698 8.73025 39 19.5 39C30.2698 39 39 30.2698 39 19.5C38.9886 8.73501 30.265 0.0114258 19.5 0ZM19.5 35.1C10.884 35.1 3.9 28.116 3.9 19.5C3.9 10.884 10.884 3.9 19.5 3.9C28.116 3.9 35.1 10.884 35.1 19.5C35.0905 28.1112 28.1112 35.0905 19.5 35.1Z" transform="translate(39 15.599609)" id="Shape" fill="#CED4DA" stroke="none" />
  </g>
</svg>