<svg xmlns="http://www.w3.org/2000/svg" width="45" height="44" viewBox="0 0 45 44">
    <path fill="#3282FD" fill-rule="evenodd" d="M4.028 18.024c-.333-.248-.807-.185-1.061.142-.253.327-.189.794.144 1.044l16.595 12.417c.14.117 1.403 1.139 2.762 1.139 1.365 0 2.64-.985 2.762-1.084L41.888 19.21c.334-.249.398-.716.145-1.043-.254-.326-.73-.391-1.062-.141l-1.812 1.358V3.723C39.159 1.705 37.425 0 35.373 0H9.627C7.575 0 5.841 1.705 5.841 3.723v15.658l-1.813-1.357zM7.5 3.183C7.5 1.986 8.552.936 9.75.936h25.5c1.199 0 2.25 1.05 2.25 2.247v16.888L24.279 30.124c-.267.214-1.114.77-1.81.77-.677 0-1.504-.571-1.797-.814L7.5 20.07V3.183zm7.336 27.048c.26.313.204.765-.127 1.012l-10.66 7.922c-.14.104-.307.154-.473.154-.225 0-.449-.094-.6-.274-.26-.313-.204-.765.128-1.012l10.66-7.922c.33-.244.81-.192 1.072.12zm16.397-.12l10.663 7.922c.331.246.389.699.128 1.011-.15.18-.373.275-.6.275-.164 0-.33-.05-.47-.154l-10.663-7.921c-.33-.246-.388-.699-.128-1.012.26-.311.737-.367 1.07-.12zM45 16.86v23.472C45 42.39 43.353 44 41.25 44H3.75C1.647 44 0 42.39 0 40.332V16.86c0-2.131 1.027-4.106 2.616-5.031l.717-.47c.344-.226.81-.135 1.04.2.23.337.138.793-.206 1.019l-.75.49C2.083 13.848 1.5 15.53 1.5 16.86v23.472c0 1.234.989 2.201 2.25 2.201h37.5c1.262 0 2.25-.967 2.25-2.2V16.86c0-1.677-.69-3.054-1.892-3.776l-.776-.506c-.344-.226-.436-.682-.205-1.019.231-.336.697-.426 1.04-.2l.75.49C44.05 12.83 45 14.662 45 16.86zm-20.45 4.672H13.888c-.42 0-.762-.21-.762-.468 0-.259.341-.468.762-.468H24.55c.421 0 .762.21.762.468s-.341.468-.762.468zm6.387-.468c0 .258-.349.468-.78.468H27.03c-.432 0-.781-.21-.781-.468 0-.259.35-.468.781-.468h3.125c.432 0 .782.21.782.468zm-9.575-5.15H30.2c.407 0 .736.21.736.469 0 .258-.329.468-.736.468h-8.84c-.406 0-.736-.21-.736-.468s.33-.468.737-.468zm-8.237.469c0-.258.315-.468.703-.468h4.219c.388 0 .703.21.703.468s-.315.468-.703.468h-4.219c-.388 0-.703-.21-.703-.468zm13.281 9.83h-7.812c-.431 0-.782-.21-.782-.468 0-.259.35-.468.782-.468h7.812c.432 0 .782.21.782.468s-.35.468-.782.468zM13.125 10.766c0-.258.33-.468.737-.468H22.7c.407 0 .736.21.736.468s-.329.468-.736.468h-8.84c-.406 0-.736-.21-.736-.468z"/>
</svg>
