<?xml version="1.0" encoding="utf-8"?>
<svg width="24px" height="24px" viewbox="0 0 24 24" version="1.1" xmlns:xlink="http://www.w3.org/1999/xlink" xmlns="http://www.w3.org/2000/svg">
  <defs>
    <path d="M15.625 0L1.875 0C0.839453 0 0 0.839453 0 1.875L0 15.625C0 16.6605 0.839453 17.5 1.875 17.5L15.625 17.5C16.6605 17.5 17.5 16.6605 17.5 15.625L17.5 1.875C17.5 0.839453 16.6605 0 15.625 0ZM15.625 15.625L1.875 15.625L1.875 1.875L15.625 1.875L15.625 15.625ZM14.2241 6.18266L7.4823 12.8703C7.29852 13.0526 7.00172 13.0514 6.81941 12.8677L3.27328 9.29281C3.09098 9.10902 3.09215 8.81223 3.27598 8.62988L4.16344 7.74957C4.34723 7.56727 4.64402 7.56844 4.82633 7.75227L7.16195 10.1068L12.6835 4.62965C12.8673 4.44734 13.1641 4.44852 13.3464 4.6323L14.2267 5.51973C14.409 5.70355 14.4079 6.00035 14.2241 6.18266Z" transform="translate(3.25 3.25)" id="path_1" />
    <clipPath id="mask_1">
      <use xlink:href="#path_1" />
    </clipPath>
  </defs>
  <g id="check-square">
    <path d="M15.625 0L1.875 0C0.839453 0 0 0.839453 0 1.875L0 15.625C0 16.6605 0.839453 17.5 1.875 17.5L15.625 17.5C16.6605 17.5 17.5 16.6605 17.5 15.625L17.5 1.875C17.5 0.839453 16.6605 0 15.625 0ZM15.625 15.625L1.875 15.625L1.875 1.875L15.625 1.875L15.625 15.625ZM14.2241 6.18266L7.4823 12.8703C7.29852 13.0526 7.00172 13.0514 6.81941 12.8677L3.27328 9.29281C3.09098 9.10902 3.09215 8.81223 3.27598 8.62988L4.16344 7.74957C4.34723 7.56727 4.64402 7.56844 4.82633 7.75227L7.16195 10.1068L12.6835 4.62965C12.8673 4.44734 13.1641 4.44852 13.3464 4.6323L14.2267 5.51973C14.409 5.70355 14.4079 6.00035 14.2241 6.18266Z" transform="translate(3.25 3.25)" id="check-square" fill="none" stroke="none" />
    <g clip-path="url(#mask_1)">
      <path d="M0 0L24 0L24 24L0 24L0 0Z" id="🎨-color" fill="#32325D" fill-rule="evenodd" stroke="none" />
    </g>
  </g>
</svg>