<?xml version="1.0" encoding="utf-8"?>
<svg width="24px" height="24px" viewbox="0 0 24 24" version="1.1" xmlns:xlink="http://www.w3.org/1999/xlink" xmlns="http://www.w3.org/2000/svg">
  <defs>
    <path d="M18.125 0L1.875 0C0.839453 0 0 0.839453 0 1.875L0 15.625C0 16.6605 0.839453 17.5 1.875 17.5L18.125 17.5C19.1605 17.5 20 16.6605 20 15.625L20 1.875C20 0.839453 19.1605 0 18.125 0ZM17.8906 15.625L2.10938 15.625C1.97993 15.625 1.875 15.5201 1.875 15.3906L1.875 2.10938C1.875 1.97993 1.97993 1.875 2.10938 1.875L17.8906 1.875C18.0201 1.875 18.125 1.97993 18.125 2.10938L18.125 15.3906C18.125 15.5201 18.0201 15.625 17.8906 15.625ZM16.25 12.0313L16.25 12.9688C16.25 13.2276 16.0401 13.4375 15.7813 13.4375L7.96875 13.4375C7.70988 13.4375 7.5 13.2276 7.5 12.9688L7.5 12.0313C7.5 11.7724 7.70988 11.5625 7.96875 11.5625L15.7813 11.5625C16.0401 11.5625 16.25 11.7724 16.25 12.0313ZM16.25 8.28125L16.25 9.21875C16.25 9.47762 16.0401 9.6875 15.7813 9.6875L7.96875 9.6875C7.70988 9.6875 7.5 9.47762 7.5 9.21875L7.5 8.28125C7.5 8.02238 7.70988 7.8125 7.96875 7.8125L15.7813 7.8125C16.0401 7.8125 16.25 8.02238 16.25 8.28125ZM16.25 4.53125L16.25 5.46875C16.25 5.72762 16.0401 5.9375 15.7813 5.9375L7.96875 5.9375C7.70988 5.9375 7.5 5.72762 7.5 5.46875L7.5 4.53125C7.5 4.27238 7.70988 4.0625 7.96875 4.0625L15.7813 4.0625C16.0401 4.0625 16.25 4.27238 16.25 4.53125ZM6.40625 5C6.40625 5.77664 5.77664 6.40625 5 6.40625C4.22336 6.40625 3.59375 5.77664 3.59375 5C3.59375 4.22336 4.22336 3.59375 5 3.59375C5.77664 3.59375 6.40625 4.22336 6.40625 5ZM6.40625 8.75C6.40625 9.52664 5.77664 10.1563 5 10.1563C4.22336 10.1563 3.59375 9.52664 3.59375 8.75C3.59375 7.97336 4.22336 7.34375 5 7.34375C5.77664 7.34375 6.40625 7.97336 6.40625 8.75ZM6.40625 12.5C6.40625 13.2766 5.77664 13.9063 5 13.9063C4.22336 13.9063 3.59375 13.2766 3.59375 12.5C3.59375 11.7234 4.22336 11.0938 5 11.0938C5.77664 11.0938 6.40625 11.7234 6.40625 12.5Z" transform="translate(2 3.25)" id="path_1" />
    <clipPath id="mask_1">
      <use xlink:href="#path_1" />
    </clipPath>
  </defs>
  <g id="list-alt">
    <path d="M18.125 0L1.875 0C0.839453 0 0 0.839453 0 1.875L0 15.625C0 16.6605 0.839453 17.5 1.875 17.5L18.125 17.5C19.1605 17.5 20 16.6605 20 15.625L20 1.875C20 0.839453 19.1605 0 18.125 0ZM17.8906 15.625L2.10938 15.625C1.97993 15.625 1.875 15.5201 1.875 15.3906L1.875 2.10938C1.875 1.97993 1.97993 1.875 2.10938 1.875L17.8906 1.875C18.0201 1.875 18.125 1.97993 18.125 2.10938L18.125 15.3906C18.125 15.5201 18.0201 15.625 17.8906 15.625ZM16.25 12.0313L16.25 12.9688C16.25 13.2276 16.0401 13.4375 15.7813 13.4375L7.96875 13.4375C7.70988 13.4375 7.5 13.2276 7.5 12.9688L7.5 12.0313C7.5 11.7724 7.70988 11.5625 7.96875 11.5625L15.7813 11.5625C16.0401 11.5625 16.25 11.7724 16.25 12.0313ZM16.25 8.28125L16.25 9.21875C16.25 9.47762 16.0401 9.6875 15.7813 9.6875L7.96875 9.6875C7.70988 9.6875 7.5 9.47762 7.5 9.21875L7.5 8.28125C7.5 8.02238 7.70988 7.8125 7.96875 7.8125L15.7813 7.8125C16.0401 7.8125 16.25 8.02238 16.25 8.28125ZM16.25 4.53125L16.25 5.46875C16.25 5.72762 16.0401 5.9375 15.7813 5.9375L7.96875 5.9375C7.70988 5.9375 7.5 5.72762 7.5 5.46875L7.5 4.53125C7.5 4.27238 7.70988 4.0625 7.96875 4.0625L15.7813 4.0625C16.0401 4.0625 16.25 4.27238 16.25 4.53125ZM6.40625 5C6.40625 5.77664 5.77664 6.40625 5 6.40625C4.22336 6.40625 3.59375 5.77664 3.59375 5C3.59375 4.22336 4.22336 3.59375 5 3.59375C5.77664 3.59375 6.40625 4.22336 6.40625 5ZM6.40625 8.75C6.40625 9.52664 5.77664 10.1563 5 10.1563C4.22336 10.1563 3.59375 9.52664 3.59375 8.75C3.59375 7.97336 4.22336 7.34375 5 7.34375C5.77664 7.34375 6.40625 7.97336 6.40625 8.75ZM6.40625 12.5C6.40625 13.2766 5.77664 13.9063 5 13.9063C4.22336 13.9063 3.59375 13.2766 3.59375 12.5C3.59375 11.7234 4.22336 11.0938 5 11.0938C5.77664 11.0938 6.40625 11.7234 6.40625 12.5Z" transform="translate(2 3.25)" id="list-alt" fill="none" stroke="none" />
    <g clip-path="url(#mask_1)">
      <path d="M0 0L24 0L24 24L0 24L0 0Z" id="🎨-color" fill="#32325D" fill-rule="evenodd" stroke="none" />
    </g>
  </g>
</svg>