<?xml version="1.0" encoding="utf-8"?>
<svg width="24px" height="24px" viewbox="0 0 24 24" version="1.1" xmlns:xlink="http://www.w3.org/1999/xlink" xmlns="http://www.w3.org/2000/svg">
  <defs>
    <path d="M19.2671 8.65205L16.9357 7.0731L17.4698 4.30507C17.5711 3.79045 17.4074 3.26023 17.037 2.88596C16.6628 2.51559 16.1326 2.35185 15.6257 2.45322L12.8616 2.98733L11.2866 0.652047C10.6979 -0.217349 9.26316 -0.217349 8.67446 0.652047L7.09942 2.98733L4.33918 2.45322C3.82066 2.35575 3.29435 2.51559 2.92398 2.88986C2.55361 3.26413 2.38986 3.79045 2.49123 4.30507L3.02534 7.0731L0.693957 8.65205C0.25731 8.94834 0 9.43567 0 9.96199C0 10.4883 0.261209 10.9756 0.693957 11.268L3.02534 12.847L2.49123 15.615C2.38986 16.1296 2.55361 16.6598 2.92398 17.0302C3.29435 17.4006 3.81676 17.5643 4.33918 17.463L7.09942 16.9289L8.67446 19.2641C8.96686 19.7008 9.45809 19.962 9.98051 19.962C10.5029 19.962 10.9942 19.7008 11.2866 19.268L12.8616 16.9327L15.6257 17.4669C16.1481 17.5721 16.6706 17.4045 17.0409 17.0341C17.4113 16.6637 17.5711 16.1335 17.4737 15.6189L16.9396 12.8509L19.271 11.2719C19.7037 10.9795 19.9649 10.4883 19.9649 9.96589C19.961 9.43567 19.7037 8.94834 19.2671 8.65205ZM14.8655 11.9893L15.5517 15.5448L12.0039 14.8587L9.98051 17.8567L7.95712 14.8548L4.41326 15.5409L5.09942 11.9854L2.10526 9.95809L5.09942 7.9308L4.41326 4.37524L7.96101 5.0614L9.98051 2.06725L12.0039 5.0653L15.5517 4.37914L14.8655 7.9308L17.8596 9.95809L14.8655 11.9893ZM9.98051 5.9269C7.74659 5.9269 5.92593 7.74756 5.92593 9.98148C5.92593 12.2154 7.74659 14.0361 9.98051 14.0361C12.2144 14.0361 14.0351 12.2154 14.0351 9.98148C14.0351 7.74756 12.2144 5.9269 9.98051 5.9269ZM9.98051 12.1647C8.77583 12.1647 7.79727 11.1862 7.79727 9.98148C7.79727 8.7768 8.77583 7.79825 9.98051 7.79825C11.1852 7.79825 12.1637 8.7768 12.1637 9.98148C12.1637 11.1862 11.1852 12.1647 9.98051 12.1647Z" transform="translate(2 2.0380116)" id="path_1" />
    <clipPath id="mask_1">
      <use xlink:href="#path_1" />
    </clipPath>
  </defs>
  <g id="sun">
    <path d="M19.2671 8.65205L16.9357 7.0731L17.4698 4.30507C17.5711 3.79045 17.4074 3.26023 17.037 2.88596C16.6628 2.51559 16.1326 2.35185 15.6257 2.45322L12.8616 2.98733L11.2866 0.652047C10.6979 -0.217349 9.26316 -0.217349 8.67446 0.652047L7.09942 2.98733L4.33918 2.45322C3.82066 2.35575 3.29435 2.51559 2.92398 2.88986C2.55361 3.26413 2.38986 3.79045 2.49123 4.30507L3.02534 7.0731L0.693957 8.65205C0.25731 8.94834 0 9.43567 0 9.96199C0 10.4883 0.261209 10.9756 0.693957 11.268L3.02534 12.847L2.49123 15.615C2.38986 16.1296 2.55361 16.6598 2.92398 17.0302C3.29435 17.4006 3.81676 17.5643 4.33918 17.463L7.09942 16.9289L8.67446 19.2641C8.96686 19.7008 9.45809 19.962 9.98051 19.962C10.5029 19.962 10.9942 19.7008 11.2866 19.268L12.8616 16.9327L15.6257 17.4669C16.1481 17.5721 16.6706 17.4045 17.0409 17.0341C17.4113 16.6637 17.5711 16.1335 17.4737 15.6189L16.9396 12.8509L19.271 11.2719C19.7037 10.9795 19.9649 10.4883 19.9649 9.96589C19.961 9.43567 19.7037 8.94834 19.2671 8.65205ZM14.8655 11.9893L15.5517 15.5448L12.0039 14.8587L9.98051 17.8567L7.95712 14.8548L4.41326 15.5409L5.09942 11.9854L2.10526 9.95809L5.09942 7.9308L4.41326 4.37524L7.96101 5.0614L9.98051 2.06725L12.0039 5.0653L15.5517 4.37914L14.8655 7.9308L17.8596 9.95809L14.8655 11.9893ZM9.98051 5.9269C7.74659 5.9269 5.92593 7.74756 5.92593 9.98148C5.92593 12.2154 7.74659 14.0361 9.98051 14.0361C12.2144 14.0361 14.0351 12.2154 14.0351 9.98148C14.0351 7.74756 12.2144 5.9269 9.98051 5.9269ZM9.98051 12.1647C8.77583 12.1647 7.79727 11.1862 7.79727 9.98148C7.79727 8.7768 8.77583 7.79825 9.98051 7.79825C11.1852 7.79825 12.1637 8.7768 12.1637 9.98148C12.1637 11.1862 11.1852 12.1647 9.98051 12.1647Z" transform="translate(2 2.0380116)" id="sun" fill="none" stroke="none" />
    <g clip-path="url(#mask_1)">
      <path d="M0 0L24 0L24 24L0 24L0 0Z" id="🎨-color" fill="#32325D" fill-rule="evenodd" stroke="none" />
    </g>
  </g>
</svg>