<?xml version="1.0" encoding="UTF-8"?>
<svg width="20px" height="20px" viewBox="0 0 20 20" version="1.1" xmlns="http://www.w3.org/2000/svg" xmlns:xlink="http://www.w3.org/1999/xlink">
    <title>icon:şirket</title>
    <defs>
        <path d="M4,0 L259,0 C261.209139,-4.05812251e-16 263,1.790861 263,4 L263,1029 C263,1031.20914 261.209139,1033 259,1033 L4,1033 C1.790861,1033 2.705415e-16,1031.20914 0,1029 L0,4 C-2.705415e-16,1.790861 1.790861,4.05812251e-16 4,0 Z" id="path-1"></path>
        <filter x="-9.5%" y="-1.9%" width="119.0%" height="104.8%" filterUnits="objectBoundingBox" id="filter-2">
            <feOffset dx="0" dy="15" in="SourceAlpha" result="shadowOffsetOuter1"></feOffset>
            <feGaussianBlur stdDeviation="2" in="shadowOffsetOuter1" result="shadowBlurOuter1"></feGaussianBlur>
            <feColorMatrix values="0 0 0 0 0.196078431   0 0 0 0 0.196078431   0 0 0 0 0.364705882  0 0 0 0.01 0" type="matrix" in="shadowBlurOuter1" result="shadowMatrixOuter1"></feColorMatrix>
            <feOffset dx="0" dy="5" in="SourceAlpha" result="shadowOffsetOuter2"></feOffset>
            <feGaussianBlur stdDeviation="7.5" in="shadowOffsetOuter2" result="shadowBlurOuter2"></feGaussianBlur>
            <feColorMatrix values="0 0 0 0 0   0 0 0 0 0   0 0 0 0 0  0 0 0 0.07 0" type="matrix" in="shadowBlurOuter2" result="shadowMatrixOuter2"></feColorMatrix>
            <feMerge>
                <feMergeNode in="shadowMatrixOuter1"></feMergeNode>
                <feMergeNode in="shadowMatrixOuter2"></feMergeNode>
            </feMerge>
        </filter>
    </defs>
    <g id="Maviyyo-Paneli" stroke="none" stroke-width="1" fill="none" fill-rule="evenodd">
        <g id="1GÖSTERGE-PANELİ" transform="translate(-207.000000, -750.000000)" fill-rule="nonzero">
            <g id="Profil_Sol-Menü" transform="translate(150.000000, 117.000000)">
                <g id="Profil-Menü-Arka-Zemin">
                    <use fill="black" fill-opacity="1" filter="url(#filter-2)" xlink:href="#path-1"></use>
                    <use fill="#FFFFFF" xlink:href="#path-1"></use>
                </g>
                <g id="Menü-Genel" transform="translate(56.000000, 219.000000)" fill="#172B4D">
                    <g id="Şirket-Pfofili" transform="translate(1.000000, 399.000000)">
                        <g id="icon:şirket" transform="translate(0.000000, 15.000000)">
                            <path d="M10.995,12.2795238 L10.995,11.747619 C10.995,11.1 10.5703846,10.5747619 10.0476923,10.5747619 C9.52423077,10.5747619 9.1,11.1 9.1,11.747619 L9.1,12.2795238 C9.1,12.9266667 9.52423077,13.452381 10.0476923,13.452381 C10.5703846,13.452381 10.995,12.9271429 10.995,12.2795238 Z" id="Path"></path>
                            <path d="M11.6446154,12.9280952 C11.435,13.7790476 10.8023077,14.4042857 10.0476923,14.4042857 C9.29269231,14.4042857 8.66,13.7795238 8.45,12.9280952 L1.92346154,12.9280952 C1.51153846,12.9280952 1.12230769,12.8095238 0.773076923,12.6038095 L0.773076923,17.9690476 C0.773076923,19.0166667 1.46538462,19.8738095 2.31153846,19.8738095 L17.7830769,19.8738095 C18.6292308,19.8738095 19.3215385,19.0166667 19.3215385,17.9690476 L19.3215385,12.6042857 C18.9723077,12.81 18.5830769,12.9285714 18.1715385,12.9285714 L11.6446154,12.9280952 L11.6446154,12.9280952 Z" id="Path"></path>
                            <path d="M18.1069231,3.29380952 L14.4138462,3.29380952 C14.1911538,1.56714286 12.9823077,0.242380952 11.5261538,0.242380952 L8.56692308,0.242380952 C7.11038462,0.242380952 5.90269231,1.56714286 5.67923077,3.29380952 L1.98692308,3.29380952 C1.10538462,3.29380952 0.384230769,4.15095238 0.384230769,5.19857143 L0.384230769,9.5952381 C0.384230769,10.6466667 1.07307692,11.5 1.92269231,11.5 L8.37653846,11.5 C8.39846154,10.9528571 8.58846154,10.4590476 8.88884615,10.1033333 C8.89807692,10.0928571 8.90884615,10.0838095 8.91846154,10.0733333 C8.985,9.99761905 9.05423077,9.92619048 9.13,9.86428571 C9.15692308,9.84190476 9.18769231,9.82666667 9.21576923,9.80666667 C9.27807692,9.76238095 9.33961538,9.71619048 9.40692308,9.68190476 C9.45961538,9.6547619 9.51653846,9.63904762 9.57192308,9.61857143 C9.61961538,9.60095238 9.665,9.57761905 9.71461538,9.5652381 C9.82230769,9.53809524 9.93346154,9.52380952 10.0469231,9.52380952 C10.1607692,9.52380952 10.2715385,9.53857143 10.3788462,9.5652381 C10.4280769,9.57761905 10.4738462,9.60095238 10.5219231,9.61857143 C10.5773077,9.63904762 10.6334615,9.6547619 10.6869231,9.68238095 C10.7538462,9.71666667 10.815,9.76238095 10.8773077,9.80666667 C10.9053846,9.82714286 10.9361538,9.84238095 10.9638462,9.8647619 C11.0396154,9.92619048 11.1084615,9.99761905 11.175,10.0733333 C11.1846154,10.0842857 11.1965385,10.0928571 11.205,10.1042857 C11.5057692,10.4604762 11.6953846,10.9528571 11.7173077,11.5009524 L18.1711538,11.5009524 C19.0207692,11.5009524 19.7096154,10.6480952 19.7096154,9.59619048 L19.7096154,5.19952381 C19.7096154,4.15095238 18.9884615,3.29380952 18.1069231,3.29380952 Z M7.16115385,3.29380952 C7.35730769,2.56 7.91,2.0252381 8.56769231,2.0252381 L11.5269231,2.0252381 C12.1842308,2.0252381 12.7369231,2.56 12.9330769,3.29380952 L7.16115385,3.29380952 Z" id="Shape"></path>
                        </g>
                    </g>
                </g>
            </g>
        </g>
    </g>
</svg>