<svg xmlns="http://www.w3.org/2000/svg" width="21" height="20" viewBox="0 0 21 20">
    <g fill="#3282FD">
        <g>
            <path d="M5.784 5.408c-.623-.264-.803-.424-.803-.712 0-.23.165-.5.631-.5.412 0 .729.172.731.173.034.019.07.029.108.029.09 0 .17-.058.203-.147l.113-.306c.04-.111-.02-.209-.097-.243-.253-.117-.75-.207-.754-.208-.008-.002-.036-.008-.036-.042l-.002-.444c0-.134-.105-.243-.235-.243H5.44c-.13 0-.235.11-.235.243v.466c0 .036-.036.052-.05.055-.626.158-1.017.642-1.017 1.253 0 .762.596 1.107 1.24 1.365.514.214.724.43.724.748 0 .345-.297.586-.723.586-.363 0-.856-.243-.86-.246-.032-.015-.065-.023-.1-.023-.093 0-.175.06-.207.152l-.109.31c-.038.115.021.209.097.25.302.167.887.264.913.269.007 0 .043.014.043.048v.465c0 .133.105.242.235.242h.21c.13 0 .235-.109.235-.242v-.49c0-.045.032-.049.039-.05.666-.159 1.077-.674 1.077-1.322 0-.665-.35-1.095-1.168-1.436z" transform="translate(9.812)"/>
            <path d="M5.522.032C2.477.032.009 2.64.009 5.857s2.468 5.825 5.513 5.825c3.044 0 5.512-2.608 5.512-5.825S8.566.032 5.522.032zm0 10.3c-2.34 0-4.235-2.004-4.235-4.475 0-2.472 1.896-4.475 4.235-4.475 2.338 0 4.234 2.003 4.234 4.475 0 2.471-1.896 4.475-4.234 4.475z" transform="translate(9.812)"/>
        </g>
        <g>
            <path d="M19.726 2.273c-1.172.684-2.785 1.316-4.392 1.582-1.43.237-4.122-.334-4.122-1.01 0-.255 2.36.631 3.788.228 1.095-.308.94-1.39.344-1.533-.592-.142-4.06-1.485-5.542-1.531-.698-.022-2.42.256-3.255.4-.285.049-.464.043-.482.332-.083 1.343-.247 4.088-.336 5.522-.002.03.038.437.356.15.349-.313.837-.661 1.289-.553.709.17 6.84 1.357 7.686 1.15 1.21-.298 4.635-2.443 5.292-3.11 1.018-1.033.226-2.124-.626-1.627zM4.373.356L1.16.19C.913.176.659.374.598.628L.014 6.232c-.062.254.09.47.339.48h3.56c.248.01.466-.196.485-.457l.391-5.4C4.81.595 4.621.37 4.373.357zM2.482 5.97c-.49 0-.888-.42-.888-.939 0-.518.397-.938.888-.938.49 0 .888.42.888.938s-.398.939-.888.939z" transform="translate(0 12.232)"/>
        </g>
    </g>
</svg>
