<svg width="24" height="24" viewBox="0 0 24 24" fill="none" xmlns="http://www.w3.org/2000/svg">
<mask id="mask0" mask-type="alpha" maskUnits="userSpaceOnUse" x="2" y="4" width="20" height="16">
<path fill-rule="evenodd" clip-rule="evenodd" d="M3.875 4.5H20.125C21.1605 4.5 22 5.33945 22 6.375V17.625C22 18.6605 21.1605 19.5 20.125 19.5H3.875C2.83945 19.5 2 18.6605 2 17.625V6.375C2 5.33945 2.83945 4.5 3.875 4.5ZM4.10938 17.625H19.8906C20.0201 17.625 20.125 17.5201 20.125 17.3906V6.60938C20.125 6.47993 20.0201 6.375 19.8906 6.375H4.10938C3.97993 6.375 3.875 6.47993 3.875 6.60938V17.3906C3.875 17.5201 3.97993 17.625 4.10938 17.625ZM7 7.9375C6.13707 7.9375 5.4375 8.63707 5.4375 9.5C5.4375 10.3629 6.13707 11.0625 7 11.0625C7.86293 11.0625 8.5625 10.3629 8.5625 9.5C8.5625 8.63707 7.86293 7.9375 7 7.9375ZM18.25 15.75H5.75V13.875L7.29352 12.3314C7.4766 12.1484 7.7734 12.1484 7.95645 12.3314L9.5 13.875L14.1685 9.20645C14.3516 9.0234 14.6484 9.0234 14.8314 9.20645L18.25 12.625V15.75Z" fill="white"/>
</mask>
<g mask="url(#mask0)">
<rect width="24" height="24" fill="#32325D"/>
</g>
</svg>
