<?xml version="1.0" encoding="utf-8"?>
<svg width="24px" height="24px" viewbox="0 0 24 24" version="1.1" xmlns:xlink="http://www.w3.org/1999/xlink" xmlns="http://www.w3.org/2000/svg">
  <defs>
    <path d="M5 5.78125L5 4.21875C5 3.96094 5.21094 3.75 5.46875 3.75L7.03125 3.75C7.28906 3.75 7.5 3.96094 7.5 4.21875L7.5 5.78125C7.5 6.03906 7.28906 6.25 7.03125 6.25L5.46875 6.25C5.21094 6.25 5 6.03906 5 5.78125ZM10.4688 6.25L12.0313 6.25C12.2891 6.25 12.5 6.03906 12.5 5.78125L12.5 4.21875C12.5 3.96094 12.2891 3.75 12.0313 3.75L10.4688 3.75C10.2109 3.75 10 3.96094 10 4.21875L10 5.78125C10 6.03906 10.2109 6.25 10.4688 6.25ZM5.46875 10L7.03125 10C7.28906 10 7.5 9.78906 7.5 9.53125L7.5 7.96875C7.5 7.71094 7.28906 7.5 7.03125 7.5L5.46875 7.5C5.21094 7.5 5 7.71094 5 7.96875L5 9.53125C5 9.78906 5.21094 10 5.46875 10ZM10.4688 10L12.0313 10C12.2891 10 12.5 9.78906 12.5 9.53125L12.5 7.96875C12.5 7.71094 12.2891 7.5 12.0313 7.5L10.4688 7.5C10.2109 7.5 10 7.71094 10 7.96875L10 9.53125C10 9.78906 10.2109 10 10.4688 10ZM7.5 13.2813L7.5 11.7188C7.5 11.4609 7.28906 11.25 7.03125 11.25L5.46875 11.25C5.21094 11.25 5 11.4609 5 11.7188L5 13.2813C5 13.5391 5.21094 13.75 5.46875 13.75L7.03125 13.75C7.28906 13.75 7.5 13.5391 7.5 13.2813ZM10.4688 13.75L12.0313 13.75C12.2891 13.75 12.5 13.5391 12.5 13.2813L12.5 11.7188C12.5 11.4609 12.2891 11.25 12.0313 11.25L10.4688 11.25C10.2109 11.25 10 11.4609 10 11.7188L10 13.2813C10 13.5391 10.2109 13.75 10.4688 13.75ZM17.5 18.5938L17.5 20L0 20L0 18.5938C0 18.3359 0.210938 18.125 0.46875 18.125L1.23047 18.125L1.23047 0.9375C1.23047 0.417969 1.64844 0 2.16797 0L15.332 0C15.8516 0 16.2695 0.417969 16.2695 0.9375L16.2695 18.125L17.0313 18.125C17.2891 18.125 17.5 18.3359 17.5 18.5938ZM3.10547 18.0859L7.5 18.0859L7.5 15.4688C7.5 15.2109 7.71094 15 7.96875 15L9.53125 15C9.78906 15 10 15.2109 10 15.4688L10 18.0859L14.3945 18.0859L14.3945 1.91406L3.125 1.875L3.10547 18.0859Z" transform="translate(3.25 2)" id="path_1" />
    <clipPath id="mask_1">
      <use xlink:href="#path_1" />
    </clipPath>
  </defs>
  <g id="building">
    <path d="M5 5.78125L5 4.21875C5 3.96094 5.21094 3.75 5.46875 3.75L7.03125 3.75C7.28906 3.75 7.5 3.96094 7.5 4.21875L7.5 5.78125C7.5 6.03906 7.28906 6.25 7.03125 6.25L5.46875 6.25C5.21094 6.25 5 6.03906 5 5.78125ZM10.4688 6.25L12.0313 6.25C12.2891 6.25 12.5 6.03906 12.5 5.78125L12.5 4.21875C12.5 3.96094 12.2891 3.75 12.0313 3.75L10.4688 3.75C10.2109 3.75 10 3.96094 10 4.21875L10 5.78125C10 6.03906 10.2109 6.25 10.4688 6.25ZM5.46875 10L7.03125 10C7.28906 10 7.5 9.78906 7.5 9.53125L7.5 7.96875C7.5 7.71094 7.28906 7.5 7.03125 7.5L5.46875 7.5C5.21094 7.5 5 7.71094 5 7.96875L5 9.53125C5 9.78906 5.21094 10 5.46875 10ZM10.4688 10L12.0313 10C12.2891 10 12.5 9.78906 12.5 9.53125L12.5 7.96875C12.5 7.71094 12.2891 7.5 12.0313 7.5L10.4688 7.5C10.2109 7.5 10 7.71094 10 7.96875L10 9.53125C10 9.78906 10.2109 10 10.4688 10ZM7.5 13.2813L7.5 11.7188C7.5 11.4609 7.28906 11.25 7.03125 11.25L5.46875 11.25C5.21094 11.25 5 11.4609 5 11.7188L5 13.2813C5 13.5391 5.21094 13.75 5.46875 13.75L7.03125 13.75C7.28906 13.75 7.5 13.5391 7.5 13.2813ZM10.4688 13.75L12.0313 13.75C12.2891 13.75 12.5 13.5391 12.5 13.2813L12.5 11.7188C12.5 11.4609 12.2891 11.25 12.0313 11.25L10.4688 11.25C10.2109 11.25 10 11.4609 10 11.7188L10 13.2813C10 13.5391 10.2109 13.75 10.4688 13.75ZM17.5 18.5938L17.5 20L0 20L0 18.5938C0 18.3359 0.210938 18.125 0.46875 18.125L1.23047 18.125L1.23047 0.9375C1.23047 0.417969 1.64844 0 2.16797 0L15.332 0C15.8516 0 16.2695 0.417969 16.2695 0.9375L16.2695 18.125L17.0313 18.125C17.2891 18.125 17.5 18.3359 17.5 18.5938ZM3.10547 18.0859L7.5 18.0859L7.5 15.4688C7.5 15.2109 7.71094 15 7.96875 15L9.53125 15C9.78906 15 10 15.2109 10 15.4688L10 18.0859L14.3945 18.0859L14.3945 1.91406L3.125 1.875L3.10547 18.0859Z" transform="translate(3.25 2)" id="building" fill="none" stroke="none" />
    <g clip-path="url(#mask_1)">
      <path d="M0 0L24 0L24 24L0 24L0 0Z" id="🎨-color" fill="#32325D" fill-rule="evenodd" stroke="none" />
    </g>
  </g>
</svg>