<?xml version="1.0" encoding="UTF-8"?><svg width="12px" height="16px" viewBox="0 0 12 16" version="1.1" xmlns="http://www.w3.org/2000/svg" xmlns:xlink="http://www.w3.org/1999/xlink"> <title>755D2326-03DF-4F14-94F6-E6DC337CEFA7_rounded</title> <desc>Created with sketchtool.</desc> <defs> <path d="M9,1.69875008 C6.0975,1.69875008 3.75,4.04625 3.75,6.94874989 C3.75,10.0762498 7.065,14.3887496 8.43,16.0312496 C8.73,16.3912496 9.2775,16.3912496 9.5775,16.0312496 C10.935,14.3887496 14.25,10.0762498 14.25,6.94874989 C14.25,4.04625 11.9025,1.69875008 9,1.69875008 Z M9,8.82375008 C7.965,8.82375008 7.125,7.98375008 7.125,6.94875008 C7.125,5.91375008 7.965,5.07375008 9,5.07375008 C10.035,5.07375008 10.875,5.91375008 10.875,6.94875008 C10.875,7.98375008 10.035,8.82375008 9,8.82375008 Z" id="path-1"></path> </defs> <g id="Home" stroke="none" stroke-width="1" fill="#525F7F" fill-rule="evenodd"> <g id="Component" transform="translate(-141.000000, -947.000000)"> <g id="Group-16" transform="translate(123.000000, 885.000000)"> <g id="icon/communication/location_on_24px" transform="translate(15.000000, 61.000000)"> <mask id="mask-2" fill="white"> <use xlink:href="#path-1"></use> </mask> <g fill-rule="nonzero"></g> <g id="↳-Color" mask="url(#mask-2)" fill="#3282fd"> <rect id="Rectangle-3" x="0" y="0" width="18" height="18"></rect> </g> </g> </g> </g> </g></svg>