<svg xmlns="http://www.w3.org/2000/svg" xmlns:xlink="http://www.w3.org/1999/xlink" width="28" height="27" viewBox="0 0 28 27">
    <defs>
        <path id="a" d="M4.788 2.781h9.1a.356.356 0 0 1 .362.348v1.625a.356.356 0 0 1-.362.348h-9.1v1.335a.66.66 0 0 1-.211.494.711.711 0 0 1-.512.203.711.711 0 0 1-.513-.203L.961 4.435a.66.66 0 0 1-.211-.493.66.66 0 0 1 .21-.493L3.553.953A.711.711 0 0 1 4.065.75c.2 0 .371.068.512.203.14.136.21.3.21.493v1.335z"/>
    </defs>
    <use fill="#172B4D" fill-rule="nonzero" transform="translate(7 9)" xlink:href="#a"/>
</svg>
