<svg xmlns="http://www.w3.org/2000/svg" xmlns:xlink="http://www.w3.org/1999/xlink" width="28" height="28" viewBox="0 0 28 28"><defs><clipPath id="a"><path d="M1.167,14a1.167,1.167,0,0,1,0-2.333H19.833a1.167,1.167,0,0,1,0,2.333Zm0-5.833a1.167,1.167,0,1,1,0-2.333H19.833a1.167,1.167,0,0,1,0,2.333Zm0-5.834A1.167,1.167,0,0,1,1.167,0H19.833a1.167,1.167,0,0,1,0,2.333Z" fill="none"/></clipPath></defs><g transform="translate(3.5 7)"><path d="M1.167,14a1.167,1.167,0,0,1,0-2.333H19.833a1.167,1.167,0,0,1,0,2.333Zm0-5.833a1.167,1.167,0,1,1,0-2.333H19.833a1.167,1.167,0,0,1,0,2.333Zm0-5.834A1.167,1.167,0,0,1,1.167,0H19.833a1.167,1.167,0,0,1,0,2.333Z" fill="none"/><g clip-path="url(#a)"><g transform="translate(-3.5 -7)"><rect width="28" height="28" fill="#fff"/></g></g></g></svg>