<svg xmlns="http://www.w3.org/2000/svg" width="36" height="36" viewBox="0 0 36 36">
    <path fill="#3282FD" fill-rule="evenodd" d="M34.192 24.501c.47 2.819-.178 5.366-1.874 7.367C30.16 34.417 26.282 36 22.2 36h-8.4C9.407 36 6 31.162 6 27v-2.4c0-.36-1.084-.6-1.8-.6C1.766 24 0 22.234 0 19.8v-1.2c0-.331.268-.6.6-.6h4.8c.98 0 1.852.473 2.4 1.202.548-.73 1.42-1.202 2.4-1.202H15c.332 0 .6.269.6.6v1.2c0 2.395-1.806 4.2-4.2 4.2-.734.002-1.8.237-1.8.6V27c0 .567.482 1.57 1.29 2.268.48.415 1.258.88 2.223.738l3.589-.598c2-.25 3.445-1.024 4.322-2.303.907-1.325 1.153-3.15.734-5.303-1.257.623-2.724.998-4.358.998-.332 0-.6-.269-.6-.6 0-.331.268-.6.6-.6 4.597 0 7.8-3.478 7.8-6.6 0-1.033-.15-2.222-.343-3.326-.157-.464-.234-.916-.25-1.3-.18-.845-.357-1.555-.468-1.98-.048 0-.091.006-.139.006-.332 0-.6-.269-.6-.6 0-.331.268-.6.6-.6 4.428 0 6.679-3.3 6.7-3.333.184-.275.556-.351.833-.166.276.183.35.556.166.832-.095.143-2.188 3.191-6.344 3.766.106.41.246.985.391 1.657.034.075.054.156.054.242v.01c.079.374.157.774.23 1.187.309.841 1.038 1.805 2.77 1.805 3.56 0 3.6-5.346 3.6-5.4 0-.331.268-.6.6-.6.332 0 .6.269.6.6 0 2.283-1.003 6.6-4.8 6.6-1.047 0-1.85-.274-2.461-.692.038.442.061.877.061 1.292 0 2.274-1.325 4.639-3.554 6.161.601 2.652.322 4.938-.833 6.623-1.063 1.552-2.84 2.524-5.139 2.811l-3.576.597c-1.117.163-2.247-.198-3.193-1.016C9.1 29.308 8.4 28.002 8.4 27v-2.4c0-1.328 1.616-1.8 3-1.8 1.738 0 3-1.262 3-3v-.6h-4.2c-.992 0-1.8.808-1.8 1.8 0 .331-.268.6-.6.6-.332 0-.6-.269-.6-.6 0-.992-.808-1.8-1.8-1.8H1.2v.6c0 1.795 1.206 3 3 3 1.384 0 3 .472 3 1.8V27c0 4.393 3.548 7.8 6.6 7.8h8.4c3.74 0 7.265-1.42 9.203-3.707 1.481-1.749 2.02-3.9 1.605-6.394-.054-.327.167-.637.494-.69.327-.056.635.165.69.492zm-5.213-13.829c-.058.056-.156.12-.172.128-.036-.005-.121-.061-.17-.11-.223-.24-.6-.255-.843-.032-.244.224-.26.603-.036.847.075.083.481.495 1.042.495.522 0 .944-.397 1.024-.476.233-.233.233-.608.002-.842-.23-.235-.61-.238-.847-.01zM36 17.4c0-1.545-1.074-2.68-1.675-3.194.129-.303.269-.591.422-.882C35.335 12.214 36 10.954 36 7.8c0-3.62-.64-4.582-2.533-5.273C32.766.737 31.39 0 28.8 0c-5.574 0-8.4 2.423-8.4 7.2 0 1.28.163 2.5.32 3.68.446 3.341.798 5.981-2.48 8.44-.265.199-.32.575-.12.84.118.157.298.24.48.24.126 0 .252-.039.36-.12 3.841-2.88 3.408-6.125 2.95-9.56-.152-1.14-.31-2.32-.31-3.52 0-4.093 2.288-6 7.2-6 2.219 0 3.135.502 3.631 1.99.059.179.2.32.38.38 1.366.454 1.989.662 1.989 4.23 0 2.856-.566 3.928-1.114 4.964-.23.436-.469.887-.655 1.446-.624 1.871-.631 3.713-.631 3.79 0 .331.268.6.6.6.332 0 .6-.269.6-.6 0-.014.005-1.172.32-2.522.417.447.88 1.122.88 1.922 0 .36-.361.79-.744 1.245-.553.656-1.24 1.474-1.106 2.534.114.906.783 1.767 2.101 2.71.106.075.228.111.348.111.188 0 .372-.088.489-.251.193-.27.13-.645-.14-.837-.998-.714-1.54-1.348-1.607-1.883-.068-.54.37-1.06.833-1.611.505-.6 1.026-1.22 1.026-2.018zm-4.622 3.774c-.175.172-.543.426-.778.426s-.602-.254-.777-.425c-.235-.233-.613-.233-.847 0-.235.235-.235.615 0 .85.079.078.799.775 1.624.775.825 0 1.545-.697 1.624-.776.234-.233.234-.611 0-.846-.23-.234-.61-.236-.846-.004zm-4.8 0c-.175.172-.543.426-.778.426s-.602-.254-.777-.425c-.235-.233-.613-.233-.847 0-.235.235-.235.615 0 .85.079.078.799.775 1.624.775.825 0 1.545-.697 1.624-.776.234-.233.234-.611 0-.846-.23-.234-.61-.236-.846-.004z"/>
</svg>
