<svg xmlns="http://www.w3.org/2000/svg" xmlns:xlink="http://www.w3.org/1999/xlink" width="20" height="20" viewBox="0 0 20 20"><defs><clipPath id="a"><path d="M.008,1.667A1.664,1.664,0,0,1,1.667,0H15a1.671,1.671,0,0,1,1.667,1.667v10A1.671,1.671,0,0,1,15,13.333H3.333L0,16.667Z" fill="none"/></clipPath></defs><g transform="translate(1.667 1.667)"><path d="M.008,1.667A1.664,1.664,0,0,1,1.667,0H15a1.671,1.671,0,0,1,1.667,1.667v10A1.671,1.671,0,0,1,15,13.333H3.333L0,16.667Z" fill="none"/><g clip-path="url(#a)"><g transform="translate(-1.667 -1.667)"><rect width="20" height="20" fill="#172b4d"/></g></g></g></svg>