<?xml version="1.0" encoding="UTF-8"?>
<svg width="18px" height="18px" viewBox="0 0 18 18" version="1.1" xmlns="http://www.w3.org/2000/svg" xmlns:xlink="http://www.w3.org/1999/xlink">
    <title>icon/mesajlarım</title>
    <defs>
        <path d="M4,0 L259,0 C261.209139,-4.05812251e-16 263,1.790861 263,4 L263,1029 C263,1031.20914 261.209139,1033 259,1033 L4,1033 C1.790861,1033 2.705415e-16,1031.20914 0,1029 L0,4 C-2.705415e-16,1.790861 1.790861,4.05812251e-16 4,0 Z" id="path-1"></path>
        <filter x="-9.5%" y="-1.9%" width="119.0%" height="104.8%" filterUnits="objectBoundingBox" id="filter-2">
            <feOffset dx="0" dy="15" in="SourceAlpha" result="shadowOffsetOuter1"></feOffset>
            <feGaussianBlur stdDeviation="2" in="shadowOffsetOuter1" result="shadowBlurOuter1"></feGaussianBlur>
            <feColorMatrix values="0 0 0 0 0.196078431   0 0 0 0 0.196078431   0 0 0 0 0.364705882  0 0 0 0.01 0" type="matrix" in="shadowBlurOuter1" result="shadowMatrixOuter1"></feColorMatrix>
            <feOffset dx="0" dy="5" in="SourceAlpha" result="shadowOffsetOuter2"></feOffset>
            <feGaussianBlur stdDeviation="7.5" in="shadowOffsetOuter2" result="shadowBlurOuter2"></feGaussianBlur>
            <feColorMatrix values="0 0 0 0 0   0 0 0 0 0   0 0 0 0 0  0 0 0 0.07 0" type="matrix" in="shadowBlurOuter2" result="shadowMatrixOuter2"></feColorMatrix>
            <feMerge>
                <feMergeNode in="shadowMatrixOuter1"></feMergeNode>
                <feMergeNode in="shadowMatrixOuter2"></feMergeNode>
            </feMerge>
        </filter>
        <path d="M16.6666667,1.66666667 L3.33333333,1.66666667 C2.41666667,1.66666667 1.675,2.41666667 1.675,3.33333333 L1.66666667,18.3333333 L5,15 L16.6666667,15 C17.5833333,15 18.3333333,14.25 18.3333333,13.3333333 L18.3333333,3.33333333 C18.3333333,2.41666667 17.5833333,1.66666667 16.6666667,1.66666667 Z M14.1666667,11.6666667 L5.83333333,11.6666667 C5.375,11.6666667 5,11.2916667 5,10.8333333 C5,10.375 5.375,10 5.83333333,10 L14.1666667,10 C14.625,10 15,10.375 15,10.8333333 C15,11.2916667 14.625,11.6666667 14.1666667,11.6666667 Z M14.1666667,9.16666667 L5.83333333,9.16666667 C5.375,9.16666667 5,8.79166667 5,8.33333333 C5,7.875 5.375,7.5 5.83333333,7.5 L14.1666667,7.5 C14.625,7.5 15,7.875 15,8.33333333 C15,8.79166667 14.625,9.16666667 14.1666667,9.16666667 Z M14.1666667,6.66666667 L5.83333333,6.66666667 C5.375,6.66666667 5,6.29166667 5,5.83333333 C5,5.375 5.375,5 5.83333333,5 L14.1666667,5 C14.625,5 15,5.375 15,5.83333333 C15,6.29166667 14.625,6.66666667 14.1666667,6.66666667 Z" id="path-3"></path>
    </defs>
    <g id="Maviyyo-Paneli" stroke="none" stroke-width="1" fill="none" fill-rule="evenodd">
        <g id="1GÖSTERGE-PANELİ" transform="translate(-207.000000, -437.000000)">
            <rect fill="#F6F9FC" x="0" y="0" width="1440" height="1637"></rect>
            <g id="Profil_Sol-Menü" transform="translate(150.000000, 117.000000)">
                <g id="Profil-Menü-Arka-Zemin" fill-rule="nonzero">
                    <use fill="black" fill-opacity="1" filter="url(#filter-2)" xlink:href="#path-1"></use>
                    <use fill="#FFFFFF" xlink:href="#path-1"></use>
                </g>
                <g id="Menü-Genel" transform="translate(56.000000, 219.000000)">
                    <g id="icon/communication/message_24px" transform="translate(0.000000, 100.000000)">
                        <mask id="mask-4" fill="white">
                            <use xlink:href="#path-3"></use>
                        </mask>
                        <g fill-rule="nonzero"></g>
                        <g id="Group" mask="url(#mask-4)" fill="#172B4D">
                            <g id="↳-Color">
                                <rect id="Rectangle" x="0" y="0" width="20" height="20"></rect>
                            </g>
                        </g>
                    </g>
                </g>
            </g>
        </g>
    </g>
</svg>