<svg xmlns="http://www.w3.org/2000/svg" width="20" height="15" viewBox="0 0 20 15">
    <path fill="#3282FD" d="M17.332 6.55c.664 0 1.238-.167 1.821-.462v6.957c0 .038.012.075.009.112l-5.842-5.45 1.872-1.804c.616.408 1.348.647 2.14.647zm-3.048-1.496c-.523-.666-.837-1.505-.837-2.414 0-.676.175-1.294.479-1.877H1.374c-.332 0-.635.125-.869.328l9.093 8.471 4.686-4.508zM0 2.354v10.69c0 .121.031.238.06.35l5.801-5.587L0 2.353zm10.037 8.518c-.12.116-.276.174-.433.174-.152 0-.305-.055-.425-.167L6.797 8.66.904 14.33c.146.056.304.089.47.089h16.46c.244 0 .471-.068.668-.183l-6.077-5.661-2.388 2.297zM20 2.65c0 1.461-1.19 2.65-2.651 2.65-1.462 0-2.65-1.189-2.65-2.65 0-1.462 1.188-2.651 2.65-2.651S20 1.189 20 2.65zm-2.068 1.526c0-.165-.067-.325-.184-.441-.115-.117-.276-.183-.44-.183-.165 0-.326.066-.442.183-.117.116-.183.277-.183.441 0 .164.066.325.183.441.116.117.277.184.441.184.165 0 .326-.067.441-.184.117-.115.184-.276.184-.44zm-.028-2.997c0-.345-.28-.625-.624-.625-.345 0-.625.28-.625.625v1.332c0 .345.28.624.625.624s.624-.28.624-.624V1.18z"/>
</svg>
