<svg xmlns="http://www.w3.org/2000/svg" width="22" height="19" viewBox="0 0 22 19">
    <g fill="#3282FD">
        <path d="M16.524 8.105c-2.95 0-5.35 2.404-5.35 5.36 0 2.955 2.4 5.36 5.35 5.36 2.95 0 5.35-2.405 5.35-5.36 0-2.956-2.4-5.36-5.35-5.36zm2.251 6.02h-2.293c-.341 0-.618-.277-.618-.619V11.21c0-.342.277-.62.618-.62.342 0 .619.278.619.62v1.678h1.674c.342 0 .618.277.618.62 0 .341-.276.619-.618.619zM7.046 4.706l1.206-.513c.147-.062.313-.062.46 0l1.205.513V0h-2.87v4.706z"/>
        <path d="M15.095 6.824c.649 0 1.276.092 1.869.264V1.516C16.964.68 16.274 0 15.427 0h-4.186v5.73c0 .207-.104.4-.278.514-.105.069-.225.103-.347.103-.082 0-.164-.015-.242-.047l-1.892-.782-1.893.782c-.193.08-.414.059-.588-.056-.174-.114-.279-.307-.279-.513V0H1.537C.689 0 0 .68 0 1.516v13.701c0 .836.69 1.516 1.537 1.516h7.822c-.588-.979-.926-2.12-.926-3.338 0-3.623 2.989-6.57 6.662-6.57z"/>
    </g>
</svg>
