<?xml version="1.0" encoding="UTF-8"?>
<svg width="20px" height="12px" viewBox="0 0 20 12" version="1.1" xmlns="http://www.w3.org/2000/svg" xmlns:xlink="http://www.w3.org/1999/xlink">
    <!-- Generator: sketchtool 52.5 (67469) - http://www.bohemiancoding.com/sketch -->
    <title>E313D0E9-BC77-4951-95AA-0C1B2EFF9022_rounded</title>
    <desc>Created with sketchtool.</desc>
    <defs>
        <path d="M13.3333332,9.16666667 C14.7166665,9.16666667 15.8249998,8.05 15.8249998,6.66666667 C15.8249998,5.28333333 14.7166665,4.16666667 13.3333332,4.16666667 C11.95,4.16666667 10.8333333,5.28333333 10.8333333,6.66666667 C10.8333333,8.05 11.95,9.16666667 13.3333332,9.16666667 Z M6.66666657,9.16666667 C8.04999985,9.16666667 9.15833314,8.05 9.15833314,6.66666667 C9.15833314,5.28333333 8.04999985,4.16666667 6.66666657,4.16666667 C5.28333329,4.16666667 4.16666667,5.28333333 4.16666667,6.66666667 C4.16666667,8.05 5.28333329,9.16666667 6.66666657,9.16666667 Z M6.66666667,10.8333333 C4.725,10.8333333 0.833333333,11.8083333 0.833333333,13.75 L0.833333333,15 C0.833333333,15.4583333 1.20833333,15.8333333 1.66666667,15.8333333 L11.6666667,15.8333333 C12.125,15.8333333 12.5,15.4583333 12.5,15 L12.5,13.75 C12.5,11.8083333 8.60833333,10.8333333 6.66666667,10.8333333 Z M13.3333331,10.8333333 C13.0916664,10.8333333 12.8166664,10.85 12.5249998,10.875 C12.5416664,10.8833333 12.5499998,10.9 12.5583331,10.9083333 C13.5083331,11.6 14.1666664,12.525 14.1666664,13.75 L14.1666664,15 C14.1666664,15.2916667 14.1083331,15.575 14.0166664,15.8333333 L18.333333,15.8333333 C18.7916663,15.8333333 19.1666663,15.4583333 19.1666663,15 L19.1666663,13.75 C19.1666663,11.8083333 15.2749997,10.8333333 13.3333331,10.8333333 Z" id="path-1"></path>
    </defs>
    <g id="Home" stroke="none" stroke-width="1" fill="none" fill-rule="evenodd">
        <g id="Component" transform="translate(-1294.000000, -902.000000)">
            <g id="Group-18" transform="translate(1082.000000, 885.000000)">
                <g id="icon/social/people_24px" transform="translate(212.000000, 13.000000)">
                    <mask id="mask-2" fill="white">
                        <use xlink:href="#path-1"></use>
                    </mask>
                    <g fill-rule="nonzero"></g>
                    <g id="↳-Color" mask="url(#mask-2)" fill="#525F7F">
                        <rect id="Rectangle-3" x="0" y="0" width="20" height="20"></rect>
                    </g>
                </g>
            </g>
        </g>
    </g>
</svg>