<svg id="telephone-handle-silhouette" xmlns="http://www.w3.org/2000/svg" width="23" height="22.081" viewBox="0 0 23 22.081">
    <path id="Path" d="M22.951,17.109q-.1-.282-1.241-.831-.31-.173-.882-.471t-1.037-.549q-.466-.251-.874-.486-.065-.047-.408-.275a4.633,4.633,0,0,0-.58-.337,1.106,1.106,0,0,0-.466-.11,1.373,1.373,0,0,0-.816.447,7.746,7.746,0,0,0-.9.973,9.57,9.57,0,0,1-.865.972,1.256,1.256,0,0,1-.752.447,1.151,1.151,0,0,1-.368-.078c-.147-.052-.259-.1-.335-.133s-.206-.11-.392-.22-.289-.17-.311-.18a17.138,17.138,0,0,1-3.839-2.729A16.537,16.537,0,0,1,6.044,9.864q-.016-.031-.188-.3t-.229-.376a3.325,3.325,0,0,1-.139-.321,1.025,1.025,0,0,1-.082-.353q0-.282.466-.721a9.744,9.744,0,0,1,1.013-.831A7.856,7.856,0,0,0,7.9,6.1a1.288,1.288,0,0,0,.466-.784.991.991,0,0,0-.114-.447A4.328,4.328,0,0,0,7.9,4.312q-.237-.329-.286-.392-.245-.392-.506-.839t-.572-1q-.31-.549-.49-.847Q5.473.141,5.179.047A.95.95,0,0,0,4.836,0,5.593,5.593,0,0,0,3.684.157,6.668,6.668,0,0,0,2.565.486,4.27,4.27,0,0,0,.833,2.4,5.894,5.894,0,0,0,0,5.316a5.818,5.818,0,0,0,.057.823,6.533,6.533,0,0,0,.2.9q.147.5.237.745t.335.87q.245.627.294.768a13.961,13.961,0,0,0,1.356,2.744A23.463,23.463,0,0,0,6,16.317a24.073,24.073,0,0,0,4.321,3.38A15.1,15.1,0,0,0,13.183,21q.147.047.8.282t.907.321q.253.086.776.228a7.367,7.367,0,0,0,.939.2,6.653,6.653,0,0,0,.858.055,6.54,6.54,0,0,0,3.039-.8,4.319,4.319,0,0,0,1.992-1.663,6,6,0,0,0,.343-1.074A4.962,4.962,0,0,0,23,17.439.843.843,0,0,0,22.951,17.109Z" fill="#172b4d"/>
</svg>
