<?xml version="1.0" encoding="utf-8"?>
<svg width="24px" height="24px" viewbox="0 0 24 24" version="1.1" xmlns:xlink="http://www.w3.org/1999/xlink" xmlns="http://www.w3.org/2000/svg">
  <defs>
    <path d="M18.125 0L1.875 0C0.839453 0 0 0.839453 0 1.875L0 13.125C0 14.1605 0.839453 15 1.875 15L18.125 15C19.1605 15 20 14.1605 20 13.125L20 1.875C20 0.839453 19.1605 0 18.125 0ZM17.8906 13.125L2.10938 13.125C1.97993 13.125 1.875 13.0201 1.875 12.8906L1.875 2.10938C1.875 1.97993 1.97993 1.875 2.10938 1.875L17.8906 1.875C18.0201 1.875 18.125 1.97993 18.125 2.10938L18.125 12.8906C18.125 13.0201 18.0201 13.125 17.8906 13.125L17.8906 13.125ZM5 3.4375C4.13707 3.4375 3.4375 4.13707 3.4375 5C3.4375 5.86293 4.13707 6.5625 5 6.5625C5.86293 6.5625 6.5625 5.86293 6.5625 5C6.5625 4.13707 5.86293 3.4375 5 3.4375ZM3.75 11.25L16.25 11.25L16.25 8.125L12.8314 4.70645C12.6484 4.5234 12.3516 4.5234 12.1685 4.70645L7.5 9.375L5.95645 7.83145C5.7734 7.6484 5.4766 7.6484 5.29352 7.83145L3.75 9.375L3.75 11.25Z" transform="translate(2 4.5)" id="path_1" />
    <clipPath id="mask_1">
      <use xlink:href="#path_1" />
    </clipPath>
  </defs>
  <g id="image">
    <path d="M18.125 0L1.875 0C0.839453 0 0 0.839453 0 1.875L0 13.125C0 14.1605 0.839453 15 1.875 15L18.125 15C19.1605 15 20 14.1605 20 13.125L20 1.875C20 0.839453 19.1605 0 18.125 0ZM17.8906 13.125L2.10938 13.125C1.97993 13.125 1.875 13.0201 1.875 12.8906L1.875 2.10938C1.875 1.97993 1.97993 1.875 2.10938 1.875L17.8906 1.875C18.0201 1.875 18.125 1.97993 18.125 2.10938L18.125 12.8906C18.125 13.0201 18.0201 13.125 17.8906 13.125L17.8906 13.125ZM5 3.4375C4.13707 3.4375 3.4375 4.13707 3.4375 5C3.4375 5.86293 4.13707 6.5625 5 6.5625C5.86293 6.5625 6.5625 5.86293 6.5625 5C6.5625 4.13707 5.86293 3.4375 5 3.4375ZM3.75 11.25L16.25 11.25L16.25 8.125L12.8314 4.70645C12.6484 4.5234 12.3516 4.5234 12.1685 4.70645L7.5 9.375L5.95645 7.83145C5.7734 7.6484 5.4766 7.6484 5.29352 7.83145L3.75 9.375L3.75 11.25Z" transform="translate(2 4.5)" id="image" fill="none" stroke="none" />
    <g clip-path="url(#mask_1)">
      <path d="M0 0L24 0L24 24L0 24L0 0Z" id="🎨-color" fill="#32325D" fill-rule="evenodd" stroke="none" />
    </g>
  </g>
</svg>