<?xml version="1.0" encoding="utf-8"?>
<svg width="24px" height="24px" viewbox="0 0 24 24" version="1.1" xmlns:xlink="http://www.w3.org/1999/xlink" xmlns="http://www.w3.org/2000/svg">
  <defs>
    <path d="M10 2.5C8.34313 2.5 7 4.06687 7 6C7 7.93281 8.34313 9.5 10 9.5C11.6563 9.5 13 7.93344 13 6C13 4.06687 11.6569 2.5 10 2.5ZM11.25 7.75C11.25 7.88812 11.1381 8 11 8L9 8C8.86187 8 8.75 7.88812 8.75 7.75L8.75 7.25C8.75 7.11188 8.86187 7 9 7L9.5 7L9.5 5.2675L9.48531 5.27719C9.43017 5.31399 9.36266 5.32736 9.29765 5.31434C9.23264 5.30133 9.17548 5.26301 9.13875 5.20781L8.86125 4.79187C8.82445 4.73673 8.81108 4.66922 8.82409 4.60421C8.83711 4.53921 8.87543 4.48204 8.93062 4.44531L9.40969 4.12594C9.53286 4.04381 9.67759 3.99999 9.82562 4L10.25 4C10.3881 4 10.5 4.11188 10.5 4.25L10.5 7L11 7C11.1381 7 11.25 7.11188 11.25 7.25L11.25 7.75L11.25 7.75ZM19 0L1 0C0.447812 0 0 0.447812 0 1L0 11C0 11.5522 0.447812 12 1 12L19 12C19.5522 12 20 11.5522 20 11L20 1C20 0.447812 19.5522 0 19 0ZM18.5 8.5C17.3953 8.5 16.5 9.39531 16.5 10.5L3.5 10.5C3.5 9.39531 2.60469 8.5 1.5 8.5L1.5 3.5C2.60469 3.5 3.5 2.60469 3.5 1.5L16.5 1.5C16.5 2.60469 17.3953 3.5 18.5 3.5L18.5 8.5Z" transform="translate(2 6)" id="path_1" />
    <clipPath id="mask_1">
      <use xlink:href="#path_1" />
    </clipPath>
  </defs>
  <g id="money-bill-alt">
    <path d="M10 2.5C8.34313 2.5 7 4.06687 7 6C7 7.93281 8.34313 9.5 10 9.5C11.6563 9.5 13 7.93344 13 6C13 4.06687 11.6569 2.5 10 2.5ZM11.25 7.75C11.25 7.88812 11.1381 8 11 8L9 8C8.86187 8 8.75 7.88812 8.75 7.75L8.75 7.25C8.75 7.11188 8.86187 7 9 7L9.5 7L9.5 5.2675L9.48531 5.27719C9.43017 5.31399 9.36266 5.32736 9.29765 5.31434C9.23264 5.30133 9.17548 5.26301 9.13875 5.20781L8.86125 4.79187C8.82445 4.73673 8.81108 4.66922 8.82409 4.60421C8.83711 4.53921 8.87543 4.48204 8.93062 4.44531L9.40969 4.12594C9.53286 4.04381 9.67759 3.99999 9.82562 4L10.25 4C10.3881 4 10.5 4.11188 10.5 4.25L10.5 7L11 7C11.1381 7 11.25 7.11188 11.25 7.25L11.25 7.75L11.25 7.75ZM19 0L1 0C0.447812 0 0 0.447812 0 1L0 11C0 11.5522 0.447812 12 1 12L19 12C19.5522 12 20 11.5522 20 11L20 1C20 0.447812 19.5522 0 19 0ZM18.5 8.5C17.3953 8.5 16.5 9.39531 16.5 10.5L3.5 10.5C3.5 9.39531 2.60469 8.5 1.5 8.5L1.5 3.5C2.60469 3.5 3.5 2.60469 3.5 1.5L16.5 1.5C16.5 2.60469 17.3953 3.5 18.5 3.5L18.5 8.5Z" transform="translate(2 6)" id="money-bill-alt" fill="none" stroke="none" />
    <g clip-path="url(#mask_1)">
      <path d="M0 0L24 0L24 24L0 24L0 0Z" id="🎨-color" fill="#32325D" fill-rule="evenodd" stroke="none" />
    </g>
  </g>
</svg>