<?xml version="1.0" encoding="utf-8"?>
<svg width="24px" height="24px" viewbox="0 0 24 24" version="1.1" xmlns:xlink="http://www.w3.org/1999/xlink" xmlns="http://www.w3.org/2000/svg">
  <defs>
    <path d="M15.625 2.5L13.75 2.5L13.75 0.46875C13.75 0.209883 13.5401 0 13.2813 0L11.7188 0C11.4599 0 11.25 0.209883 11.25 0.46875L11.25 2.5L6.25 2.5L6.25 0.46875C6.25 0.209883 6.04012 0 5.78125 0L4.21875 0C3.95988 0 3.75 0.209883 3.75 0.46875L3.75 2.5L1.875 2.5C0.839453 2.5 0 3.33945 0 4.375L0 18.125C0 19.1605 0.839453 20 1.875 20L15.625 20C16.6605 20 17.5 19.1605 17.5 18.125L17.5 4.375C17.5 3.33945 16.6605 2.5 15.625 2.5ZM15.3906 18.125L2.10938 18.125C1.97993 18.125 1.875 18.0201 1.875 17.8906L1.875 6.25L15.625 6.25L15.625 17.8906C15.625 18.0201 15.5201 18.125 15.3906 18.125ZM13.3262 10.2871L7.76727 15.8015C7.58348 15.9838 7.28668 15.9827 7.10434 15.7989L4.17109 12.8419C3.98879 12.6581 3.98996 12.3613 4.17375 12.1789L5.06121 11.2986C5.245 11.1163 5.5418 11.1175 5.7241 11.3013L7.44691 13.0381L11.7857 8.73414C11.9695 8.55184 12.2663 8.55301 12.4486 8.7368L13.3289 9.62422C13.5112 9.80801 13.51 10.1048 13.3262 10.2871Z" transform="translate(3.25 2)" id="path_1" />
    <clipPath id="mask_1">
      <use xlink:href="#path_1" />
    </clipPath>
  </defs>
  <g id="calendar-check">
    <path d="M15.625 2.5L13.75 2.5L13.75 0.46875C13.75 0.209883 13.5401 0 13.2813 0L11.7188 0C11.4599 0 11.25 0.209883 11.25 0.46875L11.25 2.5L6.25 2.5L6.25 0.46875C6.25 0.209883 6.04012 0 5.78125 0L4.21875 0C3.95988 0 3.75 0.209883 3.75 0.46875L3.75 2.5L1.875 2.5C0.839453 2.5 0 3.33945 0 4.375L0 18.125C0 19.1605 0.839453 20 1.875 20L15.625 20C16.6605 20 17.5 19.1605 17.5 18.125L17.5 4.375C17.5 3.33945 16.6605 2.5 15.625 2.5ZM15.3906 18.125L2.10938 18.125C1.97993 18.125 1.875 18.0201 1.875 17.8906L1.875 6.25L15.625 6.25L15.625 17.8906C15.625 18.0201 15.5201 18.125 15.3906 18.125ZM13.3262 10.2871L7.76727 15.8015C7.58348 15.9838 7.28668 15.9827 7.10434 15.7989L4.17109 12.8419C3.98879 12.6581 3.98996 12.3613 4.17375 12.1789L5.06121 11.2986C5.245 11.1163 5.5418 11.1175 5.7241 11.3013L7.44691 13.0381L11.7857 8.73414C11.9695 8.55184 12.2663 8.55301 12.4486 8.7368L13.3289 9.62422C13.5112 9.80801 13.51 10.1048 13.3262 10.2871Z" transform="translate(3.25 2)" id="calendar-check" fill="none" stroke="none" />
    <g clip-path="url(#mask_1)">
      <path d="M0 0L24 0L24 24L0 24L0 0Z" id="🎨-color" fill="#32325D" fill-rule="evenodd" stroke="none" />
    </g>
  </g>
</svg>