<?xml version="1.0" encoding="UTF-8"?>
<svg width="36px" height="36px" viewBox="0 0 36 36" version="1.1" xmlns="http://www.w3.org/2000/svg" xmlns:xlink="http://www.w3.org/1999/xlink">
    <!-- Generator: sketchtool 52.6 (67491) - http://www.bohemiancoding.com/sketch -->
    <title>844F34B4-5D2F-4E60-98FD-E6A937ED546A</title>
    <desc>Created with sketchtool.</desc>
    <g id="Home" stroke="none" stroke-width="1" fill="none" fill-rule="evenodd">
        <g transform="translate(-164.000000, -4975.000000)" fill="#3282FD" id="Group-15">
            <g transform="translate(150.000000, 4767.000000)">
                <g id="Group-13" transform="translate(0.000000, 194.000000)">
                    <g id="ICON">
                        <path d="M49.9826,49.2554 C50.036,49.5824 49.8152,49.8908 49.4882,49.9454 C49.2674,49.9814 49.0364,50 48.8,50 C47.6132,50 46.85,49.55 46.4,49.1384 C45.95,49.55 45.1868,50 44,50 C42.8132,50 42.05,49.55 41.6,49.1384 C41.15,49.55 40.3868,50 39.2,50 C38.0126,50 37.25,49.55 36.8,49.1384 C36.35,49.55 35.5868,50 34.4,50 C33.2132,50 32.45,49.55 32,49.1384 C31.55,49.55 30.7874,50 29.6,50 C28.4126,50 27.65,49.55 27.2,49.1384 C26.75,49.55 25.9874,50 24.8,50 C23.6126,50 22.85,49.55 22.4,49.1384 C21.95,49.55 21.1874,50 20,50 C18.8126,50 18.05,49.55 17.6,49.1384 C17.15,49.55 16.3874,50 15.2,50 C14.9606,50 14.741,49.9814 14.5094,49.9424 C14.1824,49.8866 13.9622,49.577 14.018,49.2506 C14.0732,48.9236 14.3798,48.704 14.7098,48.7592 C14.876,48.7874 15.0272,48.8 15.2,48.8 C16.5788,48.8 17.048,47.9594 17.0672,47.924 C17.174,47.7266 17.3702,47.6012 17.6072,47.6042 C17.831,47.6078 18.0362,47.7314 18.1364,47.9318 C18.152,47.9594 18.6212,48.8 20,48.8 C21.3788,48.8 21.848,47.9594 21.8672,47.924 C21.974,47.7266 22.1702,47.6012 22.4072,47.6042 C22.631,47.6078 22.8362,47.7314 22.937,47.9318 C22.952,47.9594 23.4212,48.8 24.8,48.8 C26.1788,48.8 26.648,47.9594 26.6672,47.924 C26.774,47.7266 26.9696,47.6012 27.2072,47.6042 C27.431,47.6078 27.6362,47.7314 27.7364,47.9318 C27.752,47.9594 28.2212,48.8 29.6,48.8 C30.9788,48.8 31.448,47.9594 31.4672,47.924 C31.574,47.7266 31.7696,47.6012 32.0072,47.6042 C32.231,47.6078 32.4368,47.7314 32.5364,47.9318 C32.552,47.9594 33.0206,48.8 34.4,48.8 C35.7794,48.8 36.248,47.9594 36.2672,47.924 C36.3734,47.7266 36.581,47.6072 36.8072,47.6042 C37.031,47.6078 37.2368,47.7314 37.337,47.9318 C37.352,47.9594 37.8206,48.8 39.2,48.8 C40.5794,48.8 41.048,47.9594 41.0672,47.924 C41.174,47.7266 41.3702,47.6072 41.6072,47.6042 C41.831,47.6078 42.0362,47.7314 42.1364,47.9318 C42.152,47.9594 42.6206,48.8 44,48.8 C45.3794,48.8 45.848,47.9594 45.8672,47.924 C45.9734,47.7266 46.1828,47.6072 46.4072,47.6042 C46.631,47.6078 46.8368,47.7314 46.9364,47.9318 C46.952,47.9594 47.4206,48.8 48.8,48.8 C48.971,48.8 49.1366,48.7868 49.2926,48.761 C49.625,48.7094 49.9292,48.9284 49.9826,49.2554 L49.9826,49.2554 Z M49.4,29.6 L47,29.6 C45.374,29.6 44,30.974 44,32.6 L44,35 C44,36.626 42.626,38 41,38 L18.7994,38 C18.587,38 18.3908,37.64 18.1364,37.1318 C17.8136,36.4856 17.3708,35.6 16.4,35.6 L14.6,35.6 C14.2688,35.6 14,35.8688 14,36.2 L14,41 C14,43.8974 15.3542,45.0236 17.267,46.2992 C17.5424,46.4828 17.915,46.4084 18.0992,46.133 C18.2828,45.857 18.2084,45.4844 17.933,45.3008 C16.1876,44.1368 15.2,43.3634 15.2,41 L15.2,36.8 L16.4,36.8 C16.6124,36.8 16.8092,37.16 17.063,37.6682 C17.3864,38.3144 17.8292,39.2 18.7994,39.2 L41,39.2 C43.2764,39.2 45.2,37.2764 45.2,35 L45.2,32.6 C45.2,31.6412 46.0412,30.8 47,30.8 L48.8,30.8 L48.8,31.9172 C48.7346,31.9616 48.6158,32.021 48.5318,32.063 C48.1832,32.2376 47.6,32.5292 47.6,33.2 L47.6,38.6 C47.6,43.0292 45.5294,44.0642 43.1318,45.263 C42.8354,45.4112 42.7148,45.7718 42.863,46.0682 C42.9686,46.2788 43.1804,46.4 43.4006,46.4 C43.4906,46.4 43.5824,46.3796 43.6682,46.3364 C46.0736,45.134 48.8,43.7708 48.8,38.6 L48.8,33.2828 C48.8654,33.2378 48.9842,33.179 49.0682,33.1364 C49.4168,32.9624 50,32.6708 50,32 L50,30.2 C50,29.8688 49.7318,29.6 49.4,29.6 L49.4,29.6 Z M21.3008,16.133 C21.1778,15.9488 21.1664,15.7118 21.2708,15.5168 C21.3758,15.3218 21.5786,15.2 21.8,15.2 L28.4,15.2 L28.4,14.6 C28.4,14.2688 28.6688,14 29,14 C29.3312,14 29.6,14.2688 29.6,14.6 L29.6,15.2 L33.8,15.2 C34.1318,15.2 34.4,15.4688 34.4,15.8 C34.4,16.1312 34.1318,16.4 33.8,16.4 L33.6206,16.4 C34.3544,17.8634 35.6,20.9912 35.6,25.4 C35.6,29.8088 34.3544,32.9366 33.6206,34.4 L35.8604,34.4 C36.3818,33.4778 38,30.2276 38,25.4 C38,19.6484 35.7236,16.1672 35.7008,16.133 C35.5166,15.857 35.591,15.4844 35.867,15.3008 C36.143,15.116 36.515,15.1916 36.6992,15.467 C36.8012,15.6206 39.2,19.2884 39.2,25.4 C39.2,31.511 36.8012,35.1794 36.6992,35.333 C36.5882,35.4998 36.4004,35.6 36.2,35.6 L29.6,35.6 L29.6,36.2 C29.6,36.5312 29.3312,36.8 29,36.8 C28.6688,36.8 28.4,36.5312 28.4,36.2 L28.4,35.6 L24.2,35.6 C23.8688,35.6 23.6,35.3312 23.6,35 C23.6,34.6688 23.8688,34.4 24.2,34.4 L25.0592,34.4 C25.5746,33.491 27.2,30.2444 27.2,25.4 C27.2,20.5352 25.5764,17.3048 25.0604,16.4 L22.8224,16.4 C23.5568,17.8676 24.8,21.0008 24.8,25.4 C24.8,31.511 22.4012,35.1794 22.2992,35.333 C22.184,35.5058 21.9938,35.5994 21.8,35.5994 C21.686,35.5994 21.5708,35.567 21.4682,35.4992 C21.1928,35.3162 21.1178,34.9442 21.3002,34.6682 C21.323,34.6334 23.6,31.1258 23.6,25.4 C23.6,19.6484 21.3236,16.1672 21.3008,16.133 L21.3008,16.133 Z M26.4206,34.4 L28.6592,34.4 C29.1746,33.491 30.8,30.2444 30.8,25.4 C30.8,20.5352 29.1764,17.3048 28.6604,16.4 L26.4206,16.4 C27.1544,17.8634 28.4,20.9912 28.4,25.4 C28.4,29.8088 27.1544,32.9366 26.4206,34.4 L26.4206,34.4 Z M32.2604,16.4 L30.0206,16.4 C30.7544,17.8634 32,20.9912 32,25.4 C32,29.8088 30.7544,32.9366 30.0206,34.4 L32.2592,34.4 C32.7746,33.491 34.4,30.2444 34.4,25.4 C34.4,20.5352 32.7764,17.3048 32.2604,16.4 L32.2604,16.4 Z M27.0242,40.5758 C27.2588,40.8104 27.2588,41.1896 27.0242,41.4242 L25.22,43.2284 C25.334,43.4672 25.4,43.7276 25.4,44 C25.4,44.4806 25.2128,44.933 24.8726,45.2732 L24.2726,45.8726 C23.933,46.2128 23.4806,46.4 23,46.4 C22.5194,46.4 22.067,46.2128 21.7268,45.8726 C21.3872,45.533 21.2,45.0806 21.2,44.6 C21.2,44.1194 21.3872,43.667 21.7274,43.3268 L22.3274,42.7274 C22.8596,42.1952 23.6984,42.0854 24.365,42.386 L26.1758,40.5758 C26.4104,40.3412 26.7896,40.3412 27.0242,40.5758 L27.0242,40.5758 Z M24.2,44 C24.2,43.8512 24.1412,43.7132 24.0428,43.6034 C24.0344,43.5962 24.023,43.5932 24.0146,43.5854 C24.0068,43.577 24.0038,43.5656 23.9966,43.5572 C23.8862,43.4588 23.7488,43.4 23.6,43.4 C23.4398,43.4 23.2892,43.4624 23.1758,43.5758 L22.5758,44.1758 C22.4624,44.2892 22.4,44.4398 22.4,44.6 C22.4,44.7602 22.4624,44.9108 22.5758,45.0236 C22.8026,45.251 23.198,45.251 23.4236,45.0242 L24.0242,44.4242 C24.1376,44.3108 24.2,44.1602 24.2,44 L24.2,44 Z M33.0242,40.5758 C33.2588,40.8104 33.2588,41.1896 33.0242,41.4242 L31.22,43.2284 C31.334,43.4672 31.4,43.7276 31.4,44 C31.4,44.4806 31.2128,44.933 30.8726,45.2732 L30.2726,45.8726 C29.933,46.2128 29.4806,46.4 29,46.4 C28.5194,46.4 28.067,46.2128 27.7268,45.8726 C27.3872,45.533 27.2,45.0806 27.2,44.6 C27.2,44.1194 27.3872,43.667 27.7274,43.3268 L28.3274,42.7274 C28.8596,42.1952 29.6984,42.0854 30.365,42.386 L32.1758,40.5758 C32.4104,40.3412 32.7896,40.3412 33.0242,40.5758 L33.0242,40.5758 Z M30.2,44 C30.2,43.8512 30.1412,43.7132 30.0428,43.6034 C30.0344,43.5962 30.023,43.5932 30.0146,43.5854 C30.0068,43.577 30.0038,43.5656 29.9966,43.5572 C29.8862,43.4588 29.7488,43.4 29.6,43.4 C29.4398,43.4 29.2892,43.4624 29.1758,43.5758 L28.5758,44.1758 C28.4624,44.2892 28.4,44.4398 28.4,44.6 C28.4,44.7602 28.4624,44.9108 28.5758,45.0236 C28.8026,45.251 29.198,45.251 29.4242,45.0242 L30.0242,44.4242 C30.1376,44.3108 30.2,44.1602 30.2,44 L30.2,44 Z M39.0242,41.4242 L37.2194,43.2284 C37.334,43.4672 37.4,43.7276 37.4,44 C37.4,44.4806 37.2122,44.933 36.8726,45.2732 L36.2726,45.8726 C35.933,46.2128 35.4806,46.4 35,46.4 C34.5194,46.4 34.067,46.2128 33.7274,45.8726 C33.3872,45.533 33.2,45.0806 33.2,44.6 C33.2,44.1194 33.3872,43.667 33.7274,43.3268 L34.3274,42.7274 C34.8596,42.1952 35.6984,42.0854 36.365,42.386 L38.1758,40.5758 C38.4104,40.3412 38.7896,40.3412 39.0242,40.5758 C39.2588,40.8104 39.2588,41.1896 39.0242,41.4242 L39.0242,41.4242 Z M36.2,44 C36.2,43.8512 36.1412,43.7132 36.0428,43.6034 C36.0344,43.5962 36.023,43.5932 36.0146,43.5854 C36.0068,43.577 36.0044,43.5656 35.9966,43.5572 C35.8862,43.4588 35.7488,43.4 35.6,43.4 C35.4398,43.4 35.2892,43.4624 35.1758,43.5758 L34.5758,44.1758 C34.4618,44.2892 34.4,44.4398 34.4,44.6 C34.4,44.7602 34.4618,44.9108 34.5758,45.0236 C34.8032,45.251 35.1968,45.251 35.4242,45.0242 L36.0242,44.4242 C36.1382,44.3108 36.2,44.1602 36.2,44 L36.2,44 Z" id="roman-boat"></path>
                    </g>
                </g>
            </g>
        </g>
    </g>
</svg>