<svg xmlns="http://www.w3.org/2000/svg" xmlns:xlink="http://www.w3.org/1999/xlink" width="20" height="20" viewBox="0 0 20 20"><defs><clipPath id="a"><path d="M1.667,15A1.666,1.666,0,0,1,0,13.333V1.667A1.666,1.666,0,0,1,1.667,0H13.333A1.671,1.671,0,0,1,15,1.667V13.333A1.671,1.671,0,0,1,13.333,15Z" fill="none"/></clipPath></defs><g transform="translate(2.5 2.5)"><path d="M1.667,15A1.666,1.666,0,0,1,0,13.333V1.667A1.666,1.666,0,0,1,1.667,0H13.333A1.671,1.671,0,0,1,15,1.667V13.333A1.671,1.671,0,0,1,13.333,15Z" fill="none"/><g clip-path="url(#a)"><g transform="translate(-2.5 -2.5)"><rect width="20" height="20" fill="#172b4d"/></g></g></g></svg>