<svg xmlns="http://www.w3.org/2000/svg" width="36" height="36" viewBox="0 0 36 36">
    <path fill="#3282FD" fill-rule="evenodd" d="M20.214 7.38c-.315-.077-.636.119-.713.436-.076.316.118.635.435.712 4.054.981 6.94 4.466 7.194 8.587h-4.744c-.268-2.13-1.96-3.822-4.09-4.09V7.673c0-.326-.265-.59-.591-.59-4.934 0-9.182 3.346-10.33 8.138-.077.317.118.636.435.712.047.01.093.016.139.016.267 0 .508-.182.573-.453.975-4.066 4.462-6.962 8.593-7.215v4.744c-2.131.268-3.823 1.96-4.09 4.09H7.671c-.326 0-.59.265-.59.59 0 4.905 3.322 9.147 8.078 10.317.048.011.095.017.142.017.265 0 .506-.18.572-.45.078-.316-.115-.636-.432-.714-4.035-.992-6.909-4.473-7.162-8.58h4.744c.268 2.132 1.96 3.823 4.09 4.091v5.352c0 .326.265.59.59.59 4.91 0 9.154-3.326 10.32-8.088.077-.317-.116-.637-.433-.714-.317-.078-.636.116-.714.433-.989 4.04-4.47 6.918-8.582 7.17v-4.743c2.131-.268 3.823-1.96 4.09-4.09h5.353c.326 0 .59-.265.59-.59 0-4.922-3.336-9.169-8.114-10.325zm-2.51 13.866c-1.952 0-3.54-1.588-3.54-3.54 0-1.953 1.588-3.541 3.54-3.541 1.954 0 3.542 1.588 3.542 3.54 0 1.953-1.588 3.541-3.541 3.541zm17.117-4.132h-1.77c0-.325-.264-.589-.59-.589-.325 0-.589.264-.59.59h-1.197c-.088-1.934-.601-3.757-1.447-5.381l1.04-.601.001.001c.11.19.308.295.512.295.1 0 .202-.025.294-.079.283-.163.38-.523.216-.806v-.001l1.532-.885c.283-.163.38-.524.216-.806-.164-.283-.525-.38-.806-.216L30.7 9.52c-.164-.282-.525-.378-.806-.215-.281.162-.378.522-.216.805l-1.043.601c-1.013-1.579-2.36-2.924-3.938-3.938l.602-1.041c.093.054.195.08.295.08.204 0 .403-.107.512-.296.163-.282.067-.643-.216-.806h-.001l.884-1.533c.164-.283.066-.643-.216-.806-.281-.163-.643-.067-.806.216l-.884 1.532c-.283-.162-.643-.066-.806.217-.163.282-.066.642.215.805l-.6 1.04c-1.625-.845-3.448-1.358-5.38-1.445V3.54c.327 0 .59-.264.59-.59 0-.326-.263-.59-.59-.59V.59c0-.326-.265-.59-.591-.59-.326 0-.59.264-.59.59v1.77c-.326 0-.59.264-.59.59 0 .326.264.59.59.59v1.197c-1.933.087-3.757.6-5.38 1.446l-.601-1.04c.283-.163.38-.524.217-.806-.164-.283-.525-.379-.807-.216l-.885-1.533c-.164-.282-.525-.379-.807-.216-.282.163-.379.525-.216.807l.886 1.532c-.282.164-.38.524-.216.806.11.19.308.296.512.296.1 0 .201-.026.294-.08l.6 1.04c-1.579 1.015-2.925 2.361-3.939 3.94l-1.04-.6.001-.001c.163-.283.066-.643-.216-.806-.283-.164-.643-.067-.807.216l-1.533-.885c-.283-.163-.643-.067-.806.216-.164.282-.067.643.216.806l1.533.885c-.163.283-.066.643.217.806.092.054.194.08.294.08.204 0 .402-.107.511-.295l1.039.6c-.846 1.624-1.359 3.447-1.446 5.38H3.541c0-.325-.264-.59-.59-.59-.327 0-.59.265-.59.59H.59c-.327 0-.591.265-.591.59 0 .326.264.59.59.59h1.77c0 .326.264.59.59.59.327 0 .591-.264.591-.59h1.195c.087 1.934.6 3.758 1.447 5.382l-1.04.6c-.163-.283-.525-.38-.805-.216-.283.163-.38.523-.217.806l-1.532.885c-.283.163-.38.523-.217.806.11.19.309.295.513.295.1 0 .201-.025.294-.079l1.532-.885c.11.19.308.295.513.295.1 0 .2-.025.294-.079.282-.163.379-.523.216-.806l1.04-.6c1.014 1.579 2.36 2.924 3.939 3.938l-.6 1.04c-.283-.162-.644-.066-.807.217-.163.282-.066.643.216.806l-.884 1.532c-.164.283-.067.644.216.807.092.053.194.079.294.079.204 0 .403-.106.512-.295l.884-1.533c.093.054.195.079.295.079.204 0 .402-.106.512-.295.163-.282.066-.643-.216-.806l.6-1.039c1.625.845 3.448 1.359 5.38 1.445v1.197c-.325 0-.59.264-.59.59 0 .326.265.59.59.59h.002v1.77c0 .325.264.59.59.59.326 0 .59-.265.59-.59v-1.77c.326 0 .59-.264.59-.59 0-.326-.264-.59-.59-.59v-1.197c1.933-.087 3.756-.6 5.38-1.446l.601 1.04c-.283.163-.38.524-.217.806.11.19.308.295.512.295.1 0 .201-.025.295-.079l.885 1.531c.11.19.307.295.512.295.1 0 .201-.025.294-.078.282-.164.379-.525.216-.807L25.89 30.7c.283-.164.38-.524.216-.806-.164-.283-.524-.379-.806-.216l-.601-1.043c1.579-1.013 2.924-2.359 3.938-3.938l1.042.602c-.164.283-.067.643.215.806.093.054.194.08.295.08.204 0 .402-.106.511-.296l1.533.884c.093.053.194.079.294.079.205 0 .403-.106.512-.295.164-.283.067-.643-.216-.806l-1.532-.885c.162-.282.066-.643-.217-.805-.28-.163-.642-.067-.805.215l-1.04-.6c.845-1.625 1.358-3.448 1.445-5.382h1.197v.002c0 .325.264.59.59.59.327 0 .59-.265.59-.59v-.002h1.77c.326 0 .59-.264.59-.59 0-.325-.264-.59-.59-.59zM17.705 29.51c-6.508 0-11.803-5.295-11.803-11.803 0-6.509 5.295-11.804 11.803-11.804 6.508 0 11.803 5.295 11.803 11.804 0 6.508-5.295 11.803-11.803 11.803zm1.18-11.803c0 .65-.53 1.18-1.18 1.18-.65 0-1.18-.53-1.18-1.18 0-.651.53-1.18 1.18-1.18.65 0 1.18.529 1.18 1.18z"/>
</svg>
