<?xml version="1.0" encoding="UTF-8"?>
<svg width="13px" height="17px" viewBox="0 0 13 17" version="1.1" xmlns="http://www.w3.org/2000/svg" xmlns:xlink="http://www.w3.org/1999/xlink">
    <!-- Generator: sketchtool 52.5 (67469) - http://www.bohemiancoding.com/sketch -->
    <title>22AC70C5-7106-4B75-99CE-9BBA119E9237_rounded</title>
    <desc>Created with sketchtool.</desc>
    <defs>
        <path d="M5.5,16.9190483 C5.5,17.8985722 6.325,18.7000008 7.33333333,18.7000008 L14.6666667,18.7000008 C15.675,18.7000008 16.5,17.8985722 16.5,16.9190483 L16.5,8.01428604 C16.5,7.03476219 15.675,6.23333359 14.6666667,6.23333359 L7.33333333,6.23333359 C6.325,6.23333359 5.5,7.03476219 5.5,8.01428604 L5.5,16.9190483 Z M16.5,3.56190491 L14.2083333,3.56190491 L13.5575,2.92966679 C13.3925,2.76938107 13.1541667,2.67142868 12.9158333,2.67142868 L9.08416667,2.67142868 C8.84583333,2.67142868 8.6075,2.76938107 8.4425,2.92966679 L7.79166667,3.56190491 L5.5,3.56190491 C4.99583333,3.56190491 4.58333333,3.96261921 4.58333333,4.45238113 C4.58333333,4.94214306 4.99583333,5.34285736 5.5,5.34285736 L16.5,5.34285736 C17.0041667,5.34285736 17.4166667,4.94214306 17.4166667,4.45238113 C17.4166667,3.96261921 17.0041667,3.56190491 16.5,3.56190491 Z" id="path-1"></path>
    </defs>
    <g id="Teknenizi-Kaydedin" stroke="none" stroke-width="1" fill="none" fill-rule="evenodd">
        <g id="Teknenizi-Kaydedin_1" transform="translate(-328.000000, -1611.000000)">
            <g id="Group-7" transform="translate(202.000000, 1485.000000)">
                <g id="icon/action/delete_24px" transform="translate(121.571429, 123.371429)">
                    <mask id="mask-2" fill="white">
                        <use xlink:href="#path-1"></use>
                    </mask>
                    <g fill-rule="nonzero"></g>
                    <g id="↳-Color" mask="url(#mask-2)" fill="#FFFFFF">
                        <rect id="Rectangle" x="0" y="0" width="22" height="21.3714294"></rect>
                    </g>
                </g>
            </g>
        </g>
    </g>
</svg>