<?xml version="1.0" encoding="UTF-8"?>
<svg width="18px" height="18px" viewBox="0 0 18 18" version="1.1" xmlns="http://www.w3.org/2000/svg" xmlns:xlink="http://www.w3.org/1999/xlink">
    <!-- Generator: sketchtool 52.5 (67469) - http://www.bohemiancoding.com/sketch -->
    <title>CF9A0ADB-7610-4121-9E4A-82029B2FA31A_rounded</title>
    <desc>Created with sketchtool.</desc>
    <defs>
        <path d="M10.9868367,8.86403208 L12.9868367,8.86403208 L12.9868367,10.832032 L10.9868367,10.832032 L10.9868367,8.86403208 Z M14.9868367,8.86403208 L16.9868367,8.86403208 L16.9868367,10.832032 L14.9868367,10.832032 L14.9868367,8.86403208 Z M18.9868367,8.86403208 L20.9868367,8.86403208 L20.9868367,10.832032 L18.9868367,10.832032 L18.9868367,8.86403208 Z M19.2168367,15.0238715 L16.6768367,14.7385116 C16.0668367,14.6696316 15.4668367,14.8762715 15.0368367,15.2993915 L13.1968367,17.1099514 C10.3668367,15.6929915 8.04683674,13.4199517 6.60683674,10.6253919 L8.45683674,8.80499203 C8.88683674,8.38187206 9.09683674,7.79147211 9.02683674,7.19123216 L8.73683674,4.71155236 C8.61683674,3.71771244 7.76683674,2.9698725 6.74683674,2.9698725 L5.01683674,2.9698725 C3.88683674,2.9698725 2.94683674,3.89483242 3.01683674,5.00675233 C3.54683674,13.4101117 10.3768367,20.1209911 18.9068367,20.6425111 C20.0368367,20.7113911 20.9768367,19.7864312 20.9768367,18.6745112 L20.9768367,16.9721914 C20.9868367,15.9783515 20.2268367,15.1419515 19.2168367,15.0238715 Z" id="path-1"></path>
    </defs>
    <g id="Home" stroke="none" stroke-width="1" fill="none" fill-rule="evenodd">
        <g id="Home_Modal" transform="translate(-1363.000000, -192.000000)">
            <g id="Form" transform="translate(0.000000, 70.000000)">
                <g id="Group-30" transform="translate(1350.000000, 109.224000)">
                    <g id="NEUTRAL-Copy-3">
                        <g id="DEFAULT">
                            <g id="icon/action/settings_phone_24px" transform="translate(10.000000, 9.840000)">
                                <mask id="mask-2" fill="white">
                                    <use xlink:href="#path-1"></use>
                                </mask>
                                <g fill-rule="nonzero"></g>
                                <g id="↳-Color" mask="url(#mask-2)" fill="#212529">
                                    <rect id="Rectangle-3" x="0" y="0" width="24" height="23.6159992"></rect>
                                </g>
                            </g>
                        </g>
                    </g>
                </g>
            </g>
        </g>
    </g>
</svg>