<?xml version="1.0" encoding="UTF-8"?>
<svg width="16px" height="18px" viewBox="0 0 16 18" version="1.1" xmlns="http://www.w3.org/2000/svg" xmlns:xlink="http://www.w3.org/1999/xlink">
    <!-- Generator: sketchtool 52.6 (67491) - http://www.bohemiancoding.com/sketch -->
    <title>669C073F-A1DA-4D08-B182-EF85410CC7A9_rounded</title>
    <desc>Created with sketchtool.</desc>
    <defs>
        <path d="M15,13.4333333 C14.3666667,13.4333333 13.8,13.6833333 13.3666667,14.075 L7.425,10.6166667 C7.46666667,10.425 7.5,10.2333333 7.5,10.0333333 C7.5,9.83333333 7.46666667,9.64166667 7.425,9.45 L13.3,6.02499998 C13.75,6.44166665 14.3416667,6.69999999 15,6.69999999 C16.3833333,6.69999999 17.5,5.58333332 17.5,4.19999998 C17.5,2.81666664 16.3833333,1.69999997 15,1.69999997 C13.6166667,1.69999997 12.5,2.81666664 12.5,4.19999998 C12.5,4.39999998 12.5333333,4.59166665 12.575,4.78333331 L6.7,8.20833333 C6.25,7.79166666 5.65833333,7.53333332 5,7.53333332 C3.61666667,7.53333332 2.5,8.64999999 2.5,10.0333333 C2.5,11.4166667 3.61666667,12.5333333 5,12.5333333 C5.65833333,12.5333333 6.25,12.275 6.7,11.8583333 L12.6333333,15.325 C12.5916667,15.5 12.5666667,15.6833334 12.5666667,15.8666667 C12.5666667,17.2083334 13.6583333,18.3 15,18.3 C16.3416667,18.3 17.4333333,17.2083334 17.4333333,15.8666667 C17.4333333,14.525 16.3416667,13.4333333 15,13.4333333 Z" id="path-1"></path>
    </defs>
    <g id="Kabin-Detay" stroke="none" stroke-width="1" fill="none" fill-rule="evenodd">
        <g id="Kabin_Detay__" transform="translate(-1200.000000, -393.000000)">
            <g id="NEUTRAL-Copy" transform="translate(1190.000000, 384.000000)">
                <g id="DEFAULT">
                    <g id="icon/social/share_24px" transform="translate(8.000000, 8.000000)">
                        <mask id="mask-2" fill="white">
                            <use xlink:href="#path-1"></use>
                        </mask>
                        <g fill-rule="nonzero"></g>
                        <g id="↳-Color" mask="url(#mask-2)" fill="#172B4D">
                            <rect id="Rectangle" x="0" y="0" width="20" height="20"></rect>
                        </g>
                    </g>
                </g>
            </g>
        </g>
    </g>
</svg>