<svg width="20" height="20" viewBox="0 0 20 20" fill="none" xmlns="http://www.w3.org/2000/svg">
<path d="M18.8554 13.3684H18.7265V3.2425C18.7255 2.38287 18.3494 1.5587 17.6808 0.950822C17.0122 0.342941 16.1057 0.000992643 15.1601 0L8.58309 0C7.63756 0.000992489 6.73106 0.342898 6.06247 0.950711C5.39388 1.55852 5.01778 2.38261 5.01669 3.24219V5.1975H3.59975C3.55471 5.19751 3.51025 5.20672 3.46965 5.22443C3.42904 5.24214 3.39333 5.26791 3.36514 5.29984L2.98702 5.72859C2.14172 6.68868 1.65138 7.86685 1.58589 9.09516H1.09037C0.801287 9.09545 0.524131 9.19997 0.319715 9.38581C0.115299 9.57164 0.000318454 9.8236 0 10.0864V10.8042C4.55371e-05 10.8767 0.0317496 10.9463 0.0881471 10.9975C0.144545 11.0488 0.221023 11.0776 0.300781 11.0777H11.7093C11.7891 11.0777 11.8656 11.0488 11.922 10.9976C11.9784 10.9463 12.0101 10.8767 12.0101 10.8042V10.0864C12.0098 9.82361 11.8949 9.57165 11.6905 9.38582C11.4861 9.19998 11.209 9.09545 10.9199 9.09516H10.4232C10.3582 7.86692 9.8682 6.6887 9.02309 5.72859L8.64497 5.29984C8.61681 5.26792 8.58113 5.24215 8.54055 5.22443C8.49998 5.20672 8.45554 5.19751 8.41053 5.1975H6.99325V3.2425C6.9937 2.85931 7.16135 2.49193 7.45941 2.22097C7.75746 1.95001 8.16158 1.7976 8.58309 1.79719H15.1601C15.5816 1.7976 15.9857 1.95001 16.2837 2.22097C16.5818 2.49193 16.7495 2.85931 16.7499 3.2425V13.3684H16.621C16.359 13.3687 16.1078 13.4635 15.9225 13.6319C15.7373 13.8003 15.633 14.0287 15.6327 14.2669V14.3939H14.2577C13.9956 14.3939 13.7442 14.4886 13.5589 14.6571C13.3736 14.8255 13.2694 15.0541 13.2694 15.2923C13.2694 15.5306 13.3736 15.7591 13.5589 15.9276C13.7442 16.0961 13.9956 16.1908 14.2577 16.1908H15.6327V16.3177C15.633 16.5559 15.7372 16.7842 15.9225 16.9527C16.1078 17.1211 16.359 17.2158 16.621 17.2161H16.7499V19.7263C16.7499 19.7988 16.7816 19.8683 16.838 19.9196C16.8944 19.9709 16.9709 19.9997 17.0507 19.9997H18.4257C18.5054 19.9996 18.5819 19.9708 18.6383 19.9196C18.6947 19.8683 18.7264 19.7988 18.7265 19.7263V17.2161H18.8554C19.1174 17.2158 19.3686 17.1211 19.5538 16.9526C19.7391 16.7842 19.8433 16.5558 19.8437 16.3177V14.2669C19.8433 14.0287 19.7391 13.8003 19.5538 13.6319C19.3686 13.4635 19.1174 13.3687 18.8554 13.3684V13.3684ZM11.4082 10.0864V10.5313H0.601562V10.0864C0.601699 9.96859 0.653243 9.85563 0.744883 9.77232C0.836524 9.68901 0.960776 9.64216 1.09037 9.64203H10.9196C11.0491 9.6422 11.1733 9.68907 11.2649 9.77238C11.3565 9.85568 11.4081 9.96862 11.4082 10.0864V10.0864ZM8.55405 6.07078C9.31365 6.93376 9.75692 7.99131 9.82163 9.095H2.18831C2.25289 7.99134 2.69618 6.9338 3.45589 6.07094L3.74413 5.74437H8.26581L8.55405 6.07078ZM15.1601 1.25H8.58309C8.00209 1.25058 7.44507 1.46066 7.03424 1.83414C6.62341 2.20762 6.39232 2.714 6.39169 3.24219V5.1975H5.61825V3.2425C5.61902 2.52785 5.93163 1.84266 6.48747 1.33729C7.0433 0.831926 7.79697 0.547661 8.58309 0.546875H15.1601C15.9461 0.547702 16.6997 0.831937 17.2555 1.33723C17.8113 1.84252 18.124 2.5276 18.1249 3.24219V13.3684H17.3515V3.2425C17.3509 2.71426 17.1199 2.2078 16.709 1.83425C16.2982 1.4607 15.7411 1.25058 15.1601 1.25V1.25ZM14.2581 15.6436C14.1555 15.6436 14.0571 15.6066 13.9846 15.5406C13.9121 15.4747 13.8713 15.3853 13.8713 15.292C13.8713 15.1988 13.9121 15.1094 13.9846 15.0434C14.0571 14.9775 14.1555 14.9405 14.2581 14.9405H15.6331V15.6436H14.2581ZM18.1252 19.4525H17.3518V17.2161H18.1252V19.4525ZM19.2424 16.3173C19.2423 16.4105 19.2015 16.4999 19.129 16.5658C19.0565 16.6317 18.9582 16.6688 18.8557 16.6689H16.6213C16.5188 16.6688 16.4205 16.6318 16.348 16.5658C16.2755 16.4999 16.2347 16.4106 16.2346 16.3173V14.2669C16.2347 14.1737 16.2755 14.0843 16.348 14.0184C16.4205 13.9525 16.5188 13.9154 16.6213 13.9153H18.8557C18.9582 13.9154 19.0565 13.9525 19.129 14.0184C19.2015 14.0843 19.2423 14.1737 19.2424 14.2669V16.3173Z" fill="#204382"/>
<path d="M1.87988 12.0022C1.80011 12.0022 1.72361 12.031 1.6672 12.0823C1.61079 12.1336 1.5791 12.2031 1.5791 12.2756V13.3506C1.5791 13.4232 1.61079 13.4927 1.6672 13.544C1.72361 13.5953 1.80011 13.6241 1.87988 13.6241C1.95966 13.6241 2.03616 13.5953 2.09257 13.544C2.14898 13.4927 2.18066 13.4232 2.18066 13.3506V12.2756C2.18066 12.2031 2.14898 12.1336 2.09257 12.0823C2.03616 12.031 1.95966 12.0022 1.87988 12.0022V12.0022Z" fill="#204382"/>
<path d="M3.94238 12.0022C3.86261 12.0022 3.78611 12.031 3.7297 12.0823C3.67329 12.1336 3.6416 12.2031 3.6416 12.2756V13.3506C3.6416 13.4232 3.67329 13.4927 3.7297 13.544C3.78611 13.5953 3.86261 13.6241 3.94238 13.6241C4.02215 13.6241 4.09866 13.5953 4.15507 13.544C4.21147 13.4927 4.24316 13.4232 4.24316 13.3506V12.2756C4.24316 12.2031 4.21147 12.1336 4.15507 12.0823C4.09866 12.031 4.02215 12.0022 3.94238 12.0022V12.0022Z" fill="#204382"/>
<path d="M6.00488 12.0022C5.92511 12.0022 5.84861 12.031 5.7922 12.0823C5.73579 12.1336 5.7041 12.2031 5.7041 12.2756V13.3506C5.7041 13.4232 5.73579 13.4927 5.7922 13.544C5.84861 13.5953 5.92511 13.6241 6.00488 13.6241C6.08465 13.6241 6.16116 13.5953 6.21757 13.544C6.27397 13.4927 6.30566 13.4232 6.30566 13.3506V12.2756C6.30566 12.2031 6.27397 12.1336 6.21757 12.0823C6.16116 12.031 6.08465 12.0022 6.00488 12.0022V12.0022Z" fill="#204382"/>
<path d="M8.06738 12.0022C7.98761 12.0022 7.91111 12.031 7.8547 12.0823C7.79829 12.1336 7.7666 12.2031 7.7666 12.2756V13.3506C7.7666 13.4232 7.79829 13.4927 7.8547 13.544C7.91111 13.5953 7.98761 13.6241 8.06738 13.6241C8.14715 13.6241 8.22366 13.5953 8.28007 13.544C8.33647 13.4927 8.36816 13.4232 8.36816 13.3506V12.2756C8.36819 12.2397 8.36042 12.2042 8.34531 12.171C8.33021 12.1378 8.30805 12.1076 8.28012 12.0822C8.25218 12.0568 8.21902 12.0367 8.18251 12.023C8.14601 12.0092 8.10689 12.0022 8.06738 12.0022Z" fill="#204382"/>
<path d="M10.1299 12.0022C10.0501 12.0022 9.97361 12.031 9.9172 12.0823C9.86079 12.1336 9.8291 12.2031 9.8291 12.2756V13.3506C9.8291 13.4232 9.86079 13.4927 9.9172 13.544C9.97361 13.5953 10.0501 13.6241 10.1299 13.6241C10.2097 13.6241 10.2862 13.5953 10.3426 13.544C10.399 13.4927 10.4307 13.4232 10.4307 13.3506V12.2756C10.4307 12.2397 10.4229 12.2042 10.4078 12.171C10.3927 12.1378 10.3706 12.1076 10.3426 12.0822C10.3147 12.0568 10.2815 12.0367 10.245 12.023C10.2085 12.0092 10.1694 12.0022 10.1299 12.0022V12.0022Z" fill="#204382"/>
<path d="M1.87988 15.1899C1.80011 15.1899 1.72361 15.2187 1.6672 15.27C1.61079 15.3213 1.5791 15.3909 1.5791 15.4634V16.5384C1.5791 16.6109 1.61079 16.6804 1.6672 16.7317C1.72361 16.783 1.80011 16.8118 1.87988 16.8118C1.95966 16.8118 2.03616 16.783 2.09257 16.7317C2.14898 16.6804 2.18066 16.6109 2.18066 16.5384V15.4634C2.18066 15.3909 2.14898 15.3213 2.09257 15.27C2.03616 15.2187 1.95966 15.1899 1.87988 15.1899Z" fill="#204382"/>
<path d="M3.94238 15.1899C3.86261 15.1899 3.78611 15.2187 3.7297 15.27C3.67329 15.3213 3.6416 15.3909 3.6416 15.4634V16.5384C3.6416 16.6109 3.67329 16.6804 3.7297 16.7317C3.78611 16.783 3.86261 16.8118 3.94238 16.8118C4.02215 16.8118 4.09866 16.783 4.15507 16.7317C4.21147 16.6804 4.24316 16.6109 4.24316 16.5384V15.4634C4.24316 15.3909 4.21147 15.3213 4.15507 15.27C4.09866 15.2187 4.02215 15.1899 3.94238 15.1899Z" fill="#204382"/>
<path d="M6.00488 15.1899C5.92511 15.1899 5.84861 15.2187 5.7922 15.27C5.73579 15.3213 5.7041 15.3909 5.7041 15.4634V16.5384C5.7041 16.6109 5.73579 16.6804 5.7922 16.7317C5.84861 16.783 5.92511 16.8118 6.00488 16.8118C6.08465 16.8118 6.16116 16.783 6.21757 16.7317C6.27397 16.6804 6.30566 16.6109 6.30566 16.5384V15.4634C6.30566 15.3909 6.27397 15.3213 6.21757 15.27C6.16116 15.2187 6.08465 15.1899 6.00488 15.1899Z" fill="#204382"/>
<path d="M8.06738 15.1899C7.98761 15.1899 7.91111 15.2187 7.8547 15.27C7.79829 15.3213 7.7666 15.3909 7.7666 15.4634V16.5384C7.7666 16.6109 7.79829 16.6804 7.8547 16.7317C7.91111 16.783 7.98761 16.8118 8.06738 16.8118C8.14715 16.8118 8.22366 16.783 8.28007 16.7317C8.33647 16.6804 8.36816 16.6109 8.36816 16.5384V15.4634C8.36819 15.4275 8.36042 15.3919 8.34531 15.3587C8.33021 15.3255 8.30805 15.2954 8.28012 15.27C8.25218 15.2446 8.21902 15.2244 8.18251 15.2107C8.14601 15.197 8.10689 15.1899 8.06738 15.1899Z" fill="#204382"/>
<path d="M10.1299 15.1899C10.0501 15.1899 9.97361 15.2187 9.9172 15.27C9.86079 15.3213 9.8291 15.3909 9.8291 15.4634V16.5384C9.8291 16.6109 9.86079 16.6804 9.9172 16.7317C9.97361 16.783 10.0501 16.8118 10.1299 16.8118C10.2097 16.8118 10.2862 16.783 10.3426 16.7317C10.399 16.6804 10.4307 16.6109 10.4307 16.5384V15.4634C10.4307 15.4275 10.4229 15.3919 10.4078 15.3587C10.3927 15.3255 10.3706 15.2954 10.3426 15.27C10.3147 15.2446 10.2815 15.2244 10.245 15.2107C10.2085 15.197 10.1694 15.1899 10.1299 15.1899V15.1899Z" fill="#204382"/>
<path d="M1.87988 18.3779C1.80012 18.378 1.72365 18.4068 1.66725 18.4581C1.61085 18.5093 1.57915 18.5789 1.5791 18.6514V19.7264C1.5791 19.7989 1.61079 19.8684 1.6672 19.9197C1.72361 19.971 1.80011 19.9998 1.87988 19.9998C1.95966 19.9998 2.03616 19.971 2.09257 19.9197C2.14898 19.8684 2.18066 19.7989 2.18066 19.7264V18.6514C2.18062 18.5789 2.14892 18.5093 2.09252 18.4581C2.03612 18.4068 1.95964 18.378 1.87988 18.3779Z" fill="#204382"/>
<path d="M3.94238 18.3779C3.86262 18.378 3.78615 18.4068 3.72975 18.4581C3.67335 18.5093 3.64165 18.5789 3.6416 18.6514V19.7264C3.6416 19.7989 3.67329 19.8684 3.7297 19.9197C3.78611 19.971 3.86261 19.9998 3.94238 19.9998C4.02215 19.9998 4.09866 19.971 4.15507 19.9197C4.21147 19.8684 4.24316 19.7989 4.24316 19.7264V18.6514C4.24312 18.5789 4.21141 18.5093 4.15502 18.4581C4.09862 18.4068 4.02214 18.378 3.94238 18.3779V18.3779Z" fill="#204382"/>
<path d="M6.00488 18.3779C5.92512 18.378 5.84865 18.4068 5.79225 18.4581C5.73585 18.5093 5.70415 18.5789 5.7041 18.6514V19.7264C5.7041 19.7989 5.73579 19.8684 5.7922 19.9197C5.84861 19.971 5.92511 19.9998 6.00488 19.9998C6.08465 19.9998 6.16116 19.971 6.21757 19.9197C6.27397 19.8684 6.30566 19.7989 6.30566 19.7264V18.6514C6.30562 18.5789 6.27391 18.5093 6.21752 18.4581C6.16112 18.4068 6.08464 18.378 6.00488 18.3779Z" fill="#204382"/>
<path d="M8.06738 18.3779C7.98762 18.378 7.91115 18.4068 7.85475 18.4581C7.79835 18.5093 7.76665 18.5789 7.7666 18.6514V19.7264C7.7666 19.7989 7.79829 19.8684 7.8547 19.9197C7.91111 19.971 7.98761 19.9998 8.06738 19.9998C8.14715 19.9998 8.22366 19.971 8.28007 19.9197C8.33647 19.8684 8.36816 19.7989 8.36816 19.7264V18.6514C8.36816 18.5788 8.33647 18.5093 8.28007 18.458C8.22366 18.4067 8.14715 18.3779 8.06738 18.3779V18.3779Z" fill="#204382"/>
<path d="M10.1299 18.3779C10.0501 18.378 9.97365 18.4068 9.91725 18.4581C9.86085 18.5093 9.82915 18.5789 9.8291 18.6514V19.7264C9.8291 19.7989 9.86079 19.8684 9.9172 19.9197C9.97361 19.971 10.0501 19.9998 10.1299 19.9998C10.2097 19.9998 10.2862 19.971 10.3426 19.9197C10.399 19.8684 10.4307 19.7989 10.4307 19.7264V18.6514C10.4307 18.5788 10.399 18.5093 10.3426 18.458C10.2862 18.4067 10.2097 18.3779 10.1299 18.3779V18.3779Z" fill="#204382"/>
</svg>
