<svg width="35" height="36" viewBox="0 0 35 36" fill="none" xmlns="http://www.w3.org/2000/svg">
<path d="M17.5 0.5625C7.83266 0.5625 0 8.36719 0 18C0 27.6328 7.83266 35.4375 17.5 35.4375C27.1673 35.4375 35 27.6328 35 18C35 8.36719 27.1673 0.5625 17.5 0.5625ZM17.5 32.0625C9.71673 32.0625 3.3871 25.7555 3.3871 18C3.3871 10.2445 9.71673 3.9375 17.5 3.9375C25.2833 3.9375 31.6129 10.2445 31.6129 18C31.6129 25.7555 25.2833 32.0625 17.5 32.0625ZM25.8125 21.7688C25.0927 21.1711 24.0272 21.2695 23.4274 21.9867C21.9597 23.7445 19.7933 24.757 17.5 24.757C15.2067 24.757 13.0403 23.7516 11.5726 21.9867C10.9728 21.2695 9.9002 21.1781 9.1875 21.7688C8.46774 22.3664 8.37601 23.4281 8.96875 24.1453C11.0857 26.6766 14.1976 28.125 17.5 28.125C20.8024 28.125 23.9143 26.6766 26.0312 24.1453C26.631 23.4281 26.5323 22.3664 25.8125 21.7688ZM11.8548 16.875C13.1038 16.875 14.1129 15.8695 14.1129 14.625C14.1129 13.3805 13.1038 12.375 11.8548 12.375C10.6058 12.375 9.59677 13.3805 9.59677 14.625C9.59677 15.8695 10.6058 16.875 11.8548 16.875ZM23.1452 12.6562C21.3317 12.6562 19.2006 13.8445 18.9183 15.6164C18.7984 16.4039 19.7298 16.8961 20.3155 16.3758L20.9859 15.7781C22.0302 14.85 24.246 14.85 25.2903 15.7781L25.9607 16.3758C26.5605 16.8961 27.4849 16.3969 27.3579 15.6164C27.0897 13.8445 24.9587 12.6562 23.1452 12.6562Z" fill="#4BB431"/>
</svg>
