<?xml version="1.0" encoding="utf-8"?>
<svg width="24px" height="24px" viewbox="0 0 24 24" version="1.1" xmlns:xlink="http://www.w3.org/1999/xlink" xmlns="http://www.w3.org/2000/svg">
  <defs>
    <path d="M11.25 9.6875L11.25 10.7813C11.25 11.0391 11.0391 11.25 10.7813 11.25L4.21875 11.25C3.96094 11.25 3.75 11.0391 3.75 10.7813L3.75 9.6875C3.75 9.42969 3.96094 9.21875 4.21875 9.21875L10.7813 9.21875C11.0391 9.21875 11.25 9.42969 11.25 9.6875ZM10.7813 12.5L4.21875 12.5C3.96094 12.5 3.75 12.7109 3.75 12.9688L3.75 14.0625C3.75 14.3203 3.96094 14.5313 4.21875 14.5313L10.7813 14.5313C11.0391 14.5313 11.25 14.3203 11.25 14.0625L11.25 12.9688C11.25 12.7109 11.0391 12.5 10.7813 12.5ZM15 5.15234L15 18.125C15 19.1602 14.1602 20 13.125 20L1.875 20C0.839844 20 0 19.1602 0 18.125L0 1.875C0 0.839844 0.839844 0 1.875 0L9.84766 0C10.3438 0 10.8203 0.199219 11.1719 0.550781L14.4492 3.82813C14.8008 4.17578 15 4.65625 15 5.15234ZM10 2.02734L10 5L12.9727 5L10 2.02734ZM13.125 18.125L13.125 6.875L9.0625 6.875C8.54297 6.875 8.125 6.45703 8.125 5.9375L8.125 1.875L1.875 1.875L1.875 18.125L13.125 18.125Z" transform="translate(4.5 2)" id="path_1" />
    <clipPath id="mask_1">
      <use xlink:href="#path_1" />
    </clipPath>
  </defs>
  <g id="file-alt">
    <path d="M11.25 9.6875L11.25 10.7813C11.25 11.0391 11.0391 11.25 10.7813 11.25L4.21875 11.25C3.96094 11.25 3.75 11.0391 3.75 10.7813L3.75 9.6875C3.75 9.42969 3.96094 9.21875 4.21875 9.21875L10.7813 9.21875C11.0391 9.21875 11.25 9.42969 11.25 9.6875ZM10.7813 12.5L4.21875 12.5C3.96094 12.5 3.75 12.7109 3.75 12.9688L3.75 14.0625C3.75 14.3203 3.96094 14.5313 4.21875 14.5313L10.7813 14.5313C11.0391 14.5313 11.25 14.3203 11.25 14.0625L11.25 12.9688C11.25 12.7109 11.0391 12.5 10.7813 12.5ZM15 5.15234L15 18.125C15 19.1602 14.1602 20 13.125 20L1.875 20C0.839844 20 0 19.1602 0 18.125L0 1.875C0 0.839844 0.839844 0 1.875 0L9.84766 0C10.3438 0 10.8203 0.199219 11.1719 0.550781L14.4492 3.82813C14.8008 4.17578 15 4.65625 15 5.15234ZM10 2.02734L10 5L12.9727 5L10 2.02734ZM13.125 18.125L13.125 6.875L9.0625 6.875C8.54297 6.875 8.125 6.45703 8.125 5.9375L8.125 1.875L1.875 1.875L1.875 18.125L13.125 18.125Z" transform="translate(4.5 2)" id="file-alt" fill="none" stroke="none" />
    <g clip-path="url(#mask_1)">
      <path d="M0 0L24 0L24 24L0 24L0 0Z" id="🎨-color" fill="#32325D" fill-rule="evenodd" stroke="none" />
    </g>
  </g>
</svg>