<?xml version="1.0" encoding="UTF-8"?>
<svg width="36px" height="36px" viewBox="0 0 36 36" version="1.1" xmlns="http://www.w3.org/2000/svg" xmlns:xlink="http://www.w3.org/1999/xlink">
    <!-- Generator: sketchtool 52.6 (67491) - http://www.bohemiancoding.com/sketch -->
    <title>5CEE864A-F35D-4766-BF92-37AF2CC70FB5</title>
    <desc>Created with sketchtool.</desc>
    <g id="Home" stroke="none" stroke-width="1" fill="none" fill-rule="evenodd">
        <g transform="translate(-1040.000000, -4975.000000)" fill="#3282FD" id="Group-15">
            <g transform="translate(150.000000, 4767.000000)">
                <g id="Group-13-Copy-3" transform="translate(876.000000, 194.000000)">
                    <g id="ICON">
                        <path d="M14.0174,18.0506 C14.0732,17.7236 14.3828,17.5028 14.7098,17.5592 C14.876,17.5874 15.0278,17.6 15.2,17.6 C16.5794,17.6 17.048,16.7594 17.0672,16.724 C17.1734,16.5266 17.3816,16.406 17.6072,16.4042 C17.831,16.4078 18.0368,16.5314 18.1364,16.7318 C18.152,16.7594 18.6206,17.6 20,17.6 C21.3794,17.6 21.848,16.7594 21.8672,16.724 C21.974,16.5266 22.1714,16.406 22.4072,16.4042 C22.631,16.4078 22.8362,16.5314 22.9364,16.7318 C22.952,16.7594 23.4206,17.6 24.8,17.6 C26.1794,17.6 26.648,16.7594 26.6672,16.724 C26.774,16.5266 26.9612,16.406 27.2072,16.4042 C27.431,16.4078 27.6362,16.5314 27.7364,16.7318 C27.752,16.7594 28.2206,17.6 29.6,17.6 C30.9794,17.6 31.448,16.7594 31.4672,16.724 C31.5734,16.5266 31.796,16.406 32.0072,16.4042 C32.231,16.4078 32.4368,16.5314 32.5364,16.7318 C32.5472,16.751 32.903,17.3912 33.8942,17.5592 C34.2206,17.6144 34.4408,17.924 34.3862,18.251 C34.3304,18.5774 34.0202,18.7988 33.6938,18.7424 C32.9006,18.608 32.354,18.2612 32.0006,17.9378 C31.5506,18.35 30.7874,18.8 29.6,18.8 C28.4132,18.8 27.65,18.35 27.2,17.9378 C26.75,18.35 25.9868,18.8 24.8,18.8 C23.6126,18.8 22.85,18.35 22.4,17.9378 C21.95,18.35 21.1868,18.8 20,18.8 C18.8132,18.8 18.05,18.35 17.6,17.9378 C17.15,18.35 16.3868,18.8 15.2,18.8 C14.9612,18.8 14.741,18.7814 14.5094,18.7424 C14.1824,18.6866 13.9622,18.377 14.0174,18.0506 L14.0174,18.0506 Z M38.6996,17.5598 C38.3678,17.5046 38.063,17.7254 38.0084,18.0518 C37.9532,18.3788 38.1734,18.6884 38.5004,18.7436 C38.7236,18.7808 38.9594,18.8 39.2,18.8 C40.3868,18.8 41.15,18.35 41.6,17.9378 C42.05,18.35 42.8132,18.8 44,18.8 C45.1868,18.8 45.95,18.35 46.4,17.9378 C46.85,18.35 47.6126,18.8 48.8,18.8 C49.0364,18.8 49.2674,18.7814 49.4882,18.7454 C49.8152,18.6908 50.036,18.3824 49.9826,18.0554 C49.9292,17.7284 49.6256,17.5094 49.2926,17.561 C49.1366,17.5868 48.971,17.6 48.8,17.6 C47.4206,17.6 46.952,16.7594 46.9364,16.7318 C46.8368,16.5314 46.631,16.4078 46.4072,16.4042 C46.166,16.406 45.974,16.5266 45.8672,16.724 C45.848,16.7594 45.3794,17.6 44,17.6 C42.6206,17.6 42.152,16.7594 42.1364,16.7318 C42.0362,16.5314 41.831,16.4078 41.6072,16.4042 C41.3762,16.406 41.1734,16.5266 41.0672,16.724 C41.048,16.7594 40.5794,17.6 39.2,17.6 C39.026,17.6 38.8574,17.5862 38.6996,17.5598 L38.6996,17.5598 Z M30.2,39.2 C31.1924,39.2 32,40.0076 32,41 C32,41.9924 31.1924,42.8 30.2,42.8 C29.2076,42.8 28.4,41.9924 28.4,41 C28.4,40.0076 29.2076,39.2 30.2,39.2 L30.2,39.2 Z M29.6,41 C29.6,41.3306 29.8688,41.6 30.2,41.6 C30.5312,41.6 30.8,41.3306 30.8,41 C30.8,40.6694 30.5312,40.4 30.2,40.4 C29.8688,40.4 29.6,40.6694 29.6,41 L29.6,41 Z M36.2,42.8 C35.2076,42.8 34.4,41.9924 34.4,41 C34.4,40.0076 35.2076,39.2 36.2,39.2 C37.1924,39.2 38,40.0076 38,41 C38,41.9924 37.1924,42.8 36.2,42.8 L36.2,42.8 Z M36.2,41.6 C36.5312,41.6 36.8,41.3306 36.8,41 C36.8,40.6694 36.5312,40.4 36.2,40.4 C35.8688,40.4 35.6,40.6694 35.6,41 C35.6,41.3306 35.8688,41.6 36.2,41.6 L36.2,41.6 Z M42.2,42.8 C41.2076,42.8 40.4,41.9924 40.4,41 C40.4,40.0076 41.2076,39.2 42.2,39.2 C43.1924,39.2 44,40.0076 44,41 C44,41.9924 43.1924,42.8 42.2,42.8 L42.2,42.8 Z M42.2,41.6 C42.5312,41.6 42.8,41.3306 42.8,41 C42.8,40.6694 42.5312,40.4 42.2,40.4 C41.8688,40.4 41.6,40.6694 41.6,41 C41.6,41.3306 41.8688,41.6 42.2,41.6 L42.2,41.6 Z M41,32 L31.4252,32 C31.0934,32 30.8252,32.2688 30.8252,32.6 C30.8252,32.9312 31.0934,33.2 31.4252,33.2 L41,33.2 C45.3008,33.2 48.8,36.6986 48.8,41 C48.8,45.3008 45.3008,48.8 41,48.8 L27.8,48.8 C24.3596,48.8 21.281,46.4972 20.3144,43.199 C20.2214,42.8816 19.8896,42.6986 19.5698,42.7922 C19.2518,42.8858 19.0694,43.2188 19.1624,43.5368 C20.2784,47.342 23.8304,50 27.8,50 L41,50 C45.9632,50 50,45.9626 50,41 C50,36.0374 45.9632,32 41,32 L41,32 Z M16.8944,41.6 C17.2526,42.212 17.6,42.9272 17.6,43.4 C17.6,44.3924 16.7924,45.2 15.8,45.2 C14.8076,45.2 14,44.3924 14,43.4 C14,42.7574 14.639,41.6714 15.0782,41 C14.639,40.3286 14,39.2426 14,38.6 C14,37.6076 14.8076,36.8 15.8,36.8 C16.7924,36.8 17.6,37.6076 17.6,38.6 C17.6,39.0728 17.2526,39.7874 16.8944,40.4 L18.8198,40.4 C19.13,35.7164 23.039,32 27.8,32 L28.5806,32 L32.036,22.532 C32.4086,21.6842 33.1742,21.2 34.1,21.2 L35.6,21.2 L35.6,15.8 C35.6,14.8076 36.4076,14 37.4,14 L39.8,14 C40.1318,14 40.4,14.2688 40.4,14.6 C40.4,14.9312 40.1318,15.2 39.8,15.2 L37.4,15.2 C37.0688,15.2 36.8,15.4694 36.8,15.8 L36.8,21.2 L39.8,21.2 C40.7924,21.2 41.6,22.0076 41.6,23 L41.6,30.2 C41.6,30.5312 41.3318,30.8 41,30.8 L36.2,30.8 C35.2076,30.8 34.4,29.9924 34.4,29 L34.4,26.6 C34.4,25.6076 35.2076,24.8 36.2,24.8 L40.4,24.8 L40.4,23 C40.4,22.6694 40.1312,22.4 39.8,22.4 L34.1,22.4 C33.7826,22.4 33.3602,22.5002 33.149,22.9796 L29.564,32.8058 C29.477,33.0422 29.252,33.2 29,33.2 L27.8,33.2 C23.4992,33.2 20,36.6986 20,41 C20,41.3312 19.7318,41.6 19.4,41.6 L16.8944,41.6 L16.8944,41.6 Z M36.2,29.6 L40.4,29.6 L40.4,26 L36.2,26 C35.8688,26 35.6,26.2694 35.6,26.6 L35.6,29 C35.6,29.3306 35.8688,29.6 36.2,29.6 L36.2,29.6 Z M15.2,38.6 C15.2048,38.7836 15.4544,39.3062 15.8,39.8876 C16.1456,39.3056 16.3952,38.783 16.4,38.5994 C16.4,38.2694 16.1312,38 15.8,38 C15.4688,38 15.2,38.2694 15.2,38.6 L15.2,38.6 Z M16.4,43.4 C16.3952,43.2164 16.1456,42.6938 15.8,42.1118 C15.4544,42.6944 15.2048,43.217 15.2,43.4006 C15.2,43.7306 15.4688,44 15.8,44 C16.1312,44 16.4,43.7306 16.4,43.4 L16.4,43.4 Z" id="submarine"></path>
                    </g>
                </g>
            </g>
        </g>
    </g>
</svg>