<?xml version="1.0" encoding="UTF-8"?>
<svg width="18px" height="16px" viewBox="0 0 18 16" version="1.1" xmlns="http://www.w3.org/2000/svg" xmlns:xlink="http://www.w3.org/1999/xlink">
    <!-- Generator: sketchtool 52.5 (67469) - http://www.bohemiancoding.com/sketch -->
    <title>BDD8DB80-28A5-48EC-BD5C-C9DF5477FCB3_rounded</title>
    <desc>Created with sketchtool.</desc>
    <defs>
        <path d="M15.8333333,6.66666667 L4.16666667,6.66666667 C2.78333333,6.66666667 1.66666667,7.78333333 1.66666667,9.16666667 L1.66666667,12.5 C1.66666667,13.4166667 2.41666667,14.1666667 3.33333333,14.1666667 L5,14.1666667 L5,15.8333333 C5,16.75 5.75,17.5 6.66666667,17.5 L13.3333333,17.5 C14.25,17.5 15,16.75 15,15.8333333 L15,14.1666667 L16.6666667,14.1666667 C17.5833333,14.1666667 18.3333333,13.4166667 18.3333333,12.5 L18.3333333,9.16666667 C18.3333333,7.78333333 17.2166667,6.66666667 15.8333333,6.66666667 Z M12.5,15.8333333 L7.5,15.8333333 C7.04166667,15.8333333 6.66666667,15.4583333 6.66666667,15 L6.66666667,11.6666667 L13.3333333,11.6666667 L13.3333333,15 C13.3333333,15.4583333 12.9583333,15.8333333 12.5,15.8333333 Z M15.8333333,10 C15.375,10 15,9.625 15,9.16666667 C15,8.70833333 15.375,8.33333333 15.8333333,8.33333333 C16.2916667,8.33333333 16.6666667,8.70833333 16.6666667,9.16666667 C16.6666667,9.625 16.2916667,10 15.8333333,10 Z M14.1666667,2.5 L5.83333333,2.5 C5.375,2.5 5,2.875 5,3.33333333 L5,5 C5,5.45833333 5.375,5.83333333 5.83333333,5.83333333 L14.1666667,5.83333333 C14.625,5.83333333 15,5.45833333 15,5 L15,3.33333333 C15,2.875 14.625,2.5 14.1666667,2.5 Z" id="path-1"></path>
    </defs>
    <g id="Tur-Detay" stroke="none" stroke-width="1" fill="none" fill-rule="evenodd">
        <g transform="translate(-425.000000, -1217.000000)" id="NEUTRAL">
            <g transform="translate(406.000000, 1203.000000)">
                <g id="DEFAULT">
                    <g id="Group" transform="translate(18.000000, 4.000000)">
                        <g id="icon/action/print_24px" transform="translate(0.000000, 8.000000)">
                            <mask id="mask-2" fill="white">
                                <use xlink:href="#path-1"></use>
                            </mask>
                            <g fill-rule="nonzero"></g>
                            <g id="↳-Color" mask="url(#mask-2)" fill="#3282FD">
                                <rect id="Rectangle" x="0" y="0" width="20" height="20"></rect>
                            </g>
                        </g>
                    </g>
                </g>
            </g>
        </g>
    </g>
</svg>