<?xml version="1.0" encoding="UTF-8"?>
<svg width="58px" height="58px" viewBox="0 0 58 58" version="1.1" xmlns="http://www.w3.org/2000/svg" xmlns:xlink="http://www.w3.org/1999/xlink">
    <!-- Generator: sketchtool 52.5 (67469) - http://www.bohemiancoding.com/sketch -->
    <title>97E0F2F8-9DD3-472F-B572-7CCDC9F42C9A_rounded</title>
    <desc>Created with sketchtool.</desc>
    <defs>
        <path d="M34,5.66666667 C18.36,5.66666667 5.66666667,18.36 5.66666667,34 C5.66666667,49.64 18.36,62.3333333 34,62.3333333 C49.64,62.3333333 62.3333333,49.64 62.3333333,34 C62.3333333,18.36 49.64,5.66666667 34,5.66666667 Z M34,56.6666667 C21.505,56.6666667 11.3333333,46.495 11.3333333,34 C11.3333333,21.505 21.505,11.3333333 34,11.3333333 C46.495,11.3333333 56.6666667,21.505 56.6666667,34 C56.6666667,46.495 46.495,56.6666667 34,56.6666667 Z M44.9933338,23.4883332 L28.3333336,40.1483332 L23.0066668,34.8216666 C22.4773108,34.2911173 21.7586334,33.9929573 21.0091668,33.9929573 C20.2597001,33.9929573 19.5410227,34.2911173 19.0116667,34.8216666 C17.9066667,35.9266666 17.9066667,37.7116666 19.0116667,38.8166666 L26.3500002,46.1549999 C27.4550002,47.2599999 29.2400002,47.2599999 30.3450003,46.1549999 L49.0166672,27.4833332 C50.1216673,26.3783332 50.1216673,24.5933332 49.0166672,23.4883332 C47.9116672,22.3833332 46.0983339,22.3833332 44.9933338,23.4883332 Z" id="path-1"></path>
    </defs>
    <g id="Sizi-Arayalım" stroke="none" stroke-width="1" fill="none" fill-rule="evenodd">
        <g id="Sizi-Arayalım_2" transform="translate(-691.000000, -262.000000)">
            <g id="Group-25" transform="translate(470.000000, 201.000000)">
                <g id="MODAL">
                    <g id="icon/action/check_circle_outline_24px" transform="translate(216.000000, 56.000000)">
                        <mask id="mask-2" fill="white">
                            <use xlink:href="#path-1"></use>
                        </mask>
                        <g fill-rule="nonzero"></g>
                        <g id="↳-Color" mask="url(#mask-2)" fill="#2DCE89">
                            <rect id="Rectangle-3" x="0" y="0" width="68" height="68"></rect>
                        </g>
                    </g>
                </g>
            </g>
        </g>
    </g>
</svg>