<svg width="19" height="19" viewBox="0 0 19 19" fill="none" xmlns="http://www.w3.org/2000/svg">
<mask id="mask0" mask-type="alpha" maskUnits="userSpaceOnUse" x="1" y="1" width="17" height="17">
<path fill-rule="evenodd" clip-rule="evenodd" d="M9.49984 1.83008C5.26318 1.83008 1.83057 5.26269 1.83057 9.49935C1.83057 13.736 5.26318 17.1686 9.49984 17.1686C13.7365 17.1686 17.1691 13.736 17.1691 9.49935C17.1691 5.26269 13.7365 1.83008 9.49984 1.83008ZM9.49984 15.6842C6.08268 15.6842 3.31494 12.9165 3.31494 9.49935C3.31494 6.08219 6.08268 3.31445 9.49984 3.31445C12.917 3.31445 15.6847 6.08219 15.6847 9.49935C15.6847 12.9165 12.917 15.6842 9.49984 15.6842ZM10.7244 9.49935L12.648 7.57585C12.7933 7.4305 12.7933 7.19548 12.648 7.05013L11.9491 6.35124C11.8037 6.20589 11.5687 6.20589 11.4233 6.35124L9.49984 8.27474L7.57633 6.35124C7.43099 6.20589 7.19596 6.20589 7.05062 6.35124L6.35173 7.05013C6.20638 7.19548 6.20638 7.4305 6.35173 7.57585L8.27523 9.49935L6.35173 11.4229C6.20638 11.5682 6.20638 11.8032 6.35173 11.9486L7.05062 12.6475C7.19596 12.7928 7.43099 12.7928 7.57633 12.6475L9.49984 10.724L11.4233 12.6475C11.5687 12.7928 11.8037 12.7928 11.9491 12.6475L12.648 11.9486C12.7933 11.8032 12.7933 11.5682 12.648 11.4229L10.7244 9.49935Z" fill="white"/>
</mask>
<g mask="url(#mask0)">
<rect width="19" height="19" fill="#525F7F"/>
</g>
</svg>
