<svg xmlns="http://www.w3.org/2000/svg" width="21" height="21" viewBox="0 0 21 21">
    <path fill="#3282FD" d="M19.59 5.25l-2.436-1.407-1.406-2.436h-2.813L10.499 0 8.062 1.407H5.25L3.843 3.843 1.407 5.249v2.813L0 10.5l1.407 2.436v2.813l2.436 1.407L5.25 19.59h2.813l2.436 1.406 2.436-1.406h2.813l1.407-2.437 2.436-1.406v-2.813l1.407-2.437-1.407-2.436V5.249zM9.552 14.795c-.196.195-.454.29-.71.287-.257.004-.515-.092-.71-.287l-3.071-3.07c-.385-.385-.385-1.01 0-1.394l.813-.813c.384-.385 1.008-.385 1.393 0l1.575 1.575 4.89-4.891c.385-.385 1.009-.385 1.393 0l.813.813c.385.385.385 1.008 0 1.393l-6.386 6.387z"/>
</svg>
