<svg width="19" height="20" viewBox="0 0 19 20" fill="none" xmlns="http://www.w3.org/2000/svg">
<mask id="mask0" mask-type="alpha" maskUnits="userSpaceOnUse" x="2" y="2" width="15" height="16">
<path fill-rule="evenodd" clip-rule="evenodd" d="M15.9322 4.55794H13.3838L12.3323 2.80453C12.0639 2.35728 11.5805 2.08374 11.0589 2.08398H7.94106C7.41967 2.08395 6.9365 2.35747 6.6682 2.80453L5.61615 4.55794H3.06767C2.7944 4.55794 2.57288 4.77947 2.57288 5.05274V5.54753C2.57288 5.82079 2.7944 6.04232 3.06767 6.04232H3.56246V16.4329C3.56246 17.2527 4.22704 17.9173 5.04683 17.9173H13.9531C14.7729 17.9173 15.4375 17.2527 15.4375 16.4329V6.04232H15.9322C16.2055 6.04232 16.427 5.82079 16.427 5.54753V5.05274C16.427 4.77947 16.2055 4.55794 15.9322 4.55794ZM10.8606 14.9486H11.6028C11.8078 14.9486 11.9739 14.7824 11.9739 14.5775V7.89779C11.9739 7.69284 11.8078 7.52669 11.6028 7.52669H10.8606C10.6557 7.52669 10.4895 7.69284 10.4895 7.89779V14.5775C10.4895 14.7824 10.6557 14.9486 10.8606 14.9486ZM8.04651 3.56836C7.98119 3.56818 7.92058 3.60236 7.88694 3.65835L7.34731 4.55794H11.6526L11.1127 3.65835C11.0791 3.60245 11.0186 3.56829 10.9534 3.56836H8.04651ZM13.9531 16.4329H5.04683V6.04232H13.9531V16.4329ZM8.13928 14.9486H7.39709C7.19215 14.9486 7.026 14.7824 7.026 14.5775V7.89779C7.026 7.69284 7.19215 7.52669 7.39709 7.52669H8.13928C8.34423 7.52669 8.51038 7.69284 8.51038 7.89779V14.5775C8.51038 14.7824 8.34423 14.9486 8.13928 14.9486Z" fill="white"/>
</mask>
<g mask="url(#mask0)">
<rect y="0.5" width="19" height="19" fill="#8898AA"/>
</g>
</svg>
