<svg width="21" height="12" viewBox="0 0 21 12" fill="none" xmlns="http://www.w3.org/2000/svg">
<path d="M18.1621 5.28015C18.777 4.89124 19.1842 4.24431 19.1842 3.51511C19.1842 2.32222 18.1122 1.35743 16.7867 1.35743C15.4612 1.35743 14.3892 2.32222 14.3892 3.51511C14.3892 4.24431 14.7922 4.89124 15.4114 5.28015C14.8837 5.44469 14.4017 5.69897 13.9945 6.02805C13.4335 5.59801 12.7729 5.26893 12.0499 5.07448C12.9266 4.59582 13.5166 3.72453 13.5166 2.73356C13.5166 1.22281 12.1579 0 10.4792 0C8.80055 0 7.44183 1.22655 7.44183 2.73356C7.44183 3.72453 8.0277 4.59582 8.90859 5.07448C8.19391 5.26893 7.54155 5.59427 6.98476 6.01683C6.57756 5.69523 6.10388 5.44469 5.58449 5.28389C6.19945 4.89498 6.60665 4.24805 6.60665 3.51885C6.60665 2.32596 5.53463 1.36117 4.20914 1.36117C2.88366 1.36117 1.81163 2.32596 1.81163 3.51885C1.81163 4.24805 2.21468 4.89498 2.83379 5.28389C1.18421 5.7962 0 7.20598 0 8.86257V9.10938C0 9.11686 0.00831025 9.12434 0.0166205 9.12434H5.09834C5.06925 9.33001 5.05263 9.54316 5.05263 9.75631V10.0106C5.05263 11.11 6.04155 12 7.26316 12H13.7036C14.9252 12 15.9141 11.11 15.9141 10.0106V9.75631C15.9141 9.54316 15.8975 9.33001 15.8684 9.12434H20.9834C20.9917 9.12434 21 9.11686 21 9.10938V8.86257C20.9917 7.20224 19.8116 5.79246 18.1621 5.28015ZM15.054 3.51137C15.054 2.65129 15.831 1.95201 16.7867 1.95201C17.7424 1.95201 18.5194 2.65129 18.5194 3.51137C18.5194 4.36024 17.759 5.05204 16.8199 5.07074C16.8075 5.07074 16.7992 5.07074 16.7867 5.07074C16.7742 5.07074 16.7659 5.07074 16.7535 5.07074C15.8103 5.05578 15.054 4.36398 15.054 3.51137ZM8.09834 2.73356C8.09834 1.55563 9.16205 0.598317 10.4709 0.598317C11.7798 0.598317 12.8435 1.55563 12.8435 2.73356C12.8435 3.87037 11.8504 4.8015 10.608 4.86507C10.5623 4.86507 10.5166 4.86507 10.4709 4.86507C10.4252 4.86507 10.3795 4.86507 10.3338 4.86507C9.09141 4.8015 8.09834 3.87037 8.09834 2.73356ZM2.46399 3.51137C2.46399 2.65129 3.241 1.95201 4.19668 1.95201C5.15235 1.95201 5.92936 2.65129 5.92936 3.51137C5.92936 4.36024 5.16898 5.05204 4.22992 5.07074C4.21745 5.07074 4.20914 5.07074 4.19668 5.07074C4.18421 5.07074 4.1759 5.07074 4.16343 5.07074C3.22438 5.05578 2.46399 4.36398 2.46399 3.51137ZM5.21468 8.52228H0.67313C0.860111 6.92926 2.35596 5.68027 4.17175 5.66906C4.18006 5.66906 4.18837 5.66906 4.19668 5.66906C4.20499 5.66906 4.2133 5.66906 4.22161 5.66906C5.08587 5.6728 5.87535 5.96074 6.48615 6.42817C5.88781 7.01153 5.44321 7.72951 5.21468 8.52228ZM15.241 10.0106C15.241 10.7772 14.5471 11.4017 13.6953 11.4017H7.25485C6.40305 11.4017 5.70914 10.7772 5.70914 10.0106V9.75631C5.70914 7.43409 7.77008 5.53443 10.3338 5.46712C10.3795 5.47086 10.4294 5.47086 10.4751 5.47086C10.5208 5.47086 10.5706 5.47086 10.6163 5.46712C13.1801 5.53443 15.241 7.43409 15.241 9.75631V10.0106V10.0106ZM15.7355 8.52228C15.5069 7.73325 15.0706 7.02649 14.4765 6.44313C15.0914 5.96447 15.8892 5.67654 16.7618 5.66906C16.7701 5.66906 16.7784 5.66906 16.7867 5.66906C16.795 5.66906 16.8033 5.66906 16.8116 5.66906C18.6274 5.68027 20.1233 6.92926 20.3102 8.52228H15.7355Z" fill="#204382"/>
</svg>
