<?xml version="1.0" encoding="UTF-8"?>
<svg width="20px" height="20px" viewBox="0 0 20 20" version="1.1" xmlns="http://www.w3.org/2000/svg" xmlns:xlink="http://www.w3.org/1999/xlink">
    <title>İcon/Talepler</title>
    <defs>
        <path d="M4,0 L259,0 C261.209139,-4.05812251e-16 263,1.790861 263,4 L263,1029 C263,1031.20914 261.209139,1033 259,1033 L4,1033 C1.790861,1033 2.705415e-16,1031.20914 0,1029 L0,4 C-2.705415e-16,1.790861 1.790861,4.05812251e-16 4,0 Z" id="path-1"></path>
        <filter x="-9.5%" y="-1.9%" width="119.0%" height="104.8%" filterUnits="objectBoundingBox" id="filter-2">
            <feOffset dx="0" dy="15" in="SourceAlpha" result="shadowOffsetOuter1"></feOffset>
            <feGaussianBlur stdDeviation="2" in="shadowOffsetOuter1" result="shadowBlurOuter1"></feGaussianBlur>
            <feColorMatrix values="0 0 0 0 0.196078431   0 0 0 0 0.196078431   0 0 0 0 0.364705882  0 0 0 0.01 0" type="matrix" in="shadowBlurOuter1" result="shadowMatrixOuter1"></feColorMatrix>
            <feOffset dx="0" dy="5" in="SourceAlpha" result="shadowOffsetOuter2"></feOffset>
            <feGaussianBlur stdDeviation="7.5" in="shadowOffsetOuter2" result="shadowBlurOuter2"></feGaussianBlur>
            <feColorMatrix values="0 0 0 0 0   0 0 0 0 0   0 0 0 0 0  0 0 0 0.07 0" type="matrix" in="shadowBlurOuter2" result="shadowMatrixOuter2"></feColorMatrix>
            <feMerge>
                <feMergeNode in="shadowMatrixOuter1"></feMergeNode>
                <feMergeNode in="shadowMatrixOuter2"></feMergeNode>
            </feMerge>
        </filter>
    </defs>
    <g id="Maviyyo-Paneli" stroke="none" stroke-width="1" fill="none" fill-rule="evenodd">
        <g id="1GÖSTERGE-PANELİ" transform="translate(-208.000000, -697.000000)">
            <rect fill="#F6F9FC" x="0" y="0" width="1440" height="1637"></rect>
            <g id="Profil_Sol-Menü" transform="translate(150.000000, 117.000000)" fill-rule="nonzero">
                <g id="Profil-Menü-Arka-Zemin">
                    <use fill="black" fill-opacity="1" filter="url(#filter-2)" xlink:href="#path-1"></use>
                    <use fill="#FFFFFF" xlink:href="#path-1"></use>
                </g>
                <g id="Menü-Genel" transform="translate(56.000000, 219.000000)" fill="#172B4D">
                    <g id="Talepler" transform="translate(2.000000, 361.000000)">
                        <path d="M17.5486578,1.31450406e-13 L10.0703898,1.31450406e-13 C8.71646228,1.31450406e-13 7.61904762,1.09808065 7.61904762,2.4572402 L7.61904762,13.7015555 C7.61904762,14.1786055 8.16480044,14.457606 8.54994857,14.1681259 L10.8875039,12.4107412 L17.5486578,12.4107412 C18.9025853,12.4107412 20,11.3126606 20,9.95350101 L20,2.4572402 C20,1.10005506 18.904555,1.31450406e-13 17.5486578,1.31450406e-13 L17.5486578,1.31450406e-13 Z M13.227635,9.28736249 L10.6935662,9.28736249 C10.3722054,9.28736249 10.1117531,9.02628356 10.1117531,8.70414954 C10.1117531,8.38201548 10.3722054,8.12093659 10.6935662,8.12093659 L13.227635,8.12093659 C13.5489958,8.12093659 13.8094481,8.38201548 13.8094481,8.70414954 C13.8094481,9.02628356 13.5489958,9.28736249 13.227635,9.28736249 Z M16.9254814,6.78865947 L10.6935662,6.78865947 C10.3722054,6.78865947 10.1117531,6.52742867 10.1117531,6.20544652 C10.1117531,5.8833125 10.3722054,5.62223357 10.6935662,5.62223357 L16.9254814,5.62223357 C17.2466907,5.62223357 17.5072945,5.8833125 17.5072945,6.20544652 C17.5072945,6.52742867 17.2468422,6.78865947 16.9254814,6.78865947 L16.9254814,6.78865947 Z M16.9254814,4.28980462 L10.6935662,4.28980462 C10.3722054,4.28980462 10.1117531,4.02872572 10.1117531,3.70659167 C10.1117531,3.38460952 10.3722054,3.12337872 10.6935662,3.12337872 L16.9254814,3.12337872 C17.2466907,3.12337872 17.5072945,3.38460952 17.5072945,3.70659167 C17.5072945,4.02872572 17.2468422,4.28980462 16.9254814,4.28980462 L16.9254814,4.28980462 Z" id="Shape"></path>
                        <path d="M6.66666667,12.3810311 C6.66666667,13.9589326 5.38746881,15.2380952 3.80952381,15.2380952 C2.23157885,15.2380952 0.952380952,13.9589326 0.952380952,12.3810311 C0.952380952,10.8029722 2.23157885,9.52380952 3.80952381,9.52380952 C5.38746881,9.52380952 6.66666667,10.8029722 6.66666667,12.3810311 Z" id="Path"></path>
                        <path d="M3.80944575,15.2380952 C1.70562647,15.2380952 1.30562228e-13,16.811335 1.30562228e-13,18.7518609 L1.30562228e-13,19.4471272 C1.30562228e-13,19.752503 0.268323602,20 0.599396505,20 L7.01965111,20 C7.35056793,20 7.61904762,19.752503 7.61904762,19.4471272 L7.61904762,18.7518609 C7.61904762,16.811335 5.91342115,15.2380952 3.80944575,15.2380952 L3.80944575,15.2380952 Z" id="Path"></path>
                    </g>
                </g>
            </g>
        </g>
    </g>
</svg>