<?xml version="1.0" encoding="utf-8"?>
<svg width="27px" height="27px" viewbox="0 0 27 27" version="1.1" xmlns:xlink="http://www.w3.org/1999/xlink" xmlns="http://www.w3.org/2000/svg">
  <g id="close" transform="translate(0.5 0.5)">
    <path d="M25.6924 0.30762C25.2823 -0.10254 24.6173 -0.10254 24.2071 0.30762L0.30762 24.2071C-0.10254 24.6172 -0.10254 25.2822 0.30762 25.6924C0.512675 25.8975 0.781511 26 1.0503 26C1.31908 26 1.58787 25.8975 1.79297 25.6923L25.6924 1.79287C26.1025 1.38276 26.1025 0.717781 25.6924 0.30762Z" id="Path" fill="#FFFFFF" fill-rule="evenodd" stroke="#FFFFFF" stroke-width="1" />
    <path d="M25.6924 24.2071L1.79287 0.30762C1.38276 -0.10254 0.717731 -0.10254 0.307621 0.30762C-0.10254 0.71773 -0.10254 1.38271 0.307621 1.79287L24.2072 25.6924C24.4122 25.8975 24.681 26 24.9498 26C25.2186 26 25.4875 25.8975 25.6925 25.6924C26.1025 25.2822 26.1025 24.6172 25.6924 24.2071Z" id="Path" fill="#FFFFFF" fill-rule="evenodd" stroke="#FFFFFF" stroke-width="1" />
  </g>
</svg>