<svg xmlns="http://www.w3.org/2000/svg" width="22.93" height="21.45" viewBox="0 0 22.93 21.45">
    <g id="doğrulandı" transform="translate(-0.535 -0.094)">
        <path id="Path" d="M19.306,10.824l-.5-1.423-5.4,5.4a2.8,2.8,0,0,1-3.956,0L5.484,10.84A2.8,2.8,0,1,1,9.44,6.884l1.985,1.985,5.32-5.32-.358-1.017-.165-.986a1.845,1.845,0,0,0-2.894-1.2L10.736,2.223,8.116.343a1.843,1.843,0,0,0-2.887,1.2L4.721,4.7l-3.177.527a1.845,1.845,0,0,0-1.2,2.894l1.876,2.592-1.88,2.62a1.843,1.843,0,0,0,1.2,2.887L4.7,16.73l.529,3.177a1.842,1.842,0,0,0,2.893,1.2l2.592-1.875L13.328,21.1a1.839,1.839,0,0,0,1.07.346,1.861,1.861,0,0,0,.711-.143,1.833,1.833,0,0,0,1.113-1.4l.508-3.158,3.177-.527a1.842,1.842,0,0,0,1.2-2.892Z" transform="translate(0.535 0.094)" fill="#172b4d"/>
        <path id="Path-2" data-name="Path" d="M5.024,11.835a.967.967,0,0,1-.676-.272L.28,7.618a.91.91,0,0,1,0-1.313.978.978,0,0,1,1.354,0L5.025,9.594,14.638.272a.979.979,0,0,1,1.354,0,.908.908,0,0,1,0,1.313L5.7,11.564a.986.986,0,0,1-.678.27Z" transform="translate(7.192 1.574)" fill="#192d4f"/>
    </g>
</svg>
