<svg xmlns="http://www.w3.org/2000/svg" width="36" height="36" viewBox="0 0 36 36">
    <path fill="#3282FD" fill-rule="evenodd" d="M35.393 34.679c.053.321-.165.625-.486.678-.218.036-.445.054-.677.054-1.168 0-1.919-.443-2.361-.847-.443.404-1.193.847-2.36.847-1.169 0-1.919-.443-2.361-.847-.443.404-1.193.847-2.361.847-1.168 0-1.918-.443-2.36-.847-.443.404-1.193.847-2.361.847-1.168 0-1.918-.443-2.361-.847-.443.404-1.193.847-2.36.847-1.169 0-1.919-.443-2.361-.847-.443.404-1.193.847-2.361.847-1.168 0-1.918-.443-2.36-.847-.443.404-1.193.847-2.361.847-1.168 0-1.918-.443-2.361-.847-.443.404-1.193.847-2.36.847-.236 0-.452-.018-.68-.057-.322-.055-.538-.359-.483-.68.054-.322.358-.538.68-.483.164.027.312.04.482.04 1.357 0 1.818-.827 1.837-.862.105-.194.302-.317.531-.315.22.004.423.126.52.323.016.027.477.854 1.834.854 1.356 0 1.817-.827 1.836-.862.105-.194.302-.317.531-.315.22.004.422.126.521.323.015.027.477.854 1.833.854 1.356 0 1.818-.827 1.837-.862.105-.194.301-.317.53-.315.22.004.423.126.521.323.016.027.477.854 1.833.854 1.356 0 1.818-.827 1.837-.862.105-.194.301-.317.531-.315.22.004.422.126.52.323.016.027.477.854 1.834.854 1.356 0 1.817-.827 1.836-.862.105-.194.302-.317.531-.315.22.004.422.126.521.323.015.027.477.854 1.833.854 1.356 0 1.818-.827 1.836-.862.106-.194.301-.317.532-.315.22.004.422.126.52.323.015.027.477.854 1.833.854 1.356 0 1.818-.827 1.837-.862.105-.194.3-.317.53-.315.221.004.423.126.521.323.016.027.477.854 1.834.854.168 0 .33-.013.484-.039.324-.052.626.165.679.487zm-.573-13.432h-7.082c-.906 0-1.554.71-1.624.791-.018.02-.033.04-.048.062l-1.18 1.77c-.18.272-.107.638.164.819.27.181.636.107.818-.164l1.154-1.73c.119-.122.42-.368.716-.368h6.191c-.611 1.364-1.314 2.537-2.063 3.541h-3.538c-.326 0-.59.265-.59.59 0 .326.264.59.59.59h2.568c-1.918 2.113-4.009 3.228-5.635 3.553-.32.064-.527.375-.462.695.055.28.302.474.577.474.039 0 .078-.004.117-.012 2.985-.596 7.363-3.522 9.875-9.801.073-.182.05-.389-.06-.55-.11-.163-.292-.26-.488-.26zM4.535 31.84c.062.02.124.03.186.03.248 0 .478-.156.56-.404.104-.309-.064-.643-.373-.746-1.125-.375-2.658-1.853-3.355-3.571h16.152c.326 0 .59-.265.59-.59 0-.326-.264-.59-.59-.59H1.229c-.029-.197-.049-.394-.049-.59v-.59h21.246v3.43c-.506-.18-.903-.582-1.078-1.09.276-.051.488-.28.488-.57 0-.326-.264-.59-.59-.59h-1.18c-.326 0-.59.264-.59.59 0 .325.264.59.59.59h.06c.274 1.345 1.465 2.36 2.89 2.36 1.426 0 2.617-1.015 2.892-2.36h.06c.325 0 .59-.265.59-.59 0-.326-.265-.59-.59-.59h-1.181c-.326 0-.59.264-.59.59 0 .29.212.519.488.57-.175.508-.572.91-1.078 1.091v-4.022c0-.326-.265-.59-.59-.59H.59c-.326 0-.59.264-.59.59v1.18c0 2.788 2.437 5.763 4.535 6.462zm9.039-9.413c.326 0 .59-.264.59-.59V1.684c2.074 1.465 7.082 5.652 7.082 11.891 0 2.554-2.03 5.311-5.312 5.311-.325 0-.59.265-.59.59 0 .326.265.59.59.59 4.01 0 6.492-3.37 6.492-6.491 0-8.507-8.21-13.296-8.56-13.496-.182-.104-.406-.104-.588.002-.182.105-.294.3-.294.51v21.246c0 .326.264.59.59.59zM6.492 5.903h3.54c.327 0 .591-.265.591-.59 0-.326-.264-.59-.59-.59H6.492c-.326 0-.59.264-.59.59 0 .325.264.59.59.59zM2.95 9.443h7.082c.326 0 .59-.264.59-.59 0-.325-.264-.59-.59-.59H2.95c-.326 0-.59.265-.59.59 0 .326.264.59.59.59zm7.082 2.361H5.31c-.325 0-.59.265-.59.59 0 .326.265.59.59.59h4.722c.326 0 .59-.264.59-.59 0-.325-.264-.59-.59-.59zm14.754-6.491c0-.326.264-.59.59-.59h1.83c.077-.377.227-.726.432-1.036l-1.297-1.296c-.23-.23-.23-.603 0-.834.23-.23.604-.23.834 0l1.298 1.296c.31-.205.659-.355 1.034-.432V.591c0-.326.263-.59.59-.591.326 0 .59.264.59.59l.001 1.831c.376.077.725.227 1.034.432l1.297-1.297c.23-.23.604-.23.834 0 .23.23.23.604 0 .835l-1.296 1.298c.205.309.355.658.432 1.033h1.83c.326 0 .59.264.59.59 0 .326-.263.59-.59.59h-1.83c-.077.377-.227.726-.432 1.035l1.296 1.297c.23.23.23.604 0 .834-.115.116-.266.173-.417.173-.151 0-.302-.057-.417-.173l-1.297-1.296c-.31.205-.659.355-1.034.432v1.83c0 .326-.265.59-.59.59-.326 0-.59-.264-.59-.59v-1.83c-.377-.077-.726-.227-1.035-.432l-1.297 1.296c-.115.116-.266.173-.417.173-.151 0-.302-.057-.417-.173-.231-.23-.231-.604 0-.834l1.296-1.297c-.205-.31-.355-.658-.432-1.034h-1.83c-.326 0-.59-.265-.59-.59zm3.54 0c0 .975.794 1.769 1.77 1.77h.003c.975-.001 1.768-.794 1.768-1.769v-.003c0-.976-.794-1.769-1.77-1.769s-1.77.795-1.77 1.77z"/>
</svg>
