<svg xmlns="http://www.w3.org/2000/svg" width="19" height="20" viewBox="0 0 19 20">
    <g fill="#3282FD">
        <path d="M16.993 18.203l-.217.038c-4.897.86-5.798 1.007-5.9 1.019-.24.027-.42.013-.55-.043-.081-.035-.125-.077-.137-.096.006-.033.049-.112.075-.16.026-.047.055-.1.08-.157.169-.377.05-.759-.308-.997-.267-.178-.621-.25-1.053-.214-.258.02-4.778.763-7.261 1.172l-1.219.938c2.842-.47 8.257-1.359 8.542-1.386.254-.021.453.01.574.091.07.047.063.063.045.104-.014.031-.034.068-.055.107-.081.15-.193.354-.156.607.04.278.25.517.573.657.182.078.391.117.633.117.096 0 .197-.006.303-.018.195-.022 2.195-.367 5.945-1.025l.216-.038c.202-.035.337-.224.3-.421-.035-.198-.228-.33-.43-.295zM3.867 14.658L.71 17.879c-.348.355-.593.793-.71 1.27l4.483-3.438c1.403.607 2.524.8 3.383.8 1.51 0 2.21-.597 2.21-.597-1.405-.713-1.605-2.044-1.605-2.044 1.076.443 3.318.967 3.318.967 2.977-1.939 4.533-6.136 4.533-6.136-.308.083-.603.118-.88.118-1.398 0-2.358-.873-2.358-.873l3.89-.827C18.265 4.531 18.39 0 18.39 0L6.565 10.26c-1.34 1.162-2.281 2.697-2.698 4.398z"/>
    </g>
</svg>
